<?xml version="1.0" encoding="UTF-8"?>
<svg width="375px" height="812px" viewBox="0 0 375 812" version="1.1" xmlns="http://www.w3.org/2000/svg" xmlns:xlink="http://www.w3.org/1999/xlink">
    <!-- Generator: Sketch 52.2 (67145) - http://www.bohemiancoding.com/sketch -->
    <title>Register</title>
    <desc>Created with Sketch.</desc>
    <defs>
        <linearGradient x1="50%" y1="100%" x2="50%" y2="3.061617e-15%" id="linearGradient-1">
            <stop stop-color="#FAD961" stop-opacity="0.705049819" offset="0%"></stop>
            <stop stop-color="#E33B07" offset="100%"></stop>
        </linearGradient>
        <path d="M0,273 L0,0 L375,0 C350.033943,25.3656295 328.033943,42.0322962 309,50 C283.386941,60.7217547 216,73 201,77 C143.373414,92.3670896 130.87922,93.7039275 103,114 C86.9077422,125.715164 64.4767187,153.89667 50,186 C39.3279124,209.666243 35.7461418,237.813217 28,251 C18.5738996,267.046691 9.24056624,274.380025 0,273 Z" id="path-2"></path>
        <filter x="-4.8%" y="-4.4%" width="109.6%" height="113.2%" filterUnits="objectBoundingBox" id="filter-3">
            <feOffset dx="0" dy="6" in="SourceAlpha" result="shadowOffsetOuter1"></feOffset>
            <feGaussianBlur stdDeviation="5" in="shadowOffsetOuter1" result="shadowBlurOuter1"></feGaussianBlur>
            <feColorMatrix values="0 0 0 0 1   0 0 0 0 0.355713775   0 0 0 0 0.0911458333  0 0 0 1 0" type="matrix" in="shadowBlurOuter1"></feColorMatrix>
        </filter>
        <linearGradient x1="50%" y1="0%" x2="50%" y2="100%" id="linearGradient-4">
            <stop stop-color="#4CEBFF" offset="0%"></stop>
            <stop stop-color="#0053FF" offset="100%"></stop>
        </linearGradient>
        <path d="M0,812 L0,539 L375,539 C350.033943,564.36563 328.033943,581.032296 309,589 C283.386941,599.721755 216,612 201,616 C143.373414,631.36709 130.87922,632.703927 103,653 C86.9077422,664.715164 64.4767187,692.89667 50,725 C39.3279124,748.666243 35.7461418,776.813217 28,790 C18.5738996,806.046691 9.24056624,813.380025 0,812 Z" id="path-5"></path>
        <filter x="-1.2%" y="-1.6%" width="104.8%" height="106.6%" filterUnits="objectBoundingBox" id="filter-6">
            <feOffset dx="5" dy="5" in="SourceAlpha" result="shadowOffsetOuter1"></feOffset>
            <feGaussianBlur stdDeviation="2" in="shadowOffsetOuter1" result="shadowBlurOuter1"></feGaussianBlur>
            <feColorMatrix values="0 0 0 0 0.663552351   0 0 0 0 0.997927296   0 0 0 0 0.923086341  0 0 0 1 0" type="matrix" in="shadowBlurOuter1"></feColorMatrix>
        </filter>
        <path d="M135.000006,0.0190891712 C150.000819,0.592672038 162,14.0199424 162,30.5 C162,46.9800576 150.000819,60.407328 135.000006,60.9809108 L135,61 L0,61 L0,0 L135,0 L135,0.019088939 Z" id="path-7"></path>
        <filter x="-17.9%" y="-45.9%" width="135.8%" height="195.1%" filterUnits="objectBoundingBox" id="filter-8">
            <feOffset dx="0" dy="1" in="SourceAlpha" result="shadowOffsetOuter1"></feOffset>
            <feGaussianBlur stdDeviation="9.5" in="shadowOffsetOuter1" result="shadowBlurOuter1"></feGaussianBlur>
            <feColorMatrix values="0 0 0 0 0.669722577   0 0 0 0 0.669722577   0 0 0 0 0.669722577  0 0 0 0.421478714 0" type="matrix" in="shadowBlurOuter1"></feColorMatrix>
        </filter>
        <path d="M191.999989,0.0420330841 C192.996581,0.0140732367 193.996647,0 195,0 C252.989899,0 300,47.0101013 300,105 C300,162.989899 252.989899,210 195,210 C193.996647,210 192.996581,209.985927 191.999989,209.957967 L192,210 L0,210 L0,0 L192,0 L192,0.0420327635 Z" id="path-9"></path>
        <filter x="-9.7%" y="-13.3%" width="119.3%" height="127.6%" filterUnits="objectBoundingBox" id="filter-10">
            <feOffset dx="0" dy="1" in="SourceAlpha" result="shadowOffsetOuter1"></feOffset>
            <feGaussianBlur stdDeviation="9.5" in="shadowOffsetOuter1" result="shadowBlurOuter1"></feGaussianBlur>
            <feColorMatrix values="0 0 0 0 0.669722577   0 0 0 0 0.669722577   0 0 0 0 0.669722577  0 0 0 0.421478714 0" type="matrix" in="shadowBlurOuter1"></feColorMatrix>
        </filter>
        <linearGradient x1="100%" y1="50%" x2="0%" y2="50%" id="linearGradient-11">
            <stop stop-color="#FFFFFF" offset="0%"></stop>
            <stop stop-color="#979797" offset="100%"></stop>
        </linearGradient>
        <linearGradient x1="-1.11022302e-14%" y1="50%" x2="100%" y2="50%" id="linearGradient-12">
            <stop stop-color="#12C4BD" offset="0%"></stop>
            <stop stop-color="#25E3A6" offset="100%"></stop>
        </linearGradient>
    </defs>
    <g id="Register" stroke="none" stroke-width="1" fill="none" fill-rule="evenodd">
        <rect fill="#FFFFFF" x="0" y="0" width="375" height="812"></rect>
        <g id="Group-8" fill-rule="nonzero">
            <rect id="Rectangle-6" fill="#FFFFFF" x="0" y="0" width="375" height="812"></rect>
            <g id="Path-5">
                <use fill="black" fill-opacity="1" filter="url(#filter-3)" xlink:href="#path-2"></use>
                <use fill="url(#linearGradient-1)" xlink:href="#path-2"></use>
            </g>
            <g id="Path-5-Copy" transform="translate(187.500000, 675.581963) scale(-1, -1) translate(-187.500000, -675.581963) ">
                <use fill="black" fill-opacity="1" filter="url(#filter-6)" xlink:href="#path-5"></use>
                <use fill="url(#linearGradient-4)" xlink:href="#path-5"></use>
            </g>
        </g>
        <text font-family="ChalkboardSE-Bold, Chalkboard SE" font-size="48" font-weight="bold" line-spacing="26" fill="#394E66" fill-opacity="0.807036911">
            <tspan x="94" y="301">Register</tspan>
        </text>
        <g id="Group-7" transform="translate(213.000000, 140.000000)">
            <g id="Combined-Shape-Copy" fill-rule="nonzero" transform="translate(81.000000, 30.500000) scale(-1, 1) translate(-81.000000, -30.500000) ">
                <use fill="black" fill-opacity="1" filter="url(#filter-8)" xlink:href="#path-7"></use>
                <use fill="#FFFFFF" xlink:href="#path-7"></use>
            </g>
            <text id="Login" font-family="OpenSans-Bold, Open Sans" font-size="20" font-weight="bold" fill="#E54710">
                <tspan x="54.3857422" y="36">Login</tspan>
            </text>
        </g>
        <g id="Group-6" transform="translate(0.000000, 346.000000)">
            <g id="Group-5" fill-rule="nonzero">
                <g id="Combined-Shape">
                    <use fill="black" fill-opacity="1" filter="url(#filter-10)" xlink:href="#path-9"></use>
                    <use fill="#FFFFFF" xlink:href="#path-9"></use>
                </g>
                <path d="M1.5,71.5 L299.5,71.5" id="Line-2" stroke="url(#linearGradient-11)" stroke-width="1.5" opacity="0.400000006" stroke-linecap="square"></path>
                <path d="M1.5,140.25 L299.5,140.25" id="Line-2-Copy" stroke="url(#linearGradient-11)" stroke-width="1.5" opacity="0.400000006" stroke-linecap="square"></path>
                <g id="Group" transform="translate(269.000000, 74.000000)">
                    <g id="Group-3">
                        <circle id="Oval-4" fill="url(#linearGradient-12)" cx="31" cy="31" r="31"></circle>
                        <g id="3596" transform="translate(15.000000, 14.000000)" fill="#FFFFFF">
                            <path d="M11.8903712,33.1469838 C10.846852,33.1469838 9.85992059,32.6525232 9.22546471,31.8044602 L0.656713642,20.3429801 C-0.457780285,18.8523126 -0.0211296237,17.5 0.978870376,16.5734919 C1.97887038,15.6469838 3.86389689,15.6572877 4.97887038,17.1469838 L11.8903712,25.6469838 L27.4788704,1.14698383 C28.4547719,-0.438884383 30.5544936,0.0498923003 30.9788704,0.146983833 C31.4032471,0.244075366 32.4490436,2.73474292 31.4726625,4.32206829 L14.7283984,31.5514013 C14.1466939,32.498065 13.1424984,33.0935549 12.0428708,33.1440695 C11.9915581,33.1460124 11.9412044,33.1469838 11.8903712,33.1469838 Z" id="Shape"></path>
                        </g>
                    </g>
                </g>
            </g>
            <g id="Group-2" transform="translate(16.000000, 25.000000)">
                <g id="126486" transform="translate(1.000000, 1.000000)" fill="#5F7084" fill-rule="nonzero" stroke="#5E7085" stroke-width="0.5">
                    <path d="M7.9367018,10 C7.95588307,10 7.97506435,10 7.99808187,10 C8.00575438,10 8.01342689,10 8.0210994,10 C8.03260816,10 8.04795318,10 8.05946194,10 C9.18348448,9.98078401 10.0926768,9.58493467 10.7640213,8.82782475 C12.2409792,7.15987702 11.9954589,4.30053805 11.9686052,4.02767102 C11.8726988,1.97924673 10.9059627,0.99923136 10.1080218,0.541890853 C9.51340236,0.199846272 8.81904031,0.0153727902 8.04411693,0 L8.01726314,0 C8.01342689,0 8.00575438,0 8.00191813,0 L7.9789006,0 C7.55307636,0 6.71677291,0.0691775557 5.91499574,0.526518063 C5.10938232,0.98385857 4.12730119,1.96387394 4.03139483,4.02767102 C4.00454105,4.30053805 3.75902077,7.15987702 5.23597871,8.82782475 C5.90348698,9.58493467 6.81267927,9.98078401 7.9367018,10 Z M5.05567475,4.12375096 C5.05567475,4.11222137 5.05951101,4.10069178 5.05951101,4.09300538 C5.1861074,1.33743274 7.13876089,1.04150653 7.97506435,1.04150653 L7.99040936,1.04150653 C7.99808187,1.04150653 8.00959064,1.04150653 8.0210994,1.04150653 C9.05688808,1.06456572 10.8177289,1.48731745 10.9366527,4.09300538 C10.9366527,4.10453497 10.9366527,4.11606457 10.940489,4.12375096 C10.9443252,4.15065334 11.2128631,6.76402767 9.99293416,8.13989239 C9.5095661,8.68562644 8.86507537,8.95465027 8.01726314,8.96233666 C8.00959064,8.96233666 8.00575438,8.96233666 7.99808187,8.96233666 C7.99040936,8.96233666 7.98657311,8.96233666 7.9789006,8.96233666 C7.13492463,8.95465027 6.48659764,8.68562644 6.00706584,8.13989239 C4.7909732,6.77171407 5.0518385,4.14681015 5.05567475,4.12375096 Z" id="Shape"></path>
                    <path d="M14.9989773,14.4481149 C14.9989773,14.444538 14.9989773,14.4409611 14.9989773,14.4373841 C14.9989773,14.4087688 14.9953255,14.3801534 14.9953255,14.3479611 C14.9734146,13.6397302 14.9259411,11.9836146 13.3410556,11.4542299 C13.3301001,11.450653 13.3154929,11.4470761 13.3045375,11.4434991 C11.6575712,11.0321529 10.2881425,10.1021528 10.2735352,10.091422 C10.0507748,9.93761433 9.7440228,9.99126818 9.58699497,10.2094605 C9.42996714,10.4276529 9.48474429,10.7281144 9.7075047,10.8819221 C9.76958547,10.9248452 11.2230058,11.9156531 13.0416072,12.3734993 C13.8924789,12.6703839 13.9874259,13.5610379 14.0129886,14.3765764 C14.0129886,14.4087688 14.0129886,14.4373841 14.0166404,14.4659995 C14.0202922,14.7879227 13.9983814,15.285115 13.9399524,15.5712689 C13.3483592,15.9003459 11.0294599,17.0378076 7.5018115,17.0378076 C3.98877034,17.0378076 1.6552638,15.896769 1.06001878,15.567692 C1.00158982,15.2815381 0.976027149,14.7843457 0.983330769,14.4624226 C0.983330769,14.4338072 0.986982578,14.4051918 0.986982578,14.3729995 C1.01254525,13.557461 1.10749231,12.666807 1.95836402,12.3699223 C3.77696537,11.9120761 5.23038572,10.9176914 5.29246649,10.8783452 C5.51522689,10.7245375 5.57000404,10.4240759 5.41297622,10.2058836 C5.25594839,9.98769126 4.94919636,9.93403741 4.72643595,10.0878451 C4.71182871,10.0985759 3.3497036,11.028576 1.69543371,11.4399222 C1.68082647,11.4434991 1.66987104,11.4470761 1.65891561,11.450653 C0.0740300954,11.9836146 0.0265565663,13.6397302 0.00464570671,14.3443841 C0.00464570671,14.3765764 0.00464570671,14.4051918 0.000993896775,14.4338072 C0.000993896775,14.4373841 0.000993896775,14.4409611 0.000993896775,14.444538 C-0.00265791316,14.630538 -0.00630972309,15.5855766 0.187236203,16.0648844 C0.223754303,16.1578844 0.289486881,16.2365767 0.37713032,16.2902305 C0.486684618,16.361769 3.11233596,18 7.50546331,18 C11.8985907,18 14.524242,16.3581921 14.6337963,16.2902305 C14.7177879,16.2365767 14.7871723,16.1578844 14.8236904,16.0648844 C15.0062809,15.5891535 15.0026291,14.6341149 14.9989773,14.4481149 Z" id="Shape"></path>
                </g>
                <text id="Username" font-family="OpenSans-Semibold, Open Sans" font-size="16" font-weight="500" fill="#394E66" fill-opacity="0.807036911">
                    <tspan x="27" y="17">Username </tspan>
                </text>
                <text id="Password" font-family="OpenSans-Semibold, Open Sans" font-size="16" font-weight="500" fill="#394E66" fill-opacity="0.807036911">
                    <tspan x="27" y="85">Password </tspan>
                </text>
                <text id="Mobile" font-family="OpenSans-Semibold, Open Sans" font-size="16" font-weight="500" fill="#394E66" fill-opacity="0.807036911">
                    <tspan x="27" y="151">Mobile </tspan>
                </text>
                <g id="Group-4" transform="translate(1.000000, 69.000000)" fill-rule="nonzero" stroke="#5F7084" stroke-width="1.5">
                    <g id="25215">
                        <path d="M15.6111121,10.8827611 C15.3517725,10.6274753 15.0370722,10.5000479 14.6665246,10.5000479 L4.44433358,10.5000479 L4.44433358,6.12508779 C4.44433358,5.15877519 4.79162771,4.33401667 5.48611868,3.65038127 C6.1806583,2.96688953 7.01856195,2.62507183 8.00012151,2.62507183 C8.98158378,2.62507183 9.81963337,2.96684164 10.5138811,3.65038127 C11.2084207,4.33401667 11.5557149,5.15882307 11.5557149,6.12508779 C11.5557149,6.36198499 11.6436208,6.5670373 11.819384,6.74019684 C11.9955364,6.91340427 12.2039421,7.00003192 12.4443578,7.00003192 L13.3336818,7.00003192 C13.5742434,7.00003192 13.7825518,6.91340427 13.9587042,6.74019684 C14.1341269,6.5670373 14.2223734,6.36198499 14.2223734,6.12508779 C14.2223734,4.43869775 13.6135506,2.9965795 12.3960995,1.79791897 C11.1784539,0.599210548 9.71304681,0 8.00012151,0 C6.28705027,0 4.82178913,0.599210548 3.6040462,1.79787108 C2.38649787,2.99638795 1.7777237,4.43864986 1.7777237,6.12503991 L1.7777237,10.5 L1.33332926,10.5 C0.963073533,10.5 0.6481786,10.6277147 0.388887701,10.8827132 C0.129596802,11.1377117 0,11.4477803 0,11.8123923 L0,19.687512 C0,20.0522676 0.12964545,20.3621925 0.388887701,20.6173347 C0.6481786,20.8723331 0.963073533,21 1.33332926,21 L14.6665246,21 C15.0370722,21 15.3520644,20.8723331 15.6111121,20.6173347 C15.8701597,20.3621925 15.9999998,20.0522676 15.9999998,19.687512 L15.9999998,11.8124401 C16.0001944,11.4478282 15.8705003,11.1380948 15.6111121,10.8827611 Z" id="Shape"></path>
                    </g>
                </g>
                <path d="M15.5838974,130 L2.41538369,130 C1.08153118,130 0,130.955966 0,132.134959 L0,157.465041 C0,158.644352 1.08117175,159.6 2.41538369,159.6 L15.5838974,159.6 C16.9184688,159.6 18,158.644352 18,157.465041 L18,132.134959 C17.9996406,130.955966 16.9184688,130 15.5838974,130 Z M7.38381357,132.262231 L10.6154676,132.262231 C10.7315641,132.262231 10.8260948,132.345787 10.8260948,132.448722 C10.8260948,132.55134 10.7315641,132.634896 10.6154676,132.634896 L7.38381357,132.634896 C7.26735758,132.634896 7.17318637,132.55134 7.17318637,132.448722 C7.17318637,132.345787 7.26771701,132.262231 7.38381357,132.262231 Z" id="Shape" stroke="#5F7084" stroke-width="1.7" fill-rule="nonzero"></path>
            </g>
        </g>
    </g>
</svg>