<?xml version="1.0" encoding="UTF-8"?>
<svg width="375px" height="812px" viewBox="0 0 375 812" version="1.1" xmlns="http://www.w3.org/2000/svg" xmlns:xlink="http://www.w3.org/1999/xlink">
    <!-- Generator: Sketch 52.2 (67145) - http://www.bohemiancoding.com/sketch -->
    <title>Login</title>
    <desc>Created with Sketch.</desc>
    <defs>
        <linearGradient x1="50%" y1="100%" x2="50%" y2="3.061617e-15%" id="linearGradient-1">
            <stop stop-color="#FAD961" stop-opacity="0.705049819" offset="0%"></stop>
            <stop stop-color="#E33B07" offset="100%"></stop>
        </linearGradient>
        <path d="M0,273 L0,0 L375,0 C350.033943,25.3656295 328.033943,42.0322962 309,50 C283.386941,60.7217547 216,73 201,77 C143.373414,92.3670896 130.87922,93.7039275 103,114 C86.9077422,125.715164 64.4767187,153.89667 50,186 C39.3279124,209.666243 35.7461418,237.813217 28,251 C18.5738996,267.046691 9.24056624,274.380025 0,273 Z" id="path-2"></path>
        <filter x="-4.8%" y="-4.4%" width="109.6%" height="113.2%" filterUnits="objectBoundingBox" id="filter-3">
            <feOffset dx="0" dy="6" in="SourceAlpha" result="shadowOffsetOuter1"></feOffset>
            <feGaussianBlur stdDeviation="5" in="shadowOffsetOuter1" result="shadowBlurOuter1"></feGaussianBlur>
            <feColorMatrix values="0 0 0 0 1   0 0 0 0 0.355713775   0 0 0 0 0.0911458333  0 0 0 1 0" type="matrix" in="shadowBlurOuter1"></feColorMatrix>
        </filter>
        <linearGradient x1="50%" y1="0%" x2="50%" y2="100%" id="linearGradient-4">
            <stop stop-color="#4CEBFF" offset="0%"></stop>
            <stop stop-color="#0053FF" offset="100%"></stop>
        </linearGradient>
        <path d="M0,812 L0,539 L375,539 C350.033943,564.36563 328.033943,581.032296 309,589 C283.386941,599.721755 216,612 201,616 C143.373414,631.36709 130.87922,632.703927 103,653 C86.9077422,664.715164 64.4767187,692.89667 50,725 C39.3279124,748.666243 35.7461418,776.813217 28,790 C18.5738996,806.046691 9.24056624,813.380025 0,812 Z" id="path-5"></path>
        <filter x="-1.2%" y="-1.6%" width="104.8%" height="106.6%" filterUnits="objectBoundingBox" id="filter-6">
            <feOffset dx="5" dy="5" in="SourceAlpha" result="shadowOffsetOuter1"></feOffset>
            <feGaussianBlur stdDeviation="2" in="shadowOffsetOuter1" result="shadowBlurOuter1"></feGaussianBlur>
            <feColorMatrix values="0 0 0 0 0.663552351   0 0 0 0 0.997927296   0 0 0 0 0.923086341  0 0 0 1 0" type="matrix" in="shadowBlurOuter1"></feColorMatrix>
        </filter>
        <path d="M135.000006,0.0190891712 C150.000819,0.592672038 162,14.0199424 162,30.5 C162,46.9800576 150.000819,60.407328 135.000006,60.9809108 L135,61 L0,61 L0,0 L135,0 L135,0.019088939 Z" id="path-7"></path>
        <filter x="-17.9%" y="-45.9%" width="135.8%" height="195.1%" filterUnits="objectBoundingBox" id="filter-8">
            <feOffset dx="0" dy="1" in="SourceAlpha" result="shadowOffsetOuter1"></feOffset>
            <feGaussianBlur stdDeviation="9.5" in="shadowOffsetOuter1" result="shadowBlurOuter1"></feGaussianBlur>
            <feColorMatrix values="0 0 0 0 0.669722577   0 0 0 0 0.669722577   0 0 0 0 0.669722577  0 0 0 0.421478714 0" type="matrix" in="shadowBlurOuter1"></feColorMatrix>
        </filter>
        <path d="M232.000008,0.028022056 C269.735055,1.08669574 300,32.0089695 300,70 C300,107.99103 269.735055,138.913304 232.000008,139.971978 L232,140 L0,140 L0,0 L232,0 L232,0.0280218423 Z" id="path-9"></path>
        <filter x="-9.7%" y="-20.0%" width="119.3%" height="141.4%" filterUnits="objectBoundingBox" id="filter-10">
            <feOffset dx="0" dy="1" in="SourceAlpha" result="shadowOffsetOuter1"></feOffset>
            <feGaussianBlur stdDeviation="9.5" in="shadowOffsetOuter1" result="shadowBlurOuter1"></feGaussianBlur>
            <feColorMatrix values="0 0 0 0 0.669722577   0 0 0 0 0.669722577   0 0 0 0 0.669722577  0 0 0 0.421478714 0" type="matrix" in="shadowBlurOuter1"></feColorMatrix>
        </filter>
        <linearGradient x1="100%" y1="50%" x2="0%" y2="50%" id="linearGradient-11">
            <stop stop-color="#FFFFFF" offset="0%"></stop>
            <stop stop-color="#979797" offset="100%"></stop>
        </linearGradient>
        <linearGradient x1="-1.11022302e-14%" y1="50%" x2="100%" y2="50%" id="linearGradient-12">
            <stop stop-color="#12C4BD" offset="0%"></stop>
            <stop stop-color="#25E3A6" offset="100%"></stop>
        </linearGradient>
    </defs>
    <g id="Login" stroke="none" stroke-width="1" fill="none" fill-rule="evenodd">
        <rect fill="#FFFFFF" x="0" y="0" width="375" height="812"></rect>
        <g id="Group-7" fill-rule="nonzero">
            <rect id="Rectangle-6" fill="#FFFFFF" x="0" y="0" width="375" height="812"></rect>
            <g id="Path-5">
                <use fill="black" fill-opacity="1" filter="url(#filter-3)" xlink:href="#path-2"></use>
                <use fill="url(#linearGradient-1)" xlink:href="#path-2"></use>
            </g>
            <g id="Path-5-Copy" transform="translate(187.500000, 675.581963) scale(-1, -1) translate(-187.500000, -675.581963) ">
                <use fill="black" fill-opacity="1" filter="url(#filter-6)" xlink:href="#path-5"></use>
                <use fill="url(#linearGradient-4)" xlink:href="#path-5"></use>
            </g>
        </g>
        <text font-family="ChalkboardSE-Bold, Chalkboard SE" font-size="48" font-weight="bold" line-spacing="26" fill="#394E66" fill-opacity="0.807036911">
            <tspan x="129" y="301">Login</tspan>
        </text>
        <g id="Group-6" transform="translate(0.000000, 568.000000)">
            <g id="Combined-Shape-Copy" fill-rule="nonzero">
                <use fill="black" fill-opacity="1" filter="url(#filter-8)" xlink:href="#path-7"></use>
                <use fill="#FFFFFF" xlink:href="#path-7"></use>
            </g>
            <text id="Register" font-family="OpenSans-Bold, Open Sans" font-size="20" font-weight="bold" fill="#E54710">
                <tspan x="40.5283203" y="36">Register</tspan>
            </text>
        </g>
        <g id="Group-5" transform="translate(0.000000, 346.000000)">
            <g id="Combined-Shape" fill-rule="nonzero">
                <use fill="black" fill-opacity="1" filter="url(#filter-10)" xlink:href="#path-9"></use>
                <use fill="#FFFFFF" xlink:href="#path-9"></use>
            </g>
            <path d="M1.5,70.5 L299.5,70.5" id="Line-2" stroke="url(#linearGradient-11)" stroke-width="1.5" opacity="0.400000006" stroke-linecap="square" fill-rule="nonzero"></path>
            <g id="Group-2" transform="translate(17.000000, 25.000000)">
                <g id="126486" transform="translate(0.000000, 1.000000)" fill="#5F7084" fill-rule="nonzero" stroke="#5E7085" stroke-width="0.5">
                    <path d="M7.9367018,10 C7.95588307,10 7.97506435,10 7.99808187,10 C8.00575438,10 8.01342689,10 8.0210994,10 C8.03260816,10 8.04795318,10 8.05946194,10 C9.18348448,9.98078401 10.0926768,9.58493467 10.7640213,8.82782475 C12.2409792,7.15987702 11.9954589,4.30053805 11.9686052,4.02767102 C11.8726988,1.97924673 10.9059627,0.99923136 10.1080218,0.541890853 C9.51340236,0.199846272 8.81904031,0.0153727902 8.04411693,0 L8.01726314,0 C8.01342689,0 8.00575438,0 8.00191813,0 L7.9789006,0 C7.55307636,0 6.71677291,0.0691775557 5.91499574,0.526518063 C5.10938232,0.98385857 4.12730119,1.96387394 4.03139483,4.02767102 C4.00454105,4.30053805 3.75902077,7.15987702 5.23597871,8.82782475 C5.90348698,9.58493467 6.81267927,9.98078401 7.9367018,10 Z M5.05567475,4.12375096 C5.05567475,4.11222137 5.05951101,4.10069178 5.05951101,4.09300538 C5.1861074,1.33743274 7.13876089,1.04150653 7.97506435,1.04150653 L7.99040936,1.04150653 C7.99808187,1.04150653 8.00959064,1.04150653 8.0210994,1.04150653 C9.05688808,1.06456572 10.8177289,1.48731745 10.9366527,4.09300538 C10.9366527,4.10453497 10.9366527,4.11606457 10.940489,4.12375096 C10.9443252,4.15065334 11.2128631,6.76402767 9.99293416,8.13989239 C9.5095661,8.68562644 8.86507537,8.95465027 8.01726314,8.96233666 C8.00959064,8.96233666 8.00575438,8.96233666 7.99808187,8.96233666 C7.99040936,8.96233666 7.98657311,8.96233666 7.9789006,8.96233666 C7.13492463,8.95465027 6.48659764,8.68562644 6.00706584,8.13989239 C4.7909732,6.77171407 5.0518385,4.14681015 5.05567475,4.12375096 Z" id="Shape"></path>
                    <path d="M14.9989773,14.4481149 C14.9989773,14.444538 14.9989773,14.4409611 14.9989773,14.4373841 C14.9989773,14.4087688 14.9953255,14.3801534 14.9953255,14.3479611 C14.9734146,13.6397302 14.9259411,11.9836146 13.3410556,11.4542299 C13.3301001,11.450653 13.3154929,11.4470761 13.3045375,11.4434991 C11.6575712,11.0321529 10.2881425,10.1021528 10.2735352,10.091422 C10.0507748,9.93761433 9.7440228,9.99126818 9.58699497,10.2094605 C9.42996714,10.4276529 9.48474429,10.7281144 9.7075047,10.8819221 C9.76958547,10.9248452 11.2230058,11.9156531 13.0416072,12.3734993 C13.8924789,12.6703839 13.9874259,13.5610379 14.0129886,14.3765764 C14.0129886,14.4087688 14.0129886,14.4373841 14.0166404,14.4659995 C14.0202922,14.7879227 13.9983814,15.285115 13.9399524,15.5712689 C13.3483592,15.9003459 11.0294599,17.0378076 7.5018115,17.0378076 C3.98877034,17.0378076 1.6552638,15.896769 1.06001878,15.567692 C1.00158982,15.2815381 0.976027149,14.7843457 0.983330769,14.4624226 C0.983330769,14.4338072 0.986982578,14.4051918 0.986982578,14.3729995 C1.01254525,13.557461 1.10749231,12.666807 1.95836402,12.3699223 C3.77696537,11.9120761 5.23038572,10.9176914 5.29246649,10.8783452 C5.51522689,10.7245375 5.57000404,10.4240759 5.41297622,10.2058836 C5.25594839,9.98769126 4.94919636,9.93403741 4.72643595,10.0878451 C4.71182871,10.0985759 3.3497036,11.028576 1.69543371,11.4399222 C1.68082647,11.4434991 1.66987104,11.4470761 1.65891561,11.450653 C0.0740300954,11.9836146 0.0265565663,13.6397302 0.00464570671,14.3443841 C0.00464570671,14.3765764 0.00464570671,14.4051918 0.000993896775,14.4338072 C0.000993896775,14.4373841 0.000993896775,14.4409611 0.000993896775,14.444538 C-0.00265791316,14.630538 -0.00630972309,15.5855766 0.187236203,16.0648844 C0.223754303,16.1578844 0.289486881,16.2365767 0.37713032,16.2902305 C0.486684618,16.361769 3.11233596,18 7.50546331,18 C11.8985907,18 14.524242,16.3581921 14.6337963,16.2902305 C14.7177879,16.2365767 14.7871723,16.1578844 14.8236904,16.0648844 C15.0062809,15.5891535 15.0026291,14.6341149 14.9989773,14.4481149 Z" id="Shape"></path>
                </g>
                <text id="Username-or-Mobile" font-family="OpenSans-Semibold, Open Sans" font-size="16" font-weight="500" fill="#394E66" fill-opacity="0.807036911">
                    <tspan x="23" y="17">Username or Mobile </tspan>
                </text>
            </g>
            <g id="Group-4" transform="translate(16.000000, 89.000000)" fill-rule="nonzero">
                <g id="25215" stroke="#5F7084" stroke-width="1.5">
                    <path d="M15.6111121,10.8827611 C15.3517725,10.6274753 15.0370722,10.5000479 14.6665246,10.5000479 L4.44433358,10.5000479 L4.44433358,6.12508779 C4.44433358,5.15877519 4.79162771,4.33401667 5.48611868,3.65038127 C6.1806583,2.96688953 7.01856195,2.62507183 8.00012151,2.62507183 C8.98158378,2.62507183 9.81963337,2.96684164 10.5138811,3.65038127 C11.2084207,4.33401667 11.5557149,5.15882307 11.5557149,6.12508779 C11.5557149,6.36198499 11.6436208,6.5670373 11.819384,6.74019684 C11.9955364,6.91340427 12.2039421,7.00003192 12.4443578,7.00003192 L13.3336818,7.00003192 C13.5742434,7.00003192 13.7825518,6.91340427 13.9587042,6.74019684 C14.1341269,6.5670373 14.2223734,6.36198499 14.2223734,6.12508779 C14.2223734,4.43869775 13.6135506,2.9965795 12.3960995,1.79791897 C11.1784539,0.599210548 9.71304681,0 8.00012151,0 C6.28705027,0 4.82178913,0.599210548 3.6040462,1.79787108 C2.38649787,2.99638795 1.7777237,4.43864986 1.7777237,6.12503991 L1.7777237,10.5 L1.33332926,10.5 C0.963073533,10.5 0.6481786,10.6277147 0.388887701,10.8827132 C0.129596802,11.1377117 0,11.4477803 0,11.8123923 L0,19.687512 C0,20.0522676 0.12964545,20.3621925 0.388887701,20.6173347 C0.6481786,20.8723331 0.963073533,21 1.33332926,21 L14.6665246,21 C15.0370722,21 15.3520644,20.8723331 15.6111121,20.6173347 C15.8701597,20.3621925 15.9999998,20.0522676 15.9999998,19.687512 L15.9999998,11.8124401 C16.0001944,11.4478282 15.8705003,11.1380948 15.6111121,10.8827611 Z" id="Shape"></path>
                </g>
                <g id="Group-3" transform="translate(24.000000, 11.000000)" fill="#5F7084">
                    <circle id="Oval-3" cx="4" cy="4" r="4"></circle>
                    <circle id="Oval-3-Copy" cx="16" cy="4" r="4"></circle>
                    <circle id="Oval-3-Copy-2" cx="28" cy="4" r="4"></circle>
                    <circle id="Oval-3-Copy-3" cx="40" cy="4" r="4"></circle>
                    <circle id="Oval-3-Copy-4" cx="52" cy="4" r="4"></circle>
                    <circle id="Oval-3-Copy-5" cx="64" cy="4" r="4"></circle>
                    <circle id="Oval-3-Copy-6" cx="76" cy="4" r="4"></circle>
                    <circle id="Oval-3-Copy-7" cx="88" cy="4" r="4"></circle>
                    <circle id="Oval-3-Copy-8" cx="100" cy="4" r="4"></circle>
                </g>
            </g>
            <g id="Group" transform="translate(262.000000, 38.000000)" fill-rule="nonzero">
                <circle id="Oval-4" fill="url(#linearGradient-12)" cx="31" cy="31" r="31"></circle>
                <g id="109617" transform="translate(15.000000, 20.000000)" fill="#FFFFFF">
                    <path d="M21.205,1.007 C20.776,0.563 20.062,0.563 19.618,1.007 C19.189,1.436 19.189,2.15 19.618,2.578 L27.665,10.625 L1.111,10.625 C0.492,10.626 0,11.118 0,11.737 C0,12.356 0.492,12.864 1.111,12.864 L27.665,12.864 L19.618,20.896 C19.189,21.34 19.189,22.055 19.618,22.483 C20.062,22.927 20.777,22.927 21.205,22.483 L31.157,12.531 C31.601,12.102 31.601,11.388 31.157,10.96 L21.205,1.007 Z" id="Shape"></path>
                </g>
            </g>
        </g>
        <text id="Forgot-?" opacity="0.600000024" font-family="OpenSans-Bold, Open Sans" font-size="16" font-weight="bold" fill="#394E66" fill-opacity="0.807036911">
            <tspan x="260" y="534">Forgot ?</tspan>
        </text>
        <g id="149283" transform="translate(318.000000, 754.000000)" fill="#FFFFFF" fill-rule="nonzero">
            <path d="M18.5246282,17.0244502 C18.1397341,17.1224519 17.9175123,17.4750035 18.0286232,17.8129186 C18.048231,17.8721014 19.9872255,23.9163893 19.4534574,37.3413521 C19.4389331,37.6932673 19.752658,37.9879089 20.1535288,37.9993636 C20.1622434,38 20.170958,38 20.1796726,38 C20.5689239,38 20.8906372,37.7295407 20.9044353,37.3858983 C21.4469181,23.7585683 19.5064711,17.7098258 19.4244088,17.4590942 C19.3132978,17.1211792 18.9117009,16.928994 18.5246282,17.0244502 Z" id="Shape"></path>
            <path d="M34.9904289,10.4869542 C32.1928842,4.11676111 25.747172,0 18.5683922,0 C16.1994609,0 13.8893071,0.446104427 11.7026521,1.32558562 C10.4914394,1.81241856 9.34692927,2.39152702 8.30082189,3.04636504 C7.99504681,3.23855268 7.9078712,3.63247371 8.10665802,3.927119 C8.30610526,4.2217643 8.71556648,4.30576684 9.02068113,4.11421558 C10.000086,3.50074245 11.0732706,2.95790782 12.2111766,2.5003485 C14.2366888,1.68514197 16.375133,1.27276584 18.5683922,1.27276584 C25.2148725,1.27276584 31.1837604,5.08406315 33.7732724,10.9833328 C34.8497592,13.4359526 35.4315904,17.9517258 35.6825505,20.4259826 C35.7162319,20.7549926 36.0028548,21 36.3390093,21 C36.3601427,21 36.3819366,20.9987272 36.404391,20.9968181 C36.7669623,20.9624534 37.0324516,20.6512622 36.9967889,20.3012516 C36.6817679,17.1918846 36.0781428,12.9643929 34.9904289,10.4869542 Z" id="Shape"></path>
            <path d="M5.81028085,6.08916708 C6.06120575,5.8428908 6.06311635,5.43943043 5.8166495,5.18933591 C5.57018266,4.93924139 5.16704696,4.9366959 4.91612206,5.18297218 C1.49106084,8.5544754 -1.92062621,14.8246568 1.27516353,25.5449934 C1.35731914,25.8218156 1.61015464,26 1.88528042,26 C1.94514575,26 2.00628481,25.9910908 2.06678701,25.9732723 C2.40368872,25.8733618 2.59602202,25.5189021 2.49539731,25.1822609 C0.109063285,17.175418 1.25478384,10.5736864 5.81028085,6.08916708 Z" id="Shape"></path>
            <path d="M19.0870013,4.01023699 C17.1074271,3.9335479 15.1809003,4.2886377 13.3598215,5.04521741 C7.01612729,7.68164637 3.64308817,14.6307086 5.51462676,21.2105032 C5.70158654,21.8684826 5.89307476,22.5683511 5.99593499,23.2656418 C6.22753222,24.8438903 6.2398237,27.7484088 6.2398237,32.3555539 C6.2398237,32.7119326 6.52899679,33 6.88674336,33 C7.24448993,33 7.53366302,32.7119326 7.53366302,32.3555539 C7.53366302,27.549275 7.52137155,24.7485122 7.276189,23.078108 C7.16233114,22.3034838 6.95855144,21.5572152 6.75930019,20.8586356 C5.06631143,14.9065315 8.11783148,8.61931544 13.8579496,6.23422045 C15.5063009,5.54917425 17.2601001,5.23790679 19.04107,5.29719583 C23.6413157,5.46217403 28.8554882,9.50156214 30.4281499,14.1190184 C31.7892688,18.1139397 31.8009134,24.9199349 31.6320674,31.0492617 C31.6223636,31.4049959 31.9044205,31.7014411 32.2615202,31.7111078 C32.6121506,31.7046634 32.9162029,31.4410849 32.9259067,31.0840618 C33.0973404,24.8400236 33.0798736,17.8916058 31.6534157,13.7039951 C29.895735,8.54391525 24.258477,4.19454857 19.0870013,4.01023699 Z" id="Shape"></path>
            <path d="M18.5664268,8 C17.8694689,8 17.1757169,8.07521608 16.5031237,8.22436248 C16.1575301,8.30086431 15.9388892,8.64351532 16.0151891,8.99066644 C16.091489,9.33717469 16.4293885,9.55189409 16.7794704,9.47989238 C17.3610167,9.35131789 17.9624394,9.2857449 18.5657856,9.2857449 C21.9210576,9.2857449 24.9345829,11.2876497 26.24194,14.3869378 C27.7999967,18.0770256 27.9019436,23.9998095 27.5422441,34.334627 C27.5294206,34.6894926 27.8064085,34.9877854 28.1603374,34.9993571 C28.1680315,35 28.1757256,35 28.1834197,35 C28.5270898,35 28.8111306,34.7267792 28.823313,34.3796281 C29.1977595,23.6288721 29.0836303,17.8205195 27.4223443,13.8854973 C25.9149404,10.3104836 22.4384863,8 18.5664268,8 Z" id="Shape"></path>
            <path d="M13.7258509,10.1649426 C14.0168144,9.96196149 14.0876241,9.56240241 13.8829197,9.27297821 C13.6795027,8.98355401 13.2771749,8.91247859 12.9862114,9.11674037 C9.67103006,11.432134 8.23037455,15.8804303 9.40388438,20.1910581 C9.41740259,20.2378013 10.7241634,24.9691187 10.7241634,32.359681 C10.7241634,32.7137774 11.0119083,33 11.3678879,33 C11.7238676,33 12.0116125,32.7137774 12.0116125,32.359681 C12.0116125,24.7955922 10.6997019,20.0450653 10.6449853,19.8510486 C9.6143823,16.0642019 10.8529083,12.1717025 13.7258509,10.1649426 Z" id="Shape"></path>
            <path d="M24.9503949,30.6042 C24.952295,30.2724 24.7413751,30.0024 24.4786753,30 C24.4777252,30 24.4763001,30 24.47535,30 C24.2145503,30 24.0022053,30.2658 24.0003051,30.5958 C23.9979299,31.047 24.009806,31.7058 24.0226322,32.4174 C24.0411589,33.4524 24.0620609,34.6254 24.041634,35.3796 C24.0321331,35.7108 24.2373525,35.9886 24.5000523,35.9994 C24.5057528,36 24.5109783,36 24.5166789,36 C24.7713029,36 24.9817478,35.745 24.9907737,35.4204 C25.0126257,34.6326 24.9912487,33.441 24.9722469,32.3898 C24.9594207,31.6926 24.9480196,31.0464 24.9503949,30.6042 Z" id="Shape"></path>
            <path d="M18.2823363,12 C17.5750905,12 16.8851596,12.1313719 16.2305244,12.3903261 C13.6386218,13.4160373 12.3792981,16.1893734 13.3003159,18.8414432 C13.8024471,20.2871655 14.2266613,27.8555751 14.2266613,35.3684044 C14.2266613,35.7176768 14.5243439,36 14.8926178,36 C15.2608918,36 15.5585743,35.7176768 15.5585743,35.3684044 C15.5585743,28.6059107 15.1789791,20.2132688 14.5662991,18.446696 C13.864381,16.4274849 14.8013818,14.3249033 16.7439768,13.5562515 C17.2347868,13.36172 17.7522349,13.2631911 18.2823363,13.2631911 C19.8906212,13.2631911 21.3350808,14.1714256 21.9644097,15.5811469 C23.2077504,18.3721677 23.5773562,23.4249322 23.6679263,27.1728203 C23.6765838,27.5164083 23.9729344,27.7898892 24.3338828,27.7898892 C24.3385445,27.7898892 24.3445381,27.7898892 24.3491998,27.7898892 C24.7168078,27.7816785 25.0078308,27.4924077 24.9998393,27.1437669 C24.9059394,23.2872444 24.5163549,18.0645806 23.1884377,15.0847128 C22.3533282,13.2107687 20.4273821,12 18.2823363,12 Z" id="Shape"></path>
        </g>
    </g>
</svg>