<svg enable-background="new 0 0 512 512" viewBox="0 0 512 512" xmlns="http://www.w3.org/2000/svg"><path d="m299.749 11.742-77.882 90.955v17.067c61.454 0 112.558-44.293 123.142-102.695-14.672-3.334-29.842-5.087-45.26-5.327z" fill="#4a8dc6"/><path d="m299.448 14.026.302-2.285c-58.797-.918-121.255 20.48-173.916 63.118 22.958 27.444 57.454 44.904 96.034 44.904v-17.067c38.16.001 70.788-37.291 77.58-88.67z" fill="#77aad4"/><path d="m494.891 206.69c10.756-14.947 17.109-33.271 17.109-53.09 0-45.912-33.997-83.863-78.186-90.104-20.976-19.553-45.61-33.467-72.293-41.925.093-.486.192-.971.281-1.459 1.68-9.274-4.476-18.156-13.75-19.837-9.272-1.677-18.156 4.476-19.837 13.75-2.119 11.688-6.086 22.637-11.543 32.594l-109.308 442.763c16.024 14.07 37.015 22.618 60.014 22.618 40.447 0 74.712-26.39 86.568-62.884 13.499-8.248 26.567-17.77 39.047-28.49 11.856 1.562 24.279-2.203 33.388-11.312 9.696-9.696 13.345-23.149 10.95-35.674 38.949-51.165 58.476-110.735 57.56-166.95z" fill="#a5c6e3"/><path d="m460.07 227.363c4.504-53.408-11.71-101.517-45.658-135.465-25.428-25.427-59.593-41.136-97.74-45.279-18.528 33.811-54.395 56.078-94.805 56.078-32.091 0-62.322-14.138-82.944-38.788-6.047-7.231-16.813-8.187-24.04-2.139-7.229 6.047-8.187 16.811-2.139 24.04.046.055.092.107.138.16-3.736 3.385-7.419 6.872-11.033 10.486-13.468 13.468-25.347 27.833-35.648 42.808-38.893 16.365-66.201 54.827-66.201 99.669 0 21.55 6.309 41.624 17.177 58.484 1.476 51.202 19.973 99.436 56.274 135.739 35.871 35.871 83.389 54.369 133.913 56.227 64.839-20.438 126.908-57.311 178.653-109.056 43.068-43.068 69.366-97.391 74.053-152.964z" fill="#d2e3f1"/><path d="m267.378 364.089v113.778c31.419 0 56.889-25.47 56.889-56.889s-25.471-56.889-56.889-56.889z" fill="#4a8dc6"/><path d="m290.133 420.978c0-31.419-10.188-56.889-22.756-56.889-31.419 0-56.889 25.47-56.889 56.889s25.47 56.889 56.889 56.889c12.569 0 22.756-25.47 22.756-56.889z" fill="#77aad4"/><path d="m420.978 96.711v113.778c31.419 0 56.889-25.47 56.889-56.889s-25.471-56.889-56.889-56.889z" fill="#4a8dc6"/><path d="m443.733 153.6c0-31.419-10.188-56.889-22.756-56.889-31.419 0-56.889 25.47-56.889 56.889s25.47 56.889 56.889 56.889c12.569 0 22.756-25.47 22.756-56.889z" fill="#77aad4"/><g fill="#a5c6e3"><circle cx="256" cy="256" r="8.533"/><circle cx="290.133" cy="221.867" r="8.533"/><circle cx="381.156" cy="329.956" r="8.533"/><circle cx="142.222" cy="432.356" r="8.533"/></g><path d="m108.089 164.978v147.911c40.844 0 73.956-33.112 73.956-73.956s-33.112-73.955-73.956-73.955z" fill="#4a8dc6"/><path d="m147.911 238.933c0-40.844-17.829-73.956-39.822-73.956-40.844 0-73.956 33.112-73.956 73.956s33.112 73.956 73.956 73.956c21.993 0 39.822-33.112 39.822-73.956z" fill="#77aad4"/></svg>