<svg enable-background="new 0 0 60 60" viewBox="0 0 60 60" xmlns="http://www.w3.org/2000/svg"><g stroke-linecap="round" stroke-miterlimit="10" stroke-width="2"><g fill="#7fabda" stroke="#7383bf"><path d="m50.003 21.5c-.115-8.699-7.193-16-15.919-16-5.559 0-10.779 3.005-13.661 7.336-1.266-.843-2.787-1.336-4.423-1.336-4.418 0-8 3.582-8 8 0 .153.014.302.023.454-.01.182-.023.366-.023.546-3.988 1.912-7 6.457-7 11.155 0 6.515 5.33 11.845 11.845 11.845h24.507c.138 0 .272-.016.408-.021.137.005.271.021.408.021h9.803c6.066 0 11.029-4.963 11.029-11.028 0-5.371-3.894-10.011-8.997-10.972z"/><path d="m50.003 21.5s-2.535-.375-5.003 0"/><path d="m8 19.5c0-4.418 3.582-8 8-8s8 3.582 8 8"/></g><path d="m31 31.5v23" fill="none" stroke="#424a60"/><path d="m31 54.5-8-8" fill="none" stroke="#424a60"/><path d="m39 46.5-8 8" fill="none" stroke="#424a60"/></g></svg>