<svg enable-background="new 0 0 512 512" viewBox="0 0 512 512" xmlns="http://www.w3.org/2000/svg"><path d="m388.896 233.617c0-37.088-30.06-67.148-67.148-67.148-2.227 0-4.421.112-6.592.325-23.166-40.322-66.666-67.472-116.512-67.472-5.887 0-11.684.38-17.358 1.108l172.916 278.674h34.693c18.544 0 33.35-15.03 33.35-33.574z" fill="#b440a1"/><path d="m456.044 233.617h-34.693l.895 111.913h33.798c30.899 0 55.956-25.057 55.956-55.956s-25.057-55.957-55.956-55.957z" fill="#b440a1"/><path d="m422.246 345.53c-.369.022.369 0 0 0z" fill="#fa9647"/><path d="m477.307 289.574c0-30.899-25.057-55.956-55.956-55.956h-32.455-34.693c0-37.088-30.06-67.148-67.148-67.148-2.227 0-4.421.112-6.592.325-20.435-35.566-56.695-60.892-99.177-66.364-65.971 8.516-116.936 64.909-116.936 133.186-30.899 0-55.956 25.057-55.956 55.956s25.057 55.957 55.956 55.957h100.721c0 18.544 15.03 33.574 33.574 33.574h155.558c18.544 0 33.574-15.03 33.574-33.574h34.469c30.384-.582 55.061-25.426 55.061-55.956z" fill="#fe4382"/><circle cx="221.027" cy="155.279" fill="#fcd999" r="8.393"/><circle cx="422.47" cy="300.765" fill="#feeccc" r="8.393"/><circle cx="137.093" cy="295.169" fill="#fbc566" r="8.393"/><circle cx="137.093" cy="228.022" fill="#feeccc" r="8.393"/><circle cx="103.519" cy="261.596" fill="#fff" r="8.393"/><circle cx="388.896" cy="423.869" fill="#f9b233" r="8.393"/><circle cx="355.322" cy="457.443" fill="#fbc566" r="8.393"/><g fill="#f9b233"><circle cx="198.645" cy="54.557" r="8.393"/><circle cx="8.393" cy="499.41" r="8.393"/><circle cx="411.279" cy="106.037" r="8.393"/></g><circle cx="377.705" cy="72.463" fill="#fbc566" r="8.393"/><circle cx="461.639" cy="12.59" fill="#f9b233" r="8.393"/><path d="m58.754 379.104 14.244 36.116 36.117 14.245-36.117 14.244-14.244 36.116-14.244-36.116-36.117-14.244 36.117-14.245z" fill="#feeccc"/><path d="m316.153 328.743 14.244 36.117 36.117 14.244-36.117 14.244-14.244 36.117-14.244-36.117-36.117-14.244 36.117-14.244z" fill="#fcd999"/><path d="m198.645 211.235 14.244 36.116 36.116 14.245-36.116 14.244-14.244 36.116-14.244-36.116-36.117-14.244 36.117-14.245z" fill="#fcd999"/><path d="m461.639 100.442 14.245 36.116 36.116 14.244-36.116 14.244-14.245 36.117-14.244-36.117-36.116-14.244 36.116-14.244z" fill="#feeccc"/></svg>