<svg enable-background="new 0 0 512.001 512.001" viewBox="0 0 512.001 512.001" xmlns="http://www.w3.org/2000/svg"><path d="m505.328 498.2-487.223-487.223c-2.311-2.311-5.791-3.003-8.81-1.752-3.021 1.25-4.991 4.2-4.991 7.469v487.223c0 4.466 3.62 8.084 8.084 8.084h487.223c3.27 0 6.217-1.969 7.469-4.991 1.252-3.021.56-6.498-1.752-8.81zm-420.179-67.044v-238.852l239.676 238.852z" fill="#9baaab"/><path d="m261.718 254.588-56.936 56.936 120.044 119.632h-239.677l-78.476 78.477c1.463 1.463 3.484 2.368 5.716 2.368h487.223c3.27 0 6.217-1.969 7.469-4.991s.559-6.498-1.753-8.811z" fill="#687f82"/><g fill="#365558"><path d="m77.066 461.338c-4.465 0-8.084 3.619-8.084 8.084v42.578h16.168v-42.578c0-4.464-3.619-8.084-8.084-8.084z"/><path d="m141.741 461.338c-4.465 0-8.084 3.619-8.084 8.084v42.578h16.169v-42.578c0-4.464-3.62-8.084-8.085-8.084z"/><path d="m206.417 461.338c-4.465 0-8.084 3.619-8.084 8.084v42.578h16.169v-42.578c0-4.464-3.62-8.084-8.085-8.084z"/><path d="m271.093 461.338c-4.465 0-8.084 3.619-8.084 8.084v42.578h16.169v-42.578c-.001-4.464-3.621-8.084-8.085-8.084z"/><path d="m335.768 461.338c-4.465 0-8.084 3.619-8.084 8.084v42.578h16.169v-42.578c0-4.464-3.62-8.084-8.085-8.084z"/><path d="m400.444 461.338c-4.465 0-8.084 3.619-8.084 8.084v42.578h16.169v-42.578c-.001-4.464-3.62-8.084-8.085-8.084z"/></g><path d="m176.234 231.74c-2.069 0-4.138-.789-5.716-2.367l-120.728-120.728c-3.157-3.158-3.157-8.276 0-11.434 3.157-3.156 8.276-3.156 11.432 0l120.728 120.728c3.157 3.158 3.157 8.276 0 11.434-1.578 1.577-3.646 2.367-5.716 2.367z" fill="#fff"/><path d="m219.351 279.168c-2.069 0-4.138-.789-5.716-2.367l-21.559-21.559c-3.157-3.158-3.157-8.276 0-11.434 3.157-3.156 8.276-3.156 11.432 0l21.559 21.559c3.157 3.158 3.157 8.276 0 11.434-1.578 1.578-3.646 2.367-5.716 2.367z" fill="#fff"/><path d="m444.352 214.61-186.603-186.603c-1.516-1.516-3.572-2.367-5.716-2.367s-4.201.852-5.716 2.367l-85.367 85.367c-1.517 1.517-2.368 3.572-2.368 5.717 0 2.144.852 4.2 2.368 5.717l186.603 186.602c1.578 1.578 3.648 2.367 5.716 2.367s4.138-.789 5.716-2.367l85.367-85.366c1.517-1.517 2.368-3.572 2.368-5.717s-.851-4.2-2.368-5.717z" fill="#fd6a33"/><path d="m203.997 70.326-43.048 43.048c-1.517 1.517-2.368 3.572-2.368 5.717 0 2.144.852 4.2 2.368 5.717l186.603 186.602c1.578 1.578 3.648 2.367 5.716 2.367 2.069 0 4.138-.789 5.716-2.367l43.048-43.048z" fill="#f0353d"/><path d="m416.912 242.049-186.603-186.602c-3.157-3.156-8.276-3.156-11.432 0l-30.488 30.488c-1.517 1.517-2.368 3.572-2.368 5.717 0 2.144.852 4.2 2.368 5.717l186.603 186.602c1.578 1.578 3.648 2.367 5.716 2.367 2.069 0 4.138-.789 5.716-2.367l30.488-30.488c1.517-1.517 2.368-3.572 2.368-5.717.001-2.145-.851-4.201-2.368-5.717z" fill="#4acfd9"/><path d="m203.997 70.326-15.608 15.608c-1.517 1.517-2.368 3.572-2.368 5.717 0 2.144.852 4.2 2.368 5.717l186.603 186.602c1.578 1.578 3.648 2.367 5.716 2.367 2.069 0 4.138-.789 5.716-2.367l15.608-15.608z" fill="#0295aa"/><path d="m139.607 6.665c-1.911 1.911-2.741 4.651-2.211 7.302l21.342 106.709 94.88-94.88-106.709-21.342c-2.651-.531-5.391.299-7.302 2.211z" fill="#ffd1a9"/><path d="m139.994 6.324c-.129.113-.264.219-.387.342-1.911 1.911-2.741 4.651-2.211 7.302l21.342 106.709 47.805-47.805z" fill="#ffd1a9"/><path d="m139.607 6.665c-1.911 1.911-2.741 4.651-2.211 7.302l9.146 45.733 46.099-46.1-45.732-9.146c-2.651-.531-5.391.299-7.302 2.211z" fill="#687f82"/><path d="m139.994 6.324c-.129.113-.264.219-.387.342-1.911 1.911-2.741 4.651-2.211 7.302l9.146 45.733 23.414-23.415z" fill="#365558"/><path d="m444.352 214.61-96.801 96.801 60.977 60.976c1.578 1.578 3.648 2.367 5.716 2.367s4.138-.789 5.716-2.367l85.367-85.366c1.517-1.517 2.368-3.573 2.368-5.717s-.852-4.2-2.368-5.717z" fill="#cdd4d5"/><path d="m396.316 262.646-48.765 48.765 60.977 60.976c1.578 1.578 3.648 2.367 5.716 2.367s4.138-.789 5.716-2.367l43.048-43.048z" fill="#9baaab"/><path d="m456.495 292.103c-2.069 0-4.138-.789-5.716-2.367l-21.559-21.559c-3.157-3.158-3.157-8.276 0-11.434 3.157-3.156 8.276-3.156 11.432 0l21.559 21.559c3.157 3.158 3.157 8.276 0 11.434-1.578 1.578-3.646 2.367-5.716 2.367z" fill="#fff"/><path d="m505.328 100.133-91.465-91.466c-11.558-11.556-30.363-11.555-41.922 0l-27.44 27.44c-11.558 11.559-11.558 30.364 0 41.923l91.464 91.466c1.516 1.516 3.572 2.367 5.716 2.367s4.201-.852 5.716-2.367l57.928-57.928c3.162-3.159 3.162-8.277.003-11.435z" fill="#4acfd9"/><path d="m441.684 171.863c2.144 0 4.201-.852 5.716-2.367l57.928-57.928c3.157-3.158 3.157-8.276 0-11.434l-60.976-60.976-69.361 69.361 60.976 60.977c1.517 1.515 3.573 2.367 5.717 2.367z" fill="#ffd1a9"/><path d="m358.465 22.144-13.962 13.962c-11.558 11.559-11.558 30.364 0 41.923l91.464 91.466c1.516 1.516 3.572 2.367 5.716 2.367s4.201-.852 5.716-2.367l29.208-29.208z" fill="#0295aa"/><path d="m409.914 73.594-34.924 34.924 60.976 60.977c1.516 1.516 3.572 2.367 5.716 2.367s4.201-.852 5.716-2.367l29.208-29.208z" fill="#ff8c29"/><path d="m463.026 113.934c-2.069 0-4.138-.789-5.716-2.367l-24.39-24.391c-3.157-3.158-3.157-8.276 0-11.434 3.157-3.156 8.276-3.156 11.432 0l24.39 24.391c3.157 3.158 3.157 8.276 0 11.434-1.578 1.578-3.647 2.367-5.716 2.367z" fill="#fff"/></svg>