<svg height="489" viewBox="0 0 1361 489" width="1361" xmlns="http://www.w3.org/2000/svg"><g fill="none" fill-rule="evenodd"><g transform="translate(286)"><path d="m770.924177 145.593985c-12.061411 8.270677-30.76366 12.406015-56.077778 12.406015h-25.846399v-100h24.278524c25.846399 0 44.925227 3.7132927 57.269073 11.139878 12.314879 7.4265853 18.452403 19.9141722 18.452403 37.466307 0 17.718826-6.014411 30.717123-18.075823 38.9878" fill="#ec1751"/><path d="m491.075823 292.406455c6.358402-4.358929 14.538147-7.565171 24.560959-9.622273 2.632436-.535556 5.359018-1.000178 8.237679-1.379678 7.021038-.936336 14.787993-1.404504 23.27914-1.404504h25.846399v100h-24.278524c-25.846399 0-44.925227-3.713424-57.272694-11.140273-12.311258-7.426849-18.448782-19.914879-18.448782-37.467636 0-17.719454 6.014411-30.714666 18.075823-38.985636" fill="#fff024"/><path d="m658.588012 380h96.411988l-151.782195-322h-96.217805z" fill="#161d2d"/><g fill-rule="nonzero"><path d="m0 371.664921 153-319.664921h21l182 384-64-64.335079h-52l-23-47.246073h-109l-22 47.246073z" fill="#161d2d"/><path d="m167 0 102 215v-162.509434h-51z" fill="#ec1751"/><path d="m397.631469 58h75.695562v177.1c6.746782 81.175-35.695562 129.141667-127.327031 143.9l-40-85c18.92389 9.05625 88.643487 10.53125 91.631469-42.8 1.991989-35.554167 1.991989-99.954167 0-193.2z" fill="#ec1751"/></g></g><path d="m38.0175925 487.747221h-6.668663c-.7466225 0-1.3617284-.173927-1.8453361-.521785-.4836078-.347858-.8187345-.79328-1.0053901-1.336278l-2.1889504-6.465039h-14.1009133l-2.1889505 6.465039c-.1696869.475124-.50057145.903577-.99266354 1.285372-.4920921.381796-1.09447166.572691-1.80715676.572691h-6.7195688l14.3554424-37.084893h8.8067076zm-23.8239258-14.177272h10.130259l-3.4106902-10.155712c-.220593-.644811-.4793617-1.404148-.7763138-2.278036s-.5896577-1.819878-.8781255-2.838c-.2714991 1.035091-.5514783 1.993807-.8399461 2.87618-.2884678.882372-.5599628 1.645951-.8144932 2.290762zm94.4133353-4.377901c0 2.681053-.46239 5.154203-1.387184 7.419524-.924793 2.26532-2.227121 4.225175-3.907022 5.879622-1.6799 1.654448-3.7033865 2.944049-6.0705192 3.868843s-4.9929985 1.387184-7.8776763 1.387184h-14.4063483v-37.084893h14.4063483c2.8846778 0 5.5105436.466632 7.8776763 1.39991s4.3906192 2.222879 6.0705192 3.868843c1.679901 1.645963 2.982229 3.601575 3.907022 5.866896.924794 2.26532 1.387184 4.729986 1.387184 7.394071zm-8.8067075 0c0-1.832619-.2375582-3.487042-.7126816-4.963318s-1.158103-2.727699-2.0489594-3.754305c-.8908564-1.026605-1.9810786-1.815638-3.2706992-2.36712-1.2896207-.551483-2.7573906-.82722-4.4033538-.82722h-5.7523581v23.849379h5.7523581c1.6459632 0 3.1137331-.275738 4.4033538-.82722 1.2896206-.551483 2.3798428-1.340515 3.2706992-2.367121s1.573836-2.278028 2.0489594-3.754304c.4751234-1.476277.7126816-3.139184.7126816-4.988771zm42.2857715-18.52972h6.923192c.746622 0 1.357486.169684 1.83261.509058.475123.339374.814492.789038 1.018116 1.349004l7.177721 19.853272c.322405.865403.649048 1.807152.979937 2.825273.33089 1.018122.640564 2.087133.929032 3.207067.237561-1.119934.513298-2.188945.827219-3.207067.313921-1.018121.623595-1.95987.929032-2.825273l7.126815-19.853272c.169687-.475123.500571-.903576.992664-1.285372.492092-.381795 1.094471-.57269 1.807156-.57269h6.974098l-14.8645 37.084893h-7.788592zm83.926735 37.084893h-8.65399v-37.084893h8.65399zm67.738684-37.084893v6.82138h-10.435694v30.263513h-8.603085v-30.263513h-10.435693v-6.82138zm69.876728 37.084893h-8.65399v-15.678994h-15.068124v15.678994h-8.65399v-37.084893h8.65399v15.500823h15.068124v-15.500823h8.65399zm99.23242-6.795928c1.153871 0 2.184704-.190895 3.092529-.57269.907825-.381796 1.675647-.929028 2.303488-1.641713.627842-.712685 1.1072-1.582318 1.43809-2.608924.330889-1.026606.496332-2.193186.496332-3.499775v-21.965863h8.603084v21.965863c0 2.273805-.369064 4.360923-1.107202 6.261416-.738138 1.900494-1.794423 3.537948-3.168887 4.912412-1.374465 1.374465-3.045856 2.443476-5.014224 3.207067s-4.18275 1.145381-6.64321 1.145381c-2.477429 0-4.700295-.38179-6.668663-1.145381-1.968369-.763591-3.63976-1.832602-5.014224-3.207067-1.374464-1.374464-2.426507-3.011918-3.156161-4.912412-.729654-1.900493-1.094475-3.987611-1.094475-6.261416v-21.965863h8.603084v21.94041c0 1.306589.165442 2.47317.496332 3.499775.330889 1.026606.810248 1.900481 1.438089 2.62165.627842.72117 1.395664 1.272644 2.303489 1.65444.907825.381795 1.938658.57269 3.092529.57269zm76.138144-22.754903c-.25453.407248-.521783.71268-.801766.916305-.279984.203624-.640563.305435-1.081749.305435-.39028 0-.810249-.123022-1.259919-.369068-.449671-.246046-.958724-.521783-1.527175-.827219-.568451-.305437-1.217494-.581174-1.947148-.82722s-1.561107-.369067-2.494385-.369067c-1.612026 0-2.812543.343611-3.601587 1.030843-.789045.687232-1.183561 1.616254-1.183561 2.787094 0 .746622.237558 1.36597.712682 1.858062.475123.492092 1.098713.916303 1.870789 1.272646.772075.356342 1.654434.682985 2.647103.979937.992668.296952 2.006532.627837 3.041623.992664 1.03509.364826 2.048954.79328 3.041623 1.285372.992668.492092 1.875027 1.119924 2.647103 1.883515.772075.763591 1.395665 1.692613 1.870789 2.787094.475123 1.094481.712681 2.413777.712681 3.957928 0 1.713838-.296948 3.317355-.890852 4.8106s-1.455052 2.795573-2.58347 3.907022c-1.128418 1.11145-2.51983 1.985324-4.174278 2.62165s-3.533702.954484-5.63782.954484c-1.153871 0-2.328935-.118779-3.525228-.35634-1.196293-.237562-2.354389-.572689-3.474323-1.00539-1.119934-.432702-2.171977-.945997-3.156161-1.539902-.984184-.593904-1.84109-1.255673-2.570744-1.985327l2.545291-4.02156c.186656-.305436.449667-.551479.78904-.738134.339374-.186656.704196-.279982 1.094476-.279982.50906 0 1.022356.1612 1.539901.483605s1.102956.678742 1.756251 1.069022c.653294.39028 1.404148.746617 2.252582 1.069023.848435.322405 1.849573.483605 3.003444.483605 1.56112 0 2.774363-.343611 3.639767-1.030843.865403-.687232 1.298098-1.777454 1.298098-3.270699 0-.865404-.237558-1.569594-.712681-2.112592-.475124-.542998-1.098714-.992662-1.87079-1.349004-.772075-.356343-1.650192-.670259-2.634376-.941758s-1.993806-.572689-3.028896-.903578c-1.035091-.33089-2.044713-.738132-3.028897-1.22174s-1.862301-1.119924-2.634376-1.908969c-.772076-.789044-1.395666-1.773213-1.870789-2.952537-.475124-1.179325-.712682-2.634368-.712682-4.365175 0-1.391433.279979-2.748908.839946-4.072466s1.382936-2.502864 2.468933-3.537955c1.085996-1.03509 2.418018-1.862301 3.996107-2.481658 1.578088-.619358 3.385227-.929032 5.42147-.929032 1.136903 0 2.244093.089085 3.321605.267256s2.099861.441182 3.067076.78904c.967216.347858 1.870785.763585 2.710735 1.247193s1.590804 1.03084 2.252583 1.641713zm64.73524-7.534062v6.617757h-15.220841v8.65399h11.657433v6.363228h-11.657433v8.832161h15.220841v6.617757h-23.874831v-37.084893zm47.42726 23.365773v13.71912h-8.603085v-37.084893h12.064681c2.681053 0 4.96755.275737 6.859559.827219 1.89201.551483 3.436138 1.319305 4.632431 2.303489 1.196292.984184 2.065925 2.146522 2.608923 3.487049s.814493 2.799812.814493 4.377901c0 1.204777-.1612 2.341662-.483605 3.41069s-.801764 2.057439-1.43809 2.965264-1.416874 1.718068-2.341668 2.430753c-.924793.712686-1.989563 1.298097-3.19434 1.756251.576935.288468 1.115683.644805 1.61626 1.069023.500576.424217.937514.941754 1.310825 1.552627l7.890403 12.904627h-7.788592c-1.442338 0-2.477413-.54299-3.105255-1.628987l-6.159605-10.766581c-.271499-.475124-.589657-.814493-.954484-1.018117s-.878122-.305435-1.539901-.305435zm0-5.930528h3.461596c1.170839 0 2.167735-.148474 2.990717-.445426.822981-.296952 1.497477-.708437 2.023506-1.234467.52603-.526029.90782-1.141135 1.145381-1.845336.237562-.7042.356341-1.463538.356341-2.278035 0-1.628995-.530264-2.901628-1.590807-3.817937-1.060543-.91631-2.70224-1.374457-4.925138-1.374457h-3.461596zm126.823376-17.435245v6.617757h-15.220841v8.65399h11.657434v6.363228h-11.657434v8.832161h15.220841v6.617757h-23.874831v-37.084893zm47.961771 18.020662-11.479263-18.020662h8.603084c.559967 0 .971452.072116 1.234466.21635.263015.144233.496331.386034.699955.725408l7.381345 12.497379c.084843-.220593.182412-.432698.292708-.636322.110297-.203625.233318-.41573.369068-.636323l6.465039-11.09747c.424218-.712685 1.001144-1.069022 1.730798-1.069022h8.246744l-11.631981 17.638868 11.88651 19.446025h-8.603084c-.559967 0-1.013873-.135748-1.361731-.407247s-.623595-.593899-.82722-.96721l-7.43225-12.980986c-.13575.373312-.288466.695712-.458153.967211l-6.923192 12.013775c-.203624.356342-.475119.6745-.814493.954484-.339374.279983-.763585.419973-1.272645.419973h-8.043121zm69.647652 6.668663v12.395568h-8.603084v-37.084893h13.082796c2.613179 0 4.857255.309674 6.732296.929031 1.87504.619357 3.419168 1.472021 4.63243 2.558018 1.213261 1.085996 2.108346 2.367113 2.685282 3.84339.576936 1.476276.865399 3.071309.865399 4.785147 0 1.849588-.296948 3.546431-.890852 5.090582s-1.501716 2.86769-2.723462 3.970655c-1.221745 1.102965-2.770115 1.964113-4.645156 2.58347-1.875041.619358-4.093664.929032-6.655937.929032zm0-6.490493h4.479712c2.239868 0 3.85187-.534506 4.836054-1.603533.984184-1.069028 1.476269-2.562251 1.476269-4.479713 0-.848435-.127264-1.620499-.381794-2.316215s-.640562-1.293854-1.158107-1.79443c-.517546-.500577-1.17083-.886609-1.959875-1.158108-.789044-.271499-1.72655-.407246-2.812547-.407246h-4.479712zm81.686879-18.198832v6.617757h-15.220841v8.65399h11.657434v6.363228h-11.657434v8.832161h15.220841v6.617757h-23.874831v-37.084893zm47.427255 23.365773v13.71912h-8.60308v-37.084893h12.06468c2.68105 0 4.96755.275737 6.85956.827219 1.89201.551483 3.43614 1.319305 4.63243 2.303489s2.06593 2.146522 2.60892 3.487049c.543 1.340527.8145 2.799812.8145 4.377901 0 1.204777-.1612 2.341662-.48361 3.41069-.3224 1.069028-.80176 2.057439-1.43809 2.965264-.63632.907825-1.41687 1.718068-2.34167 2.430753-.92479.712686-1.98956 1.298097-3.19434 1.756251.57694.288468 1.11569.644805 1.61626 1.069023.50058.424217.93752.941754 1.31083 1.552627l7.8904 12.904627h-7.78859c-1.44234 0-2.47741-.54299-3.10525-1.628987l-6.15961-10.766581c-.2715-.475124-.58966-.814493-.95448-1.018117-.36483-.203624-.87813-.305435-1.5399-.305435zm0-5.930528h3.4616c1.17084 0 2.16774-.148474 2.99072-.445426s1.49748-.708437 2.0235-1.234467c.52603-.526029.90782-1.141135 1.14539-1.845336.23756-.7042.35634-1.463538.35634-2.278035 0-1.628995-.53027-2.901628-1.59081-3.817937-1.06054-.91631-2.70224-1.374457-4.92514-1.374457h-3.4616zm68.60409 19.649648h-8.65399v-37.084893h8.65399zm64.68433-37.084893v6.617757h-15.22084v8.65399h11.65743v6.363228h-11.65743v8.832161h15.22084v6.617757h-23.87483v-37.084893zm43.35479 0c.37332 0 .68723.016968.94176.050906.25453.033937.48361.097569.68723.190896.20363.093328.39876.224834.58542.394521.18665.169687.39876.39876.63632.687228l17.61342 22.271298c-.06788-.712685-.11878-1.404149-.15272-2.074412s-.05091-1.302338-.05091-1.896242v-19.624195h7.58497v37.084893h-4.47971c-.66178 0-1.22174-.101811-1.67989-.305435-.45816-.203624-.89934-.57693-1.32356-1.119928l-17.48615-22.093128c.05091.64481.09333 1.276885.12727 1.896242s.0509 1.200526.0509 1.743524v19.878725h-7.58496v-37.084893zm92.80981 27.489145c.20362 0 .40724.038179.61087.114538.20362.076359.39876.207865.58541.39452l3.41069 3.588861c-1.49324 1.951399-3.36401 3.423411-5.61236 4.41608-2.24836.992669-4.90816 1.488995-7.97949 1.488995-2.8168 0-5.34086-.479358-7.57224-1.438089-2.23139-.958731-4.12337-2.28227-5.676-3.970654-1.55264-1.688385-2.74467-3.690661-3.57614-6.006888-.83146-2.316226-1.24719-4.831797-1.24719-7.546788 0-2.765897.47512-5.306921 1.42536-7.623147.95025-2.316227 2.27803-4.314261 3.98338-5.994161 1.70536-1.679901 3.74581-2.98647 6.12143-3.919749 2.37562-.933278 4.99724-1.39991 7.86495-1.39991 1.39143 0 2.70224.123021 3.93248.369067 1.23023.246046 2.37984.585415 3.44886 1.018117 1.06903.432702 2.0532.950239 2.95254 1.552628.89934.602388 1.69686 1.268399 2.39258 1.998053l-2.90164 3.894296c-.18665.237561-.40724.453909-.66177.649049s-.61087.292708-1.06902.292708c-.30544 0-.5939-.067873-.8654-.203623-.2715-.135749-.55997-.301192-.8654-.496332-.30544-.19514-.64056-.407245-1.00539-.636322-.36483-.229078-.79752-.441183-1.2981-.636323s-1.08599-.360582-1.75625-.496332-1.45505-.203623-2.3544-.203623c-1.56112 0-2.98646.275737-4.27608.827219-1.28963.551483-2.39682 1.340515-3.32161 2.367121s-1.64595 2.269544-2.1635 3.728852c-.51754 1.459307-.77631 3.096762-.77631 4.912412 0 1.900493.25877 3.588853.77631 5.065129.51755 1.476277 1.22174 2.719215 2.11259 3.728852.89086 1.009637 1.93018 1.777459 3.11799 2.303489 1.1878.526029 2.46044.78904 3.81793.78904.78056 0 1.49324-.038179 2.13805-.114538s1.24295-.207865 1.79443-.39452c.55148-.186656 1.0775-.428456 1.57808-.725408.50057-.296953 1.00539-.666016 1.51445-1.107202.20362-.169687.42421-.309677.66177-.419973.23756-.110297.48361-.165444.73814-.165444zm66.33877-27.489145v6.617757h-15.22084v8.65399h11.65743v6.363228h-11.65743v8.832161h15.22084v6.617757h-23.87483v-37.084893z" fill="#161d2d"/></g></svg>