<svg enable-background="new 0 0 512 512" viewBox="0 0 512 512" xmlns="http://www.w3.org/2000/svg" xmlns:xlink="http://www.w3.org/1999/xlink"><radialGradient id="a" cx="256" cy="258" gradientTransform="matrix(1 0 0 -1 0 514)" gradientUnits="userSpaceOnUse" r="256"><stop offset="0" stop-color="#04be9e"/><stop offset="1" stop-color="#00a185"/></radialGradient><circle cx="256" cy="256" fill="url(#a)" r="256"/><path d="m337.543 228.916c-48.986-4.83-51.055-14.489-45.535-46.226s-28.979-60.715-91.762-42.086c-62.785 18.628-115.91 72.443-95.213 175.935 0 0 28.287 101.421 125.57 116.6 97.281 15.179 157.994-19.318 180.072-89.002 22.079-69.685-24.146-110.392-73.132-115.221zm-133.504-14.489c-11.621 0-21.043-9.421-21.043-21.043 0-5.381 2.023-10.289 5.346-14.01-.992 1.566-1.797 3.263-2.352 5.073 3.783-3.648 8.928-5.896 14.6-5.896 11.623 0 21.043 9.421 21.043 21.043 0 2.15-.324 4.224-.922 6.177.406-.393.793-.805 1.168-1.229-3.721 5.936-10.317 9.885-17.84 9.885z" fill="#94a5a6"/><path d="m332.713 232.365c-48.984-4.83-51.055-14.489-45.535-46.226s-28.979-60.715-91.762-42.086c-62.785 18.628-115.91 72.443-95.211 175.935 0 0 28.287 101.421 125.568 116.6s157.996-19.318 180.074-89.002c22.079-69.685-24.148-110.391-73.134-115.221zm-128.674-17.938c-11.621 0-21.043-9.421-21.043-21.043s9.422-21.043 21.043-21.043c11.623 0 21.045 9.421 21.045 21.043s-9.422 21.043-21.045 21.043z" fill="#ecf0f1"/><circle cx="365.141" cy="300.669" fill="#c6362b" r="31.047"/><circle cx="359.621" cy="297.22" fill="#ee483c" r="15.869"/><path d="m406.529 67.561-87.41 155.065-9.014-5.083s63.629-167.676 96.424-149.982z" fill="#32495d"/><path d="m406.529 67.561-87.41 155.065 9.246 5.211s110.281-141.38 78.164-160.276z" fill="#2a3e4f"/><path d="m302.336 220.914h20.698v26.217h-20.698z" fill="#f4c342" transform="matrix(-.8711 -.491 .491 -.8711 470.1683 591.4255)"/><path d="m312.018 223.455h10.348v26.216h-10.348z" fill="#f89b36" transform="matrix(-.8711 -.491 .491 -.8711 477.3548 598.3921)"/><path d="m297.23 240.382s-39.801-1.051-40.25 39.087c-.449 40.139-26.186 29.592-26.186 29.592s36.223 35.181 76.146-3.013c34.381-32.892 8.32-55.503 8.32-55.503z" fill="#94a5a6"/><path d="m315.262 250.546-18.031-10.164s-2.523-.066-6.305.475c2.32 2.169 24.102 24.118-8.518 55.323-16.793 16.067-32.934 19.147-45.996 17.327 11.672 8.066 40.02 21.731 70.529-7.458 34.381-32.892 8.321-55.503 8.321-55.503z" fill="#7e8c8d"/><circle cx="323.055" cy="369.663" fill="#f89b36" r="31.047"/><circle cx="317.535" cy="366.213" fill="#f4c342" r="15.869"/><circle cx="251.99" cy="394.501" fill="#1380b6" r="31.047"/><circle cx="246.472" cy="391.051" fill="#1c99d8" r="15.868"/><circle cx="177.478" cy="363.454" fill="#00af67" r="31.048"/><circle cx="171.958" cy="360.004" fill="#00ca77" r="15.868"/></svg>