<svg enable-background="new 0 0 512 512" viewBox="0 0 512 512" xmlns="http://www.w3.org/2000/svg"><path d="m100.244 374.568v-43.116c0-4.465-3.62-8.084-8.084-8.084h-43.116c-4.465 0-8.084 3.62-8.084 8.084v43.116c0 4.465 3.62 8.084 8.084 8.084h43.116c4.465.001 8.084-3.619 8.084-8.084z" fill="#9baaab"/><path d="m277.558 452.716h-43.116c-4.465 0-8.084 3.62-8.084 8.084v43.116c0 4.465 3.62 8.084 8.084 8.084h43.116c4.465 0 8.084-3.62 8.084-8.084v-43.116c0-4.465-3.619-8.084-8.084-8.084z" fill="#cdd4d5"/><path d="m195.638 439.781h-43.116c-4.465 0-8.084 3.62-8.084 8.084v43.116c0 4.465 3.62 8.084 8.084 8.084h43.116c4.465 0 8.084-3.62 8.084-8.084v-43.116c0-4.464-3.619-8.084-8.084-8.084z" fill="#9baaab"/><path d="m126.653 392.354h-43.116c-4.465 0-8.084 3.62-8.084 8.084v43.116c0 4.465 3.62 8.084 8.084 8.084h43.116c4.465 0 8.084-3.62 8.084-8.084v-43.116c0-4.465-3.62-8.084-8.084-8.084z" fill="#cdd4d5"/><path d="m480.202 254.383h-43.116c-4.465 0-8.084 3.62-8.084 8.084v43.116c0 4.465 3.62 8.084 8.084 8.084h43.116c4.465 0 8.084-3.62 8.084-8.084v-43.116c0-4.464-3.619-8.084-8.084-8.084z" fill="#cdd4d5"/><path d="m462.956 323.368h-43.116c-4.465 0-8.084 3.62-8.084 8.084v43.116c0 4.465 3.62 8.084 8.084 8.084h43.116c4.465 0 8.084-3.62 8.084-8.084v-43.116c0-4.464-3.62-8.084-8.084-8.084z" fill="#9baaab"/><path d="m359.478 439.781h-43.116c-4.465 0-8.084 3.62-8.084 8.084v43.116c0 4.465 3.62 8.084 8.084 8.084h43.116c4.465 0 8.084-3.62 8.084-8.084v-43.116c0-4.464-3.619-8.084-8.084-8.084z" fill="#9baaab"/><path d="m428.463 392.354h-43.116c-4.465 0-8.084 3.62-8.084 8.084v43.116c0 4.465 3.62 8.084 8.084 8.084h43.116c4.465 0 8.084-3.62 8.084-8.084v-43.116c0-4.465-3.619-8.084-8.084-8.084z" fill="#cdd4d5"/><path d="m82.998 305.583v-43.116c0-4.465-3.62-8.084-8.084-8.084h-43.116c-4.465 0-8.084 3.62-8.084 8.084v43.116c0 4.465 3.62 8.084 8.084 8.084h43.116c4.464 0 8.084-3.619 8.084-8.084z" fill="#cdd4d5"/><path d="m304.978 2.517c-1.527-1.607-3.646-2.517-5.862-2.517h-86.232c-2.216 0-4.336.91-5.863 2.517-1.526 1.607-2.326 3.772-2.212 5.984l12.935 250.072c.222 4.296 3.772 7.667 8.073 7.667h60.362c4.303 0 7.851-3.37 8.073-7.667l12.936-250.072c.115-2.213-.684-4.376-2.21-5.984z" fill="#4acfd9"/><path d="m217.745 258.573c.222 4.296 3.772 7.667 8.073 7.667h60.362c4.303 0 7.851-3.37 8.073-7.667l7.137-137.971h-90.782z" fill="#87999b"/><path d="m256 206.956c-44.874 0-81.381 36.507-81.381 81.381 0 18.151 12.66 50.668 37.628 96.646 18.25 33.608 36.755 62.633 36.941 62.922 1.485 2.325 4.054 3.732 6.812 3.732s5.327-1.407 6.812-3.732c.184-.29 18.69-29.314 36.939-62.922 24.969-45.979 37.629-78.496 37.629-96.646.001-44.874-36.506-81.381-81.38-81.381z" fill="#ffd1a9"/><path d="m212.884 0c-2.216 0-4.336.91-5.863 2.517-1.526 1.607-2.326 3.772-2.212 5.984l12.935 250.072c.222 4.296 3.772 7.667 8.073 7.667h29.258v-266.24z" fill="#0295aa"/><path d="m210.609 120.602 7.137 137.971c.222 4.296 3.772 7.667 8.073 7.667h29.258v-145.638z" fill="#687f82"/><path d="m174.619 288.337c0 18.151 12.66 50.668 37.628 96.646 18.25 33.608 36.755 62.633 36.941 62.922 1.318 2.063 3.49 3.398 5.89 3.673v-244.599c-44.449.5-80.459 36.793-80.459 81.358z" fill="#ff8c29"/><g fill="#fff"><path d="m264.394 373.468c-1.302 0-2.623-.316-3.848-.98-3.925-2.129-5.38-7.036-3.251-10.961 6.604-12.174 12.339-23.444 17.042-33.5 1.892-4.043 6.705-5.789 10.748-3.898 4.044 1.892 5.789 6.703 3.898 10.748-4.839 10.345-10.717 21.904-17.475 34.359-1.466 2.7-4.245 4.232-7.114 4.232z"/><path d="m290.909 317.981c-.958 0-1.932-.171-2.88-.534-4.171-1.592-6.264-6.264-4.672-10.435 4.964-13.011 5.479-18.279 5.519-18.795-.065-18.073-14.788-32.757-32.876-32.757-4.465 0-8.084-3.62-8.084-8.084 0-4.465 3.62-8.084 8.084-8.084 27.043 0 49.044 22.001 49.044 49.044 0 1.687-.474 8.433-6.581 24.44-1.229 3.224-4.299 5.205-7.554 5.205z"/></g></svg>