<svg enable-background="new 0 0 512 512" viewBox="0 0 512 512" xmlns="http://www.w3.org/2000/svg"><path d="m460.811 102.4-59.167-22.756 30.094 113.778 65.674-22.756c-8.736-24.716-21.148-47.695-36.601-68.266z" fill="#f9b233"/><path d="m256 0 168.4 102.4h36.411c-46.704-62.177-121.059-102.4-204.811-102.4z" fill="#fbc566"/><path d="m443.733 233.244-11.994 130.844 65.674-22.756c9.435-26.691 14.587-55.408 14.587-85.332z" fill="#f9b233"/><path d="m424.4 386.844-73.142 81.159 24.208 14.449c33.559-17.741 62.703-42.71 85.345-72.852z" fill="#f9b233"/><path d="m307.2 221.867-302.074 85.333c10.849 53.444 38.354 100.831 76.852 136.533l292.036 24.27c19.337-15.953 36.375-35.716 50.386-58.403l30.094-68.267c7.759-26.692 11.994-55.41 11.994-85.333z" fill="#fbc566"/><path d="m497.413 170.667h-42.918v42.667l11.994 42.666h45.511c0-29.924-5.152-58.641-14.587-85.333z" fill="#fbc566"/><path d="m454.494 170.667-30.094-68.267c-38.402-62.177-99.537-102.4-168.4-102.4-123.851 0-227.154 87.95-250.874 204.8l302.074 51.2h159.289c0-29.924-4.236-58.641-11.995-85.333z" fill="#fcd999"/><circle cx="256" cy="51.2" fill="#fd5f6e" r="17.067"/><path d="m454.494 341.333-30.094 34.134v34.133h36.411c15.452-20.571 27.864-43.55 36.601-68.267z" fill="#fa9647"/><path d="m79.644 375.467c0 18.852 15.281 34.133 34.133 34.133h310.623c12.706-20.571 22.91-43.55 30.094-68.267h-340.716c-18.852 0-34.134 15.282-34.134 34.134z" fill="#f9b233"/><path d="m170.667 102.4c-18.852 0-34.133 15.281-34.133 34.133s15.281 34.133 34.133 34.133h283.828c-7.184-24.717-17.39-47.696-30.094-68.267h-253.734z" fill="#fbc566"/><path d="m374.014 468.003-112.568 43.913c41.123-.86 79.859-11.404 114.021-29.464v-4.585c0-3.431-.512-6.741-1.453-9.864z" fill="#fcd999"/><path d="m341.333 443.733h-259.355c45.674 42.359 106.818 68.267 174.022 68.267 1.822 0 3.633-.047 5.445-.084 37.054-1.145 71.72-13.95 101.631-35.491 3.719-2.678 7.369-5.48 10.936-8.422-4.231-14.041-17.257-24.27-32.679-24.27z" fill="#feeccc"/><path d="m256 204.8h-250.874c-3.359 16.543-5.126 33.666-5.126 51.2s1.767 34.657 5.126 51.2h250.874c28.277 0 51.2-22.923 51.2-51.2s-22.923-51.2-51.2-51.2z" fill="#f9b233"/><circle cx="469.333" cy="256" fill="#fb7a5b" r="8.533"/><circle cx="81.249" cy="133.632" fill="#f9b233" r="8.533"/><circle cx="435.2" cy="290.133" fill="#fa9647" r="8.533"/></svg>