<svg enable-background="new 0 0 511.999 511.999" viewBox="0 0 511.999 511.999" xmlns="http://www.w3.org/2000/svg"><path d="m370.885 327.27-184.023-184.022c-3.123-3.124-8.188-3.124-11.312 0l-30.169 30.167c-1.501 1.5-2.343 3.535-2.343 5.656s.843 4.157 2.343 5.656l184.023 184.024c1.5 1.501 3.535 2.343 5.656 2.343s4.157-.843 5.656-2.343l30.167-30.169c3.126-3.123 3.126-8.188.002-11.312z" fill="#cdd4d5"/><path d="m214.012 73.862-69.386-69.386c-3.124-3.124-8.189-3.124-11.313 0l-30.166 30.167c-3.124 3.124-3.124 8.189 0 11.312l51.662 51.662-55.056 55.056-51.663-51.66c-3.124-3.124-8.189-3.124-11.312 0l-30.168 30.167c-3.124 3.124-3.124 8.189 0 11.312l69.386 69.386c1.507 1.507 3.544 2.343 5.656 2.343.241 0 .483-.011.725-.033l66.37-6.034c1.863-.17 3.608-.987 4.932-2.31l54.302-54.302c1.324-1.324 2.141-3.069 2.31-4.932l6.034-66.37c.213-2.363-.634-4.701-2.313-6.378z" fill="#cdd4d5"/><path d="m167.172 76.537c-2.047 0-4.095-.781-5.656-2.343l-21.332-21.332c-3.124-3.124-3.124-8.189 0-11.312 3.124-3.124 8.189-3.124 11.312 0l21.332 21.332c3.124 3.124 3.124 8.189 0 11.312-1.562 1.562-3.609 2.343-5.656 2.343z" fill="#fff"/><path d="m509.657 369.506-69.386-69.386c-1.679-1.679-4.017-2.525-6.38-2.31l-66.37 6.034c-1.863.17-3.608.987-4.932 2.31l-54.302 54.302c-1.324 1.324-2.141 3.069-2.31 4.932l-6.034 66.37c-.215 2.365.631 4.703 2.31 6.38l69.386 69.386c1.561 1.561 3.609 2.343 5.656 2.343s4.095-.781 5.656-2.343l30.167-30.167c3.124-3.124 3.124-8.189 0-11.312l-51.662-51.662 55.056-55.056 51.662 51.662c3.124 3.124 8.189 3.124 11.312 0l30.167-30.167c3.128-3.128 3.128-8.193.004-11.316z" fill="#cdd4d5"/><path d="m160.98 157.816-15.6 15.599c-1.501 1.5-2.343 3.535-2.343 5.656s.843 4.157 2.343 5.656l184.024 184.024c1.5 1.501 3.535 2.343 5.656 2.343s4.157-.843 5.656-2.343l15.599-15.6z" fill="#687f82"/><path d="m127.796 124.631-28.044 28.044-51.662-51.662c-3.124-3.124-8.189-3.124-11.312 0l-30.168 30.167c-3.124 3.124-3.124 8.189 0 11.312l69.386 69.386c1.507 1.507 3.544 2.343 5.656 2.343.241 0 .483-.011.725-.033l66.37-6.034c1.863-.17 3.608-.987 4.932-2.31l27.666-27.666z" fill="#9baaab"/><path d="m308.287 360.455c-1.324 1.324-2.141 3.069-2.31 4.932l-6.034 66.37c-.215 2.365.631 4.703 2.31 6.38l69.386 69.386c1.561 1.561 3.609 2.343 5.656 2.343s4.095-.781 5.656-2.343l30.167-30.167c3.124-3.124 3.124-8.189 0-11.312l-51.662-51.663 28.044-28.044-53.547-53.547z" fill="#9baaab"/><path d="m363.602 145.459-24.134-24.135c-3.124-3.124-8.189-3.124-11.312 0l-159.89 159.889c-3.124 3.124-3.124 8.189 0 11.313l24.134 24.134c1.561 1.561 3.609 2.343 5.656 2.343 2.048 0 4.095-.781 5.656-2.343l159.889-159.889c3.125-3.124 3.125-8.189.001-11.312z" fill="#cdd4d5"/><path d="m463.155 45.905-24.134-24.135c-2.358-2.358-5.93-3.007-8.967-1.625l-66.37 30.169c-.874.397-1.668.947-2.346 1.625l-51.283 51.285c-3.124 3.124-3.124 8.189 0 11.312l60.335 60.335c1.561 1.563 3.609 2.343 5.656 2.343s4.095-.781 5.656-2.343l51.285-51.285c.678-.678 1.229-1.473 1.625-2.346l30.167-66.37c1.382-3.035.735-6.608-1.624-8.965z" fill="#cdd4d5"/><path d="m200.696 362.666-78.436-78.436c-3.124-3.124-8.189-3.124-11.312 0l-93.52 93.52c-3.124 3.124-3.124 8.189 0 11.313l78.436 78.436c1.561 1.561 3.609 2.343 5.656 2.343s4.095-.781 5.656-2.343l93.52-93.52c3.124-3.124 3.124-8.189 0-11.313z" fill="#fd6a33"/><path d="m122.26 284.23c-3.124-3.124-8.189-3.124-11.312 0l-93.52 93.52c-3.124 3.124-3.124 8.189 0 11.313l38.888 38.889 104.833-104.833z" fill="#ff8c29"/><path d="m101.058 301.733h15.999v148.255h-15.999z" fill="#365558" transform="matrix(-.7071 -.7071 .7071 -.7071 -79.6002 718.7493)"/><path d="m123.689 323.476h15.999v143.988h-15.999z" fill="#365558" transform="matrix(-.7071 -.7071 .7071 -.7071 -54.8325 768.2274)"/><g fill="#687f82"><path d="m81.456 281.248h15.999v143.988h-15.999z" transform="matrix(-.7071 -.7071 .7071 -.7071 -97.0708 666.2763)"/><path d="m31.939 369.099h148.255v7.53h-148.255z" transform="matrix(-.7071 .7071 -.7071 -.7071 444.7211 561.5195)"/><path d="m351.206 133.062-171.202 171.201 12.396 12.396c1.561 1.561 3.609 2.343 5.656 2.343 2.048 0 4.095-.781 5.656-2.343l159.89-159.889c3.124-3.124 3.124-8.189 0-11.312z"/></g><path d="m450.759 33.508-110.866 110.867 30.497 30.497c1.561 1.563 3.609 2.343 5.656 2.343s4.095-.781 5.656-2.343l51.285-51.285c.678-.678 1.229-1.473 1.625-2.346l30.167-66.37c1.38-3.036.733-6.609-1.625-8.967z" fill="#9baaab"/><path d="m74.371 484.926c1.327 0 2.663-.33 3.882-1.007l27.15-15.084-89.314-89.313-15.082 27.151c-1.734 3.122-1.189 7.016 1.336 9.541l66.37 66.369c1.539 1.54 3.587 2.343 5.658 2.343z" fill="#ff8c29"/><path d="m16.091 379.522-15.084 27.151c-1.734 3.122-1.189 7.016 1.336 9.541l32.855 32.855 25.22-25.22z" fill="#ffd1a9"/><path d="m164.495 266.13c-2.312-2.311-5.8-2.984-8.808-1.696l-42.235 18.101 88.94 88.94 18.101-42.235c1.288-3.007.617-6.494-1.696-8.808z" fill="#ff8c29"/><path d="m164.495 266.13c-2.312-2.311-5.8-2.984-8.808-1.696l-42.235 18.101 44.141 44.141 33.723-33.723z" fill="#ffd1a9"/><path d="m353.575 117.36c-2.047 0-4.095-.781-5.656-2.343-3.124-3.124-3.124-8.189 0-11.312l25.598-25.598c3.124-3.124 8.189-3.124 11.312 0 3.124 3.124 3.124 8.189 0 11.312l-25.598 25.598c-1.562 1.561-3.608 2.343-5.656 2.343z" fill="#fff"/></svg>