<svg enable-background="new 0 0 60 60" viewBox="0 0 60 60" xmlns="http://www.w3.org/2000/svg"><path d="m56 32c-.553 0-1-.448-1-1 0-.64-.024-1.286-.072-1.922-.042-.551.371-1.031.922-1.072.549-.036 1.03.371 1.072.922.052.685.078 1.382.078 2.072 0 .552-.447 1-1 1zm-51.966-1.331c-.017 0-.035 0-.052-.001-.552-.028-.976-.498-.948-1.049.035-.691.097-1.386.183-2.066.07-.549.58-.933 1.118-.866.548.07.936.57.866 1.118-.081.63-.138 1.275-.17 1.916-.026.533-.468.948-.997.948zm51.281-4.614c-.454 0-.865-.311-.973-.772-.146-.625-.317-1.248-.51-1.852-.167-.526.124-1.089.65-1.256.524-.167 1.088.124 1.256.65.208.654.394 1.328.551 2.003.126.538-.208 1.076-.746 1.201-.075.017-.152.026-.228.026zm-50.295-1.288c-.092 0-.186-.013-.278-.04-.531-.153-.836-.708-.683-1.238.192-.665.412-1.328.654-1.971.194-.518.773-.779 1.287-.585.517.194.779.771.584 1.288-.224.595-.427 1.209-.605 1.824-.125.437-.525.722-.959.722zm48.266-4.344c-.367 0-.722-.203-.896-.554-.285-.574-.596-1.141-.923-1.685-.284-.473-.131-1.087.343-1.372.475-.284 1.088-.13 1.372.343.354.589.689 1.202.999 1.823.246.495.045 1.095-.45 1.341-.143.07-.295.104-.445.104zm-45.95-1.173c-.167 0-.335-.042-.49-.129-.481-.271-.651-.881-.38-1.362.339-.601.705-1.195 1.089-1.768.308-.458.928-.582 1.388-.273.458.308.581.929.273 1.388-.355.529-.694 1.08-1.008 1.636-.184.325-.523.508-.872.508zm42.681-3.842c-.288 0-.573-.123-.771-.361-.408-.492-.84-.974-1.283-1.431-.385-.396-.375-1.029.021-1.414s1.029-.376 1.414.022c.479.494.945 1.014 1.387 1.545.353.425.294 1.056-.131 1.408-.186.156-.413.231-.637.231zm-39.161-.997c-.242 0-.484-.087-.676-.264-.407-.374-.433-1.007-.06-1.413.467-.508.959-1.003 1.463-1.474.403-.376 1.036-.354 1.414.049.376.404.354 1.037-.049 1.414-.466.435-.922.894-1.354 1.364-.198.215-.468.324-.738.324zm34.832-3.14c-.21 0-.422-.066-.603-.203-.507-.384-1.038-.755-1.577-1.102-.464-.299-.598-.918-.299-1.382.299-.465.919-.599 1.382-.299.581.375 1.153.774 1.701 1.189.44.333.527.96.194 1.401-.196.259-.495.396-.798.396zm-30.3-.773c-.32 0-.634-.153-.828-.438-.311-.457-.192-1.079.264-1.389.572-.389 1.164-.76 1.761-1.102.48-.275 1.091-.109 1.365.371.274.479.108 1.09-.371 1.365-.552.316-1.101.659-1.63 1.02-.171.116-.367.173-.561.173zm16.279-1.498h-2c-.552 0-1-.448-1-1s.448-1 1-1h2c.552 0 1 .448 1 1s-.448 1-1 1zm8.869-.77c-.135 0-.273-.028-.405-.086-.581-.257-1.182-.497-1.785-.711-.521-.185-.792-.756-.608-1.277.185-.52.758-.791 1.277-.608.651.231 1.3.489 1.927.768.505.224.733.814.509 1.319-.166.373-.532.595-.915.595zm-19.844-.507c-.402 0-.781-.245-.934-.643-.198-.516.06-1.094.576-1.292.645-.248 1.307-.472 1.968-.668.527-.158 1.085.145 1.243.674.157.529-.145 1.086-.674 1.243-.611.182-1.223.389-1.82.618-.118.046-.239.068-.359.068zm6.308-.056c-.552 0-1-.448-1-1v-.556c-.262-.148-.455-.414-.498-.735-.075-.547.309-1.051.856-1.125.176-.024.352-.046.527-.066l1.115-.129v2.611c0 .552-.448 1-1 1zm7.824-1.213c-.061 0-.123-.005-.186-.017-.401-.076-.806-.141-1.214-.197-.129.06-.273.093-.424.093-.552 0-1-.448-1-1v-1.278l1.115.129c.638.074 1.274.17 1.892.286.543.102.9.625.798 1.167-.09.482-.51.817-.981.817z" fill="#7383bf"/><path d="m27 6h-20c-.552 0-1-.448-1-1s.448-1 1-1h20c.552 0 1 .448 1 1s-.448 1-1 1z" fill="#7383bf"/><path d="m53 6h-20c-.552 0-1-.448-1-1s.448-1 1-1h20c.553 0 1 .448 1 1s-.447 1-1 1z" fill="#7383bf"/><path d="m37 49h-14v-4.244c0-3.731-3.025-6.756-6.756-6.756h-3.244l17-26 17 26h-3.244c-3.731 0-6.756 3.025-6.756 6.756z" fill="#efce4a"/><path d="m23 49h14v5h-14z" fill="#7383bf"/><g fill="#434c6d"><path d="m25 54h10v5h-10z"/><path d="m1 31h6v6h-6z"/><path d="m8 38h-8v-8h8zm-6-2h4v-4h-4z"/><path d="m53 31h6v6h-6z"/><path d="m60 38h-8v-8h8zm-6-2h4v-4h-4z"/><path d="m27 2h6v6h-6z"/><path d="m34 9h-8v-8h8zm-6-2h4v-4h-4z"/></g><circle cx="4" cy="5" fill="#26b99a" r="3"/><path d="m4 9c-2.206 0-4-1.794-4-4s1.794-4 4-4 4 1.794 4 4-1.794 4-4 4zm0-6c-1.103 0-2 .897-2 2s.897 2 2 2 2-.897 2-2-.897-2-2-2z" fill="#26b99a"/><circle cx="56" cy="5" fill="#26b99a" r="3"/><path d="m56 9c-2.206 0-4-1.794-4-4s1.794-4 4-4 4 1.794 4 4-1.794 4-4 4zm0-6c-1.103 0-2 .897-2 2s.897 2 2 2 2-.897 2-2-.897-2-2-2z" fill="#26b99a"/><path d="m31 33.142v-21.142c0-.552-.448-1-1-1s-1 .448-1 1v21.142c-1.72.447-3 2-3 3.858 0 2.206 1.794 4 4 4s4-1.794 4-4c0-1.858-1.28-3.411-3-3.858zm-1 5.858c-1.103 0-2-.897-2-2s.897-2 2-2 2 .897 2 2-.897 2-2 2z" fill="#f7e6a1"/></svg>