<svg height="500" viewBox="0 0 517 500" width="517" xmlns="http://www.w3.org/2000/svg" xmlns:xlink="http://www.w3.org/1999/xlink"><mask id="a" fill="#fff"><path d="m18.012 84.017h6.422v-83.028h-6.422m-10.704 3.669h-6.422l5.658 79.359h6.422zm27.83 0h6.422l-5.658 79.359h-6.422z" fill="#fff" fill-rule="evenodd"/></mask><mask id="b" fill="#fff"><path d="m3.553 9.815h88.992c1.52 0 2.753-1.233 2.753-2.752v-4.128c0-1.521-1.233-2.753-2.754-2.753h-88.991c-1.52 0-2.753 1.232-2.753 2.753v4.128c0 1.519 1.233 2.752 2.753 2.752" fill="#fff" fill-rule="evenodd"/></mask><mask id="c" fill="#fff"><path d="m36.223.566c21.089 0 37.538 18.261 35.341 39.236l-5.065 48.38h-7.72l3.661-49.336c.788-7.525-1.567-14.766-6.63-20.387-5.065-5.622-12.02-8.719-19.587-8.719s-14.522 3.097-19.587 8.719c-5.063 5.621-7.418 12.862-6.63 20.387l3.661 49.336h-7.72l-5.066-48.38c-2.196-20.975 14.253-39.236 35.342-39.236" fill="#fff" fill-rule="evenodd"/></mask><mask id="d" fill="#fff"><path d="m5.331 24.422 19.153-7.451-4.013-10.317c-1.899-4.88-7.394-7.298-12.275-5.399l-1.479.575c-4.881 1.899-7.298 7.395-5.399 12.276z" fill="#fff" fill-rule="evenodd"/></mask><mask id="e" fill="#fff"><path d="m7.773 15.066h19.037c5.763 0 10.436-4.672 10.436-10.436v-3.807h4.243v17.186c0 10.472-8.489 18.961-18.961 18.961h-3.364c-10.471 0-18.96-8.489-18.96-18.961v-6.208c1.902 2.007 4.586 3.265 7.569 3.265" fill="#fff" fill-rule="evenodd"/></mask><mask id="f" fill="#fff"><path d="m54.36 24.405h-43.296c-6.045 0-10.946-4.9-10.946-10.946v-2.305c0-6.045 4.901-10.946 10.946-10.946h21.404c12.091 0 21.892 9.802 21.892 21.892z" fill="#fff" fill-rule="evenodd"/></mask><mask id="g" fill="#fff"><path d="m.754 21.091h20.552v-11.07c0-5.237-4.246-9.483-9.483-9.483h-1.587c-5.237 0-9.482 4.246-9.482 9.483z" fill="#fff" fill-rule="evenodd"/></mask><mask id="h" fill="#fff"><path d="m.741 11.995c-1.181 6.657 3.312 13.02 3.312 13.02s6.407-4.429 7.588-11.085c1.181-6.657-3.311-13.02-3.311-13.02s-6.408 4.429-7.589 11.085" fill="#fff" fill-rule="evenodd"/></mask><mask id="i" fill="#fff"><path d="m11.275 11.995c1.18 6.657-3.312 13.02-3.312 13.02s-6.407-4.429-7.588-11.085c-1.182-6.657 3.311-13.02 3.311-13.02s6.407 4.429 7.589 11.085" fill="#fff" fill-rule="evenodd"/></mask><mask id="j" fill="#fff"><path d="m.973 12.389c0-6.76 5.535-12.24 5.535-12.24s5.535 5.48 5.535 12.24c0 6.761-5.535 12.241-5.535 12.241s-5.535-5.48-5.535-12.241" fill="#fff" fill-rule="evenodd"/></mask><mask id="k" fill="#fff"><path d="m12.238 13.267c3.877-5.537 2.487-13.201 2.487-13.201s-7.678 1.314-11.555 6.851c-3.878 5.538-2.487 13.202-2.487 13.202s7.677-1.314 11.555-6.852" fill="#fff" fill-rule="evenodd"/></mask><mask id="l" fill="#fff"><path d="m11.846 6.917c3.877 5.538 2.487 13.202 2.487 13.202s-7.678-1.314-11.555-6.852c-3.877-5.537-2.487-13.201-2.487-13.201s7.677 1.314 11.555 6.851" fill="#fff" fill-rule="evenodd"/></mask><mask id="m" fill="#fff"><path d="m2.893 142.616c1.52 0 2.752-1.232 2.752-2.752v-116.859c0-9.549 7.769-17.317 17.317-17.317s17.316 7.768 17.316 17.317v4.472c0 1.52 1.232 2.753 2.753 2.753 1.52 0 2.752-1.233 2.752-2.753v-4.472c0-12.584-10.237-22.822-22.821-22.822-12.583 0-22.821 10.238-22.821 22.822v116.859c0 1.52 1.232 2.752 2.752 2.752" fill="#fff" fill-rule="evenodd"/></mask><mask id="n" fill="#fff"><path d="m4.962 9.552h438.076c2.491 0 4.51-2.019 4.51-4.511 0-2.491-2.019-4.51-4.51-4.51h-438.076c-2.491 0-4.51 2.019-4.51 4.51 0 2.492 2.019 4.511 4.51 4.511" fill="#fff" fill-rule="evenodd"/></mask><mask id="o" fill="#fff"><path d="m4.578 9.552h363.768c2.279 0 4.126-1.848 4.126-4.126v-.77c0-2.279-1.847-4.125-4.126-4.125h-363.768c-2.279 0-4.126 1.846-4.126 4.125v.77c0 2.278 1.847 4.126 4.126 4.126" fill="#fff" fill-rule="evenodd"/></mask><mask id="p" fill="#fff"><path d="m.018.619h49.615c2.758 0 5.173 2.124 5.245 4.881.072 2.83-2.2 5.147-5.013 5.147h-49.847z" fill="#fff" fill-rule="evenodd"/></mask><mask id="q" fill="#fff"><path d="m45.93 8.437h-41.504c-2.307 0-4.328-1.778-4.387-4.084-.061-2.367 1.839-4.305 4.193-4.305h41.698z" fill="#fff" fill-rule="evenodd"/></mask><mask id="r" fill="#fff"><path d="m.924.541h38.653c2.62 0 4.916 2.019 4.983 4.639.07 2.688-2.089 4.89-4.763 4.89h-38.873z" fill="#fff" fill-rule="evenodd"/></mask><g fill="none" fill-rule="evenodd"><path d="m0 0h517v500h-517z" fill="#fff"/><g transform="translate(35 79)"><path d="m25.527 335.395h6.422v-178.596h-6.422z" fill="#646561"/><path d="m23.845 228.741h9.786v-71.942h-9.786z" fill="#555552"/><path d="m23.845 166.447h9.786v-9.648h-9.786z" fill="#464644"/><path d="m59.472 335.395h6.423v-178.596h-6.423z" fill="#646561"/><path d="m57.79 228.741h9.786v-71.942h-9.786z" fill="#555552"/><path d="m57.79 166.447h9.786v-9.648h-9.786z" fill="#464644"/><path d="m10.542 341.817h74.479c1.858 0 3.364-1.506 3.364-3.365 0-1.857-1.506-3.364-3.364-3.364h-74.479c-1.858 0-3.364 1.507-3.364 3.364 0 1.859 1.506 3.365 3.364 3.365" fill="#5f605c"/><path d="m10.201 341.817h59.997c1.67 0 3.023-1.354 3.023-3.024v-.681c0-1.67-1.353-3.024-3.023-3.024h-59.997c-1.669 0-3.023 1.354-3.023 3.024v.681c0 1.67 1.354 3.024 3.023 3.024" fill="#747470"/><path d="m382.106 335.395h6.421v-178.596h-6.421z" fill="#646561"/><path d="m380.423 228.741h9.787v-71.942h-9.787z" fill="#555552"/><path d="m380.423 166.447h9.787v-9.648h-9.787z" fill="#464644"/><path d="m416.051 335.395h6.422v-178.596h-6.422z" fill="#646561"/><path d="m414.369 228.741h9.786v-71.942h-9.786z" fill="#555552"/><path d="m414.369 166.447h9.786v-9.648h-9.786z" fill="#464644"/><path d="m367.121 341.817h74.478c1.858 0 3.365-1.506 3.365-3.365 0-1.857-1.507-3.364-3.365-3.364h-74.478c-1.858 0-3.364 1.507-3.364 3.364 0 1.859 1.506 3.365 3.364 3.365" fill="#5f605c"/><path d="m366.78 341.817h59.997c1.669 0 3.023-1.354 3.023-3.024v-.681c0-1.67-1.354-3.024-3.023-3.024h-59.997c-1.67 0-3.023 1.354-3.023 3.024v.681c0 1.67 1.353 3.024 3.023 3.024" fill="#747470"/><path d="m322.012 184.017h6.422v-83.028h-6.422zm-10.704-79.359h-6.422l5.658 79.359h6.422zm27.83 0h6.422l-5.658 79.359h-6.422z" fill="#b46737"/><g fill="#a75d2e" transform="translate(304 100)"><path d="m39.338 58.93c.023-2.856-.636-5.666-1.272-8.383-.514-2.189-1.044-4.453-1.205-6.704-.232-3.248.297-6.555.808-9.752.391-2.441.795-4.967.869-7.484.038-1.325-.014-2.666-.064-3.964-.08-2.067-.163-4.203.127-6.262.405-2.862 1.532-5.609 2.691-8.15l-.835-.381c-1.187 2.604-2.344 5.425-2.764 8.403-.302 2.14-.218 4.319-.136 6.425.05 1.283.101 2.608.063 3.902-.072 2.458-.47 4.953-.857 7.367-.52 3.248-1.056 6.607-.817 9.961.166 2.324.705 4.623 1.226 6.848.625 2.664 1.27 5.42 1.248 8.167z" mask="url(#a)"/><path d="m28.131 59.928c3.364-5.163 5.605-11.629 6.66-19.219.938-6.749.88-13.655.824-20.335l-.069-8.231c-.022-2.625-1.011-3.444-1.837-3.668l-.24.886c.941.255 1.15 1.658 1.16 2.791l.068 8.231c.056 6.646.114 13.518-.815 20.2-1.036 7.455-3.23 13.795-6.52 18.843z" mask="url(#a)"/><path d="m37.838 77.39.605-.69c-2.92-2.564-4.679-6.639-4.951-11.473-.246-4.36.677-8.722 1.569-12.94.111-.523.375-1.067.646-1.017.201.029.373.378.459.934l2.031 13.229.907-.14-2.031-13.228c-.199-1.288-.781-1.637-1.235-1.703-.791-.111-1.424.552-1.675 1.735-.904 4.277-1.84 8.7-1.587 13.181.286 5.083 2.155 9.383 5.262 12.112" mask="url(#a)"/><path d="m37.236 72.835.794-.459c-1.77-3.06-2.625-6.688-2.406-10.216.03-.476.134-.766.301-.839.128-.058.337.018.476.17.187.203.286.51.372.808.549 1.895.735 3.935.539 5.898l.913.092c.208-2.079.011-4.239-.57-6.246-.112-.385-.257-.824-.577-1.172-.407-.444-1.033-.607-1.521-.39-.768.336-.829 1.304-.848 1.623-.23 3.706.667 7.516 2.527 10.731" mask="url(#a)"/><path d="m28.91 81.116c1.245-.095 2.559-.237 3.72-.813 1.37-.68 2.265-1.9 2.337-3.185.088-1.577-.992-2.838-1.945-3.953l-.364-.429c-1.472-1.764-2.544-3.873-3.101-6.101l-.889.222c.589 2.361 1.725 4.596 3.286 6.466l.371.439c.882 1.03 1.794 2.097 1.725 3.306-.051.94-.77 1.887-1.828 2.414-1.014.502-2.179.627-3.383.719z" mask="url(#a)"/><path d="m30.097 78.861c.177 0 .356-.014.537-.045.85-.146 1.749-.805 1.823-1.783.05-.681-.319-1.269-.589-1.698l-2.617-4.155-.777.489 2.617 4.155c.262.416.477.79.45 1.142-.036.483-.568.861-1.063.945-.612.106-1.3-.085-1.904-.254l-.247.884c.544.153 1.144.32 1.77.32" mask="url(#a)"/><path d="m41.408 27.177.913-.081c-.144-1.607-.647-3.147-1.133-4.636-.366-1.121-.745-2.28-.957-3.439-.106-.581-.201-1.331.016-1.976.164-.485.604-1.025 1.184-1.063l-.059-.915c-.872.056-1.674.734-1.994 1.685-.284.844-.176 1.744-.05 2.433.223 1.221.612 2.41.988 3.56.492 1.506.957 2.929 1.092 4.432" mask="url(#a)"/><path d="m15.04 35.715c5.07-5.954 7.789-13.851 7.462-21.664l-.038-.757c-.075-1.424-.153-2.895.315-4.195.249-.69.233-1.977.216-3.338-.014-1.142-.043-3.519.352-3.729l.293-.874c-.4-.113-.686.02-.855.15-.704.541-.737 2.048-.707 4.464.014 1.22.03 2.482-.162 3.015-.531 1.475-.448 3.041-.368 4.556l.037.747c.318 7.585-2.322 15.25-7.244 21.03z" mask="url(#a)"/><path d="m25.706 50.001.791-.464c-2.44-4.174-3.821-7.685-4.346-11.049-.809-5.195.393-10.664 1.454-15.489.825-3.755 1.678-7.636 3.583-11.03l-.8-.448c-1.972 3.51-2.84 7.462-3.679 11.281-1.079 4.904-2.3 10.462-1.463 15.827.542 3.481 1.959 7.094 4.46 11.372" mask="url(#a)"/><path d="m26.515 42.436.697-.596c-1.609-1.886-3.132-3.959-3.384-6.343-.254-2.409.794-4.629 1.903-6.979.728-1.541 1.48-3.135 1.85-4.811l-.895-.198c-.349 1.576-1.079 3.122-1.785 4.617-1.114 2.362-2.266 4.803-1.985 7.467.277 2.633 1.893 4.845 3.599 6.843" mask="url(#a)"/><path d="m16.619 23.277c.945-.314 1.758-1.128 2.229-2.232.403-.943.526-1.943.643-2.911l.879-7.197c.078-.644.176-1.445-.163-2.171-.126-.27-.263-.694-.408-1.142-.477-1.48-1.019-3.16-2.203-3.27l-.086.914c.582.054 1.105 1.672 1.416 2.638.155.477.299.926.45 1.249.211.452.165 1.001.084 1.67l-.879 7.198c-.111.903-.224 1.839-.576 2.662-.369.862-.979 1.49-1.676 1.721z" mask="url(#a)"/><path d="m15.148 77.647c2.103-1.923 3.682-4.741 4.566-8.152.786-3.028.979-6.171 1.166-9.211.263-4.253.533-8.637.54-12.962.004-3.104-.124-6.674-1.723-9.756-.311-.602-.771-1.33-1.562-1.628-.484-.181-1.064-.119-1.512.165-.372.236-.595.589-.628.994l.915.073c.012-.141.117-.237.205-.292.199-.128.486-.159.698-.082.498.188.833.735 1.069 1.193 1.504 2.897 1.624 6.335 1.62 9.332-.007 4.297-.276 8.668-.537 12.893-.185 3.011-.375 6.108-1.138 9.051-.84 3.237-2.326 5.902-4.298 7.704z" mask="url(#a)"/><path d="m15.775 79.457c3.916-1.634 6.645-5.944 7.301-11.531.307-2.614.198-5.273.094-7.846-.081-1.972-.165-4.013-.058-6.005.05-.915.201-2.032.929-2.547.347-.247.907-.148 1.227.086.218.16.297.339.234.534l.873.281c.186-.577-.025-1.158-.564-1.555-.596-.435-1.576-.607-2.301-.095-1.048.743-1.253 2.126-1.314 3.247-.109 2.034-.025 4.097.057 6.092.103 2.537.21 5.159-.088 7.701-.617 5.253-3.139 9.288-6.743 10.792z" mask="url(#a)"/><path d="m17.175 61.656c2.976-6.015 2.95-13.474-.068-19.467l-.819.412c2.89 5.741 2.915 12.886.065 18.647z" mask="url(#a)"/><path d="m25.438 81.127.125-.909-4.513-.619c-.314-.043-.608-.095-.744-.25-.168-.19-.083-.564.1-.795.218-.273.558-.465.916-.668l.167-.096c1.954-1.123 3.6-2.843 4.637-4.844l-.816-.422c-.955 1.846-2.475 3.434-4.279 4.471l-.161.092c-.4.227-.853.483-1.181.897-.417.522-.583 1.391-.072 1.97.373.426.936.503 1.308.554z" mask="url(#a)"/><path d="m11.715 63.817.8-.449c-6.34-11.295-5.72-29.39-5.12-46.89.022-.662-.333-1.352-.676-2.019-.352-.682-.714-1.388-.522-1.813.265-.582.095-1.571-.214-3.128-.165-.821-.439-2.198-.277-2.474l-.106.06.052-.916c-.262-.008-.485.079-.646.263-.441.509-.258 1.565.076 3.246.187.934.442 2.213.279 2.57-.376.829.091 1.735.542 2.612.29.563.589 1.144.574 1.568-.603 17.625-1.228 35.852 5.238 47.37" mask="url(#a)"/><path d="m12.464 54.696.804-.443c-4.569-8.306-4.246-18.753-3.986-27.147.087-2.83.178-5.757.835-8.539.725-3.069 2.096-5.583 3.963-7.272l-.616-.681c-2.005 1.815-3.472 4.492-4.24 7.743-.678 2.871-.771 5.844-.86 8.72-.262 8.506-.59 19.092 4.1 27.619" mask="url(#a)"/><path d="m.537 52.06c1.27 0 2.318-.423 3.115-1.26 2.65-2.777 2.177-9.749 1.676-17.13-.201-2.961-.409-6.023-.411-8.832-.003-5.052-.382-10.858-3.165-15.617l-.792.464c2.672 4.569 3.036 10.224 3.04 15.154.002 2.839.211 5.917.413 8.893.487 7.174.946 13.95-1.424 16.435-.647.678-1.488.987-2.552.975l-.018.918z" mask="url(#a)"/><path d="m4.554 80.863c2.099-.848 3.819-2.892 4.6-5.468.719-2.374.633-4.919.455-7.096-.283-3.462-.873-6.921-1.752-10.281-.485-1.856-1.025-3.919-2.727-4.915-.896-.525-1.603-.602-2.106-.226-1.147.856-.573 3.655.235 6.953.111.454.21.86.28 1.185l.897-.193c-.072-.333-.173-.747-.286-1.209-.399-1.628-1.332-5.439-.578-6 .167-.125.578-.021 1.094.281 1.374.804 1.863 2.673 2.295 4.322.874 3.343 1.455 6.749 1.733 10.158.172 2.09.256 4.528-.418 6.754-.701 2.314-2.221 4.139-4.066 4.884z" mask="url(#a)"/><path d="m4.495 77.794c1.954-1.602 3.318-3.95 3.742-6.439.425-2.491-.084-5.158-1.396-7.317-.316-.52-.69-.542-.881-.507-.437.075-.596.5-.647.64l-2.825 7.565.859.32 2.776-7.431c1.15 1.953 1.591 4.342 1.21 6.575-.388 2.276-1.634 4.42-3.42 5.884z" mask="url(#a)"/><path d="m12.929 81.82.621-.675c-1.494-1.378-2.306-3.627-2.227-6.169.072-2.34.819-4.622 1.542-6.83l-.872-.285c-.743 2.269-1.511 4.615-1.587 7.086-.087 2.809.833 5.314 2.523 6.873" mask="url(#a)"/></g><path d="m271.553 191.815h88.992c1.52 0 2.752-1.233 2.752-2.752v-4.128c0-1.521-1.232-2.753-2.752-2.753h-88.992c-1.52 0-2.753 1.232-2.753 2.753v4.128c0 1.519 1.233 2.752 2.753 2.752" fill="#ac6232"/><g fill="#9f562d" transform="translate(268 182)"><path d="m53.625 13.934c.012-1.767.959-3.572 2.595-4.951 1.59-1.341 3.576-2.118 5.309-2.702 12.417-4.176 26.601-2.754 37.939 3.805l.46-.795c-11.565-6.689-26.028-8.14-38.692-3.879-1.814.611-3.9 1.43-5.607 2.869-1.842 1.553-2.907 3.611-2.921 5.647z" mask="url(#b)"/><path d="m63.081 13.282c2.55-5.3 8.714-7.455 13.686-7.239 4.73.204 9.735 2.182 15.302 6.044l.522-.754c-5.713-3.964-10.876-5.994-15.784-6.207-5.273-.233-11.822 2.082-14.552 7.759z" mask="url(#b)"/><path d="m81.294 11.394.703-.591c-1.273-1.513-3.126-2.535-5.083-2.806-2.086-.29-6.057.653-7.53 2.78l.755.522c1.213-1.753 4.816-2.649 6.649-2.393 1.736.24 3.379 1.147 4.506 2.488" mask="url(#b)"/><path d="m35.213 12.794c6.556 0 12.719-3.234 17.956-6.477.871-.539 1.741-1.09 2.612-1.643 4.934-3.126 10.037-6.359 15.739-7.576l-.191-.897c-5.864 1.25-11.037 4.529-16.039 7.699-.868.549-1.735 1.099-2.604 1.636-5.574 3.453-12.2 6.889-19.15 6.265l-.083.914c.59.054 1.177.079 1.76.079" mask="url(#b)"/><path d="m33.58 6.56c8.807 0 17.706-2.958 24.714-8.268l-.555-.731c-7.409 5.614-16.983 8.539-26.262 8.023-9.283-.514-18.472-4.48-25.214-10.879l-.632.665c6.897 6.547 16.299 10.604 25.795 11.13.716.04 1.435.06 2.154.06" mask="url(#b)"/><path d="m34.375 2.84c4.963 0 9.889-2.03 13.383-5.564l-.652-.646c-3.606 3.648-8.816 5.612-13.931 5.25-3.092-.217-6.126-1.25-9.06-2.249-3.063-1.043-6.231-2.122-9.526-2.309l-.053.916c3.171.18 6.279 1.238 9.283 2.262 2.99 1.018 6.081 2.071 9.292 2.296.42.029.843.044 1.264.044" mask="url(#b)"/><path d="m31.419 12.242.318-.859c-6.153-2.283-12.517-4.644-19.131-5.744-7.41-1.233-14.265-.619-19.828 1.772l.362.843c5.402-2.321 12.079-2.912 19.315-1.71 6.528 1.086 12.85 3.431 18.964 5.698" mask="url(#b)"/><path d="m15.784 11.292.325-.857c-7.082-2.687-15.008-3.073-22.317-1.092l.24.886c7.124-1.933 14.85-1.555 21.752 1.063" mask="url(#b)"/><path d="m101.104 4.034.005-.917c-9.383-.052-18.904-2.868-26.809-7.925l-.494.773c8.049 5.149 17.744 8.016 27.298 8.069" mask="url(#b)"/><path d="m7.41 3.455c.296 0 .589-.035.88-.132.691-.229 1.343-.896 1.255-1.728-.074-.692-.64-1.166-.978-1.449l-2.981-2.494-.59.703 2.982 2.495c.314.263.623.544.654.842.036.329-.3.651-.631.76-.424.14-.912.084-1.459 0-4.277-.655-8.519-1.837-12.62-2.978l-.247.884c4.128 1.149 8.397 2.338 12.728 3.002.34.051.675.095 1.007.095" mask="url(#b)"/></g><path d="m325.223 94.566c21.089 0 37.538 18.261 35.342 39.236l-5.066 48.38h-7.72l3.661-49.336c.788-7.524-1.567-14.766-6.63-20.387-5.065-5.622-12.02-8.719-19.587-8.719s-14.522 3.097-19.587 8.719c-5.063 5.621-7.418 12.863-6.63 20.387l3.661 49.336h-7.72l-5.066-48.38c-2.196-20.975 14.253-39.236 35.342-39.236" fill="#c3713e"/><g fill="#b96631" transform="translate(289 94)"><path d="m68.493 87.009c.45 0 .892-.064 1.313-.2l-.28-.873c-1.548.493-3.476-.197-4.69-1.683-1.01-1.234-1.602-2.929-1.808-5.181-.62-6.747 2.542-13.653 8.056-17.592l-.534-.746c-5.774 4.125-9.085 11.357-8.436 18.422.225 2.44.882 4.297 2.012 5.678 1.126 1.377 2.791 2.175 4.367 2.175" mask="url(#c)"/><path d="m70.308 83.796c.186 0 .37-.014.551-.041l-.138-.907c-1.028.153-2.191-.281-3.037-1.144-.737-.75-1.27-1.802-1.587-3.131-.325-1.368-.351-2.732-.073-3.944.774-3.392 3.733-5.75 6.958-8.064l-.535-.745c-3.373 2.42-6.471 4.9-7.318 8.604-.309 1.35-.282 2.857.076 4.362.355 1.493.969 2.691 1.825 3.562.904.92 2.119 1.448 3.278 1.448" mask="url(#c)"/><path d="m62.998 92.937c1.031-2.258.882-5.08-.411-7.743-1.162-2.394-3.014-4.313-4.841-6.03l-.628.669c1.763 1.657 3.546 3.501 4.643 5.761 1.157 2.381 1.307 4.983.402 6.961z" mask="url(#c)"/><path d="m58.848 70.12c3.345-3.41 5.828-7.632 7.182-12.214.873-2.95 1.275-6.038 1.665-9.024.225-1.73.458-3.518.78-5.253 1.071-5.78 3.081-9.841 6.145-12.414l-.59-.702c-3.233 2.715-5.345 6.951-6.457 12.948-.326 1.76-.561 3.561-.788 5.302-.385 2.951-.782 6.003-1.634 8.884-1.312 4.436-3.718 8.528-6.958 11.831z" mask="url(#c)"/><path d="m71.545 60.466.794-.461c-3.481-6.005-3.001-14.076 1.167-19.626l-.732-.551c-4.385 5.836-4.89 14.323-1.229 20.638" mask="url(#c)"/><path d="m58.857 62.996c5.529-7.121 8.027-16.695 6.683-25.609-.461-3.053-1.714-6.995-5.064-8.443l-.365.841c2.965 1.283 4.096 4.916 4.521 7.739 1.309 8.672-1.122 17.983-6.5 24.91z" mask="url(#c)"/><path d="m68.048 33.025c.145 0 .293-.019.442-.057 1.081-.284 1.528-1.504 1.743-2.09l2.182-5.947-.861-.316-2.182 5.947c-.259.705-.573 1.376-1.115 1.518-.471.124-.998-.225-1.274-.635-.309-.459-.444-1.029-.586-1.631l-.042-.173c-.659-2.743-1.748-5.349-3.238-7.745-.877-1.409-1.894-2.745-2.879-4.037-1.072-1.407-2.181-2.861-3.09-4.395-1.171-1.975-2.947-5.831-1.699-9.49l-.868-.296c-1.368 4.007.526 8.144 1.777 10.253.938 1.581 2.063 3.057 3.15 4.484.972 1.275 1.976 2.592 2.83 3.966 1.438 2.313 2.489 4.827 3.126 7.475l.04.17c.155.655.316 1.334.718 1.931.385.571 1.066 1.068 1.826 1.068" mask="url(#c)"/><path d="m68.318 24.592c1.049 0 1.94-.93 2.17-1.934.241-1.055-.085-2.127-.347-2.99l-.877.267c.242.798.516 1.701.33 2.518-.156.682-.811 1.339-1.46 1.203-.474-.103-.843-.572-1.209-1.084-3.308-4.632-7.424-10.396-7.656-16.808l-.916.033c.241 6.688 4.446 12.576 7.825 17.308.456.638.969 1.276 1.764 1.447.127.027.252.04.376.04" mask="url(#c)"/><path d="m58.492 24.633.667-.63c-7.3-7.727-12.922-17.148-16.254-27.245l-.871.288c3.375 10.223 9.066 19.762 16.458 27.587" mask="url(#c)"/><path d="m52.703 10.197h.659l-.226-.617c-1.243-3.385-2.149-6.913-2.693-10.484l-.907.139c.511 3.35 1.335 6.664 2.452 9.862-.483-.251-.965-.765-1.479-1.564-1.81-2.822-3.11-6.053-3.759-9.344l-.9.177c.671 3.403 2.015 6.745 3.887 9.663.598.931 1.555 2.168 2.966 2.168" mask="url(#c)"/><path d="m19.187 21.959.887-.235c-1.164-4.378.126-9.304 3.287-12.549s8.052-4.665 12.456-3.617c4.408 1.048 8.135 4.515 9.497 8.837l.875-.277c-1.457-4.622-5.445-8.333-10.16-9.453-4.715-1.121-9.945.399-13.326 3.87s-4.76 8.741-3.516 13.424" mask="url(#c)"/><path d="m41.244 5.167h.009c.859-.003 1.852-.498 2.084-1.441.178-.721-.138-1.389-.506-2.003-1.063-1.775-2.355-3.405-3.843-4.847l-.638.658c1.429 1.386 2.672 2.955 3.694 4.661.267.446.501.914.402 1.312-.114.465-.728.702-1.202.742-.578 0-1.146-.243-1.748-.5-8.607-3.673-18.561-4.184-27.402-1.443l.272.876c8.638-2.679 18.36-2.178 26.676 1.371.754.322 1.436.614 2.202.614" mask="url(#c)"/><path d="m-3.327 59.473.911-.116c-.509-3.958 1.614-7.701 3.667-11.321l.662-1.173c4-7.169 6.695-14.915 8.008-23.019.121-.747.23-1.498.338-2.251.359-2.475.729-5.034 1.56-7.414.747-2.141 1.966-3.944 3.257-5.854.346-.51.691-1.022 1.028-1.542 1.018-1.568 1.835-2.612 3.845-2.825 1.375-.145 2.453.32 2.598.846.113.407-.412.935-1.369 1.377-4.855 2.245-7.132 7.593-7.646 11.849-.584 4.852.484 9.639 1.515 14.268l.896-.199c-1.015-4.554-2.065-9.263-1.5-13.96.484-4.01 2.608-9.039 7.12-11.125 2.038-.942 1.986-2.03 1.869-2.455-.295-1.066-1.802-1.701-3.58-1.513-2.404.255-3.428 1.56-4.517 3.238-.334.515-.677 1.022-1.019 1.527-1.267 1.875-2.577 3.813-3.363 6.065-.86 2.463-1.237 5.068-1.602 7.586-.108.747-.216 1.493-.336 2.235-1.297 8-3.955 15.643-7.903 22.719l-.659 1.167c-2.127 3.751-4.326 7.629-3.78 11.89" mask="url(#c)"/><path d="m-3.293 41.095c3.021-.817 5.795-3.103 7.613-6.268 1.435-2.497 2.34-5.502 2.85-9.455.495-3.846.541-7.751.135-11.605l-.912.097c.398 3.782.353 7.615-.134 11.39-.493 3.83-1.362 6.728-2.734 9.116-1.698 2.956-4.27 5.084-7.058 5.839z" mask="url(#c)"/><path d="m-1.524 34.081c2.392-1.245 4.316-3.403 5.277-5.922.962-2.517.966-5.409.014-7.931l-.858.324c.874 2.315.869 4.969-.013 7.28-.883 2.312-2.648 4.293-4.843 5.435z" mask="url(#c)"/><path d="m13.788 83.599.696-.598c-4.046-4.717-6.627-10.72-7.267-16.9-.408-3.945-.045-7.991.409-11.777.798-6.676 1.974-13.384 3.495-19.936l-.894-.207c-1.528 6.584-2.71 13.324-3.513 20.034-.459 3.838-.827 7.946-.409 11.98.659 6.366 3.316 12.546 7.483 17.404" mask="url(#c)"/><path d="m14.15 77.258.764-.508c-5.946-8.94-6.054-21.498-.263-30.539l-.772-.495c-5.981 9.338-5.87 22.309.271 31.542" mask="url(#c)"/><path d="m1.788 63.485 4.26-15.658c.044-.165.17-.734-.105-1.142-.129-.192-.326-.312-.554-.339-.544-.069-.873.434-.979.599l-5.102 7.915.771.497 5.102-7.915.012-.018-.031.162-4.26 15.658z" mask="url(#c)"/><path d="m2.151 86.898c1.235-.057 2.512-.117 3.737-.528 1.416-.476 2.51-1.398 3.002-2.528.71-1.634.11-3.377-.312-4.271-.378-.801-.871-1.535-1.347-2.244-.27-.402-.541-.804-.79-1.219-1.782-2.965-3.36-5.861-3.095-8.678l-.913-.086c-.316 3.351 1.813 6.893 3.222 9.236.257.428.536.844.815 1.259.478.712.93 1.385 1.278 2.123.355.753.866 2.212.3 3.514-.388.892-1.282 1.631-2.453 2.024-1.103.371-2.315.427-3.486.482z" mask="url(#c)"/></g><path d="m321.095 335.088h8.256v-140.292h-8.256z" fill="#646561"/><path d="m318.564 243.971h13.318v-47.248h-13.318z" fill="#575754"/><path d="m314.978 225.622h20.49v-28.899h-20.49z" fill="#4b4b48"/><path d="m282.104 196.861h67.89c2.787 0 5.046-2.259 5.046-5.046h-77.982c0 2.787 2.259 5.046 5.046 5.046" fill="#4b4b48"/><path d="m303.816 291.422h42.814c1.286 0 2.327 1.041 2.327 2.326 0 1.284-1.041 2.326-2.327 2.326h-42.814c-1.286 0-2.327-1.042-2.327-2.326 0-1.285 1.041-2.326 2.327-2.326" fill="#747470"/><path d="m290.164 286.77h70.118c1.285 0 2.326 1.042 2.326 2.326 0 1.285-1.041 2.326-2.326 2.326h-70.118c-1.284 0-2.326-1.041-2.326-2.326 0-1.284 1.042-2.326 2.326-2.326" fill="#747470"/><path d="m341.477 332.183h-32.508c-5.319 0-9.632 4.313-9.632 9.634h51.772c0-5.321-4.312-9.634-9.632-9.634" fill="#646561"/><path d="m335.656 332.183h5.821c5.32 0 9.632 4.313 9.632 9.634h-5.819c0-5.321-4.313-9.634-9.634-9.634" fill="#747470"/><path d="m54.256 148.456h16.41v.902c0 .647-.525 1.173-1.173 1.173h-14.065c-.647 0-1.172-.526-1.172-1.173z" fill="#abcd4c"/><path d="m79.358 139.131c0 .92-.747 1.665-1.666 1.665h-2.734v-7.564h2.734c.919 0 1.666.746 1.666 1.666zm2.428.41v-5.054c0-2.14-1.735-3.874-3.874-3.874h-5.383v12.802h5.383c2.139 0 3.874-1.734 3.874-3.874z" fill="#abcd4c"/><path d="m56.365 149.087h12.192c4.102 0 7.428-3.325 7.428-7.428v-13.681c0-.491-.398-.89-.89-.89h-25.268c-.492 0-.89.399-.89.89v13.681c0 4.103 3.325 7.428 7.428 7.428" fill="#abcd4c"/><path d="m72.108 141.659v-13.681c0-.491-.398-.89-.89-.89h3.877c.492 0 .89.399.89.89v13.681c0 4.103-3.326 7.428-7.428 7.428h-3.877c4.103 0 7.428-3.325 7.428-7.428" fill="#bbd464"/><path d="m247.348 284.415 42.592-16.568c.926 2.383-.254 5.065-2.637 5.993l-38.277 14.89z" fill="#f0e1d1"/><path d="m290.059 270.839-41.684 16.216-.376-.965 42.255-16.437c-.012.405-.081.803-.195 1.186" fill="#575754"/><path d="m258.498 280.077 31.442-12.23-6.122-15.736-31.441 12.231z" fill="#334663"/><path d="m247.331 284.422 19.153-7.451-4.013-10.317c-1.899-4.88-7.394-7.298-12.275-5.399l-1.479.575c-4.881 1.899-7.298 7.395-5.399 12.276z" fill="#f0e1d1"/><g fill="#dfd3c5" transform="translate(242 260)"><path d="m21.069 21.922.77-.307-5.133-12.87c-.881-2.209-1.881-4.713-3.598-6.646-1.526-1.718-4.165-3.358-6.996-2.791l.162.812c2.485-.496 4.841.982 6.214 2.53 1.622 1.824 2.551 4.151 3.449 6.402z" mask="url(#d)"/><path d="m10.971 26.344.767-.313c-2.451-6-4.986-12.202-6.296-18.656-.249-1.222-.494-2.641-.258-3.988.208-1.193.826-2.218 1.655-2.78l8.889 23.574.775-.292-9.218-24.444-.405.188c-1.283.6-2.223 1.95-2.512 3.61-.26 1.49-.001 2.999.262 4.297 1.326 6.531 3.875 12.77 6.341 18.804" mask="url(#d)"/></g><path d="m250.222 150.393h14.312v-75.322h-2.729c-6.397 0-11.583 5.185-11.583 11.583z" fill="#a06135"/><path d="m250.222 106.722h14.312v-31.651h-2.729c-6.397 0-11.583 5.185-11.583 11.583z" fill="#e05959"/><path d="m259.725 75.267c-.269.051-.534.11-.797.179.264-.068.528-.13.797-.179" fill="#e05959"/><path d="m258.793 75.48c-.297.081-.59.172-.878.274.288-.102.58-.194.878-.274" fill="#e05959"/><path d="m260.727 75.125c-.206.02-.408.052-.61.082.203-.029.404-.063.61-.082" fill="#e05959"/><path d="m264.534 123.238-6.139-16.516h6.139z" fill="#874c28"/><path d="m261.805 75.071c-.364 0-.723.021-1.078.054.355-.034.714-.054 1.078-.054" fill="#3d5477"/><path d="m258.928 75.446-.135.034z" fill="#3d5477"/><path d="m260.117 75.207c-.131.02-.262.036-.392.06.13-.025.261-.04.392-.06" fill="#3d5477"/><path d="m302.329 182.852h24.739c11.773 0 19.935-11.742 15.833-22.778l-28.957-77.897c-2.459-6.616-8.773-11.006-15.832-11.006h-24.739c-11.773 0-19.935 11.742-15.833 22.777l28.956 77.898c2.46 6.616 8.774 11.006 15.833 11.006" fill="#3d5477"/><path d="m341.882 157.335 1.019 2.739c4.102 11.036-4.06 22.778-15.833 22.778h-24.739c-7.059 0-13.373-4.39-15.833-11.006l-5.394-14.511z" fill="#35465e"/><path d="m277.516 89.826c7.419 0 13.456-6.036 13.456-13.456v-9.174h-26.911v9.174c0 7.42 6.036 13.456 13.455 13.456" fill="#e05959"/><path d="m277.516 87.073c5.911 0 10.704-4.792 10.704-10.703v-6.422h-21.407v6.422c0 5.911 4.792 10.703 10.703 10.703" fill="#8f502a"/><path d="m266.813 76.37v-6.422h21.407v6.422c0 .432-.033.856-.083 1.274-3.351 2.987-7.767 4.804-12.609 4.804h-3.364c-1.261 0-2.493-.126-3.686-.361-1.049-1.655-1.665-3.612-1.665-5.717" fill="#7b4525"/><path d="m272.164 78.97h3.364c10.472 0 18.961-8.489 18.961-18.961v-31.074c0-8.392-6.803-15.195-15.195-15.195h-10.895c-8.392 0-15.195 6.803-15.195 15.195v31.074c0 10.472 8.489 18.961 18.96 18.961" fill="#a06135"/><path d="m290.246 34.359c0-5.764-4.673-10.436-10.436-10.436h-19.037c-2.914 0-5.546 1.197-7.439 3.123.931-7.499 7.314-13.306 15.065-13.306h10.895c8.392 0 15.195 6.803 15.195 15.195v13.888c-1.383 0-2.848 0-4.243 0z" fill="#522f2e"/><path d="m260.773 57.066h19.037c5.763 0 10.436-4.672 10.436-10.436v-3.807h4.243v17.186c0 10.472-8.489 18.961-18.961 18.961h-3.364c-10.471 0-18.96-8.489-18.96-18.961v-6.208c1.902 2.007 4.586 3.265 7.569 3.265" fill="#311f1e"/><g fill="#402726" transform="translate(253 42)"><path d="m17.904 40.735.527-.751c-8.805-6.18-13.865-17.51-12.59-28.192l-.911-.108c-1.314 11.008 3.9 22.682 12.974 29.051" mask="url(#e)"/><path d="m19.749 40.231.772-.496c-5.309-8.255-7.644-18.174-6.574-27.93l-.912-.1c-1.093 9.964 1.291 20.095 6.714 28.526" mask="url(#e)"/><path d="m21.109 39.537.847-.354c-3.486-8.331-4.417-17.794-2.621-26.644l-.899-.182c-1.832 9.028-.883 18.681 2.673 27.18" mask="url(#e)"/><path d="m24.397 39.927c6.971-9.605 8.794-22.507 4.758-33.668l-.863.313c3.934 10.878 2.157 23.453-4.637 32.816z" mask="url(#e)"/><path d="m27.069 39.639c9.537-11.069 13.1-26.709 9.3-40.817l-.885.238c3.721 13.818.231 29.138-9.11 39.98z" mask="url(#e)"/></g><path d="m265.322 59.36c0 1.583 1.763 2.867 3.937 2.867 2.175 0 3.937-1.284 3.937-2.867 0-1.584-1.762-2.868-3.937-2.868-2.174 0-3.937 1.284-3.937 2.868" fill="#bc703d"/><path d="m253.345 51.884c-.971 5.938 4.54 9.196 8.443 9.196 3.092 0 5.305-.617 6.821-2.343 2.274-2.589 1.416-6.985-2.275-6.985-1.513 0-2.95.653-4.256 1.429-1.76 1.045-2.754 2.408-4.877 2.408-1.124 0-3.391-.285-3.856-3.705" fill="#522f2e"/><path d="m285.173 51.884c.971 5.938-4.54 9.196-8.443 9.196-3.091 0-5.305-.617-6.821-2.343-2.274-2.589-1.416-6.985 2.275-6.985 1.513 0 2.95.653 4.257 1.429 1.759 1.045 2.753 2.408 4.877 2.408 1.123 0 3.39-.285 3.855-3.705" fill="#522f2e"/><path d="m294.489 51.447h1.453c2.237 0 4.051-1.815 4.051-4.052v-2.905c0-2.239-1.814-4.053-4.051-4.053h-1.453z" fill="#8f502a"/><path d="m269.259 54.198c1.773 0 3.211-1.437 3.211-3.21v-8.257c0-1.774-1.438-3.211-3.211-3.211s-3.211 1.437-3.211 3.211v8.257c0 1.773 1.438 3.21 3.211 3.21" fill="#8f502a"/><g fill="#311f1e"><path d="m278.434 35.85h3.669c1.267 0 2.294-1.027 2.294-2.294 0-1.266-1.027-2.293-2.294-2.293h-3.669c-1.267 0-2.294 1.027-2.294 2.293 0 1.267 1.027 2.294 2.294 2.294"/><path d="m258.25 35.85h3.67c1.266 0 2.293-1.027 2.293-2.294 0-1.266-1.027-2.293-2.293-2.293h-3.67c-1.267 0-2.294 1.027-2.294 2.293 0 1.267 1.027 2.294 2.294 2.294"/><path d="m277.516 41.355c0 .76.616 1.376 1.376 1.376s1.376-.616 1.376-1.376-.616-1.377-1.376-1.377-1.376.617-1.376 1.377"/><path d="m259.167 41.355c0 .76.616 1.376 1.377 1.376.759 0 1.376-.616 1.376-1.376s-.617-1.377-1.376-1.377c-.761 0-1.377.617-1.377 1.377"/><path d="m294.36 28.406h-43.296c-6.045 0-10.946-4.901-10.946-10.947v-2.305c0-6.045 4.901-10.946 10.946-10.946h21.404c12.091 0 21.892 9.802 21.892 21.892z"/></g><g fill="#402726" transform="translate(240 4)"><path d="m52.454 26.226c.079-8.55-5.348-16.89-13.198-20.281-5.052-2.183-10.623-2.342-15.402-2.214-1.319.036-2.64.097-3.961.157-3.766.173-7.661.351-11.446-.082-4.059-.465-9.701-1.9-13.524-6.091l-.678.617c4.015 4.403 9.882 5.903 14.097 6.385 3.857.442 7.79.261 11.593.087 1.315-.06 2.631-.12 3.944-.155 4.682-.13 10.126.026 15.013 2.138 7.52 3.249 12.72 11.24 12.645 19.431z" mask="url(#f)"/><path d="m49.294 24.569.91-.117c-.719-5.636-5.404-11.883-10.896-14.531-5.329-2.568-11.277-3.136-16.909-3.367-1.118-.046-2.237-.08-3.357-.113-4.523-.136-9.201-.276-13.658-1.27-6.259-1.396-11.225-4.452-13.982-8.604l-.763.507c2.888 4.351 8.054 7.544 14.545 8.993 4.542 1.013 9.264 1.154 13.831 1.291 1.116.034 2.232.067 3.345.112 5.536.228 11.371.782 16.549 3.278 5.237 2.524 9.701 8.465 10.385 13.821" mask="url(#f)"/><path d="m43.565 26.294.793-.462c-2.746-4.71-8.311-8.051-15.671-9.405-2.979-.548-6.042-.789-9.004-1.021-3.079-.241-6.263-.491-9.331-1.088-4.096-.798-11.469-3.061-14.825-9.255l-.807.437c3.536 6.525 11.202 8.889 15.457 9.718 3.119.607 6.329.859 9.434 1.102 2.939.231 5.977.469 8.91 1.009 4.108.756 11.525 2.926 15.044 8.965" mask="url(#f)"/><path d="m31.539 25.002.575-.716c-3.013-2.418-7.168-3.723-12.705-3.989-1.734-.084-3.495-.074-5.2-.065-2.637.015-5.363.028-8.006-.305-3.525-.447-8.344-1.77-11.277-5.542l-.724.564c3.126 4.018 8.189 5.42 11.886 5.888 2.701.342 5.459.324 8.126.312 1.691-.008 3.441-.018 5.151.064 5.337.257 9.319 1.497 12.174 3.789" mask="url(#f)"/></g><path d="m313.944 82.177 2.902 7.807v46.234c0 7.904-6.407 14.313-14.312 14.313v-78.759c5.174 1.405 9.481 5.214 11.41 10.405" fill="#35465e"/><path d="m299.718 150.531v-79.36h2.729c6.397 0 11.583 5.187 11.583 11.583v53.464c0 7.904-6.407 14.313-14.312 14.313" fill="#a06135"/><path d="m268.342 150.531v-14.313h45.688c0 7.904-6.407 14.313-14.312 14.313z" fill="#a06135"/><path d="m314.03 102.823h-14.312v-31.652h2.729c6.397 0 11.583 5.186 11.583 11.583z" fill="#e05959"/><path d="m265.994 144.926c.852.548 1.987.302 2.536-.55l18.497-28.736c.549-.852.303-1.987-.549-2.536-.852-.548-1.988-.302-2.536.55l-18.498 28.736c-.548.851-.302 1.987.55 2.536" fill="#35465e"/><path d="m264.751 143.849c.852.549 1.988.303 2.536-.55l18.498-28.735c.548-.853.302-1.989-.55-2.536-.852-.549-1.987-.303-2.536.549l-18.498 28.736c-.548.852-.302 1.987.55 2.536" fill="#fff3e5"/><path d="m260.085 150.531h17.661v-8.602c0-4.877-3.954-8.83-8.831-8.83s-8.83 3.953-8.83 8.83z" fill="#a06135"/><path d="m249.305 186.157h65.826v-19.113h-65.826z" fill="#49818b"/><path d="m343.872 164.139c1.077 9.671-6.471 18.713-16.802 18.713h-24.738c-7.059 0-13.374-4.39-15.833-11.006l-2.865-7.707z" fill="#49818b"/><path d="m306.359 186.157h21.512c8.894 0 16.104-7.21 16.104-16.103v-3.01h-22.908c-8.123 0-14.708 6.584-14.708 14.707z" fill="#49818b"/><path d="m249.305 186.157h22.706c5.278 0 9.557-4.278 9.557-9.556 0-5.279-4.279-9.557-9.557-9.557h-22.706z" fill="#62949e"/><path d="m283.239 250.413-32.252-83.369c-9.204 0-15.538 9.242-12.217 17.825l28.726 74.254c1.063 2.747 3.705 4.558 6.65 4.558 6.851 0 11.565-6.879 9.093-13.268" fill="#62949e"/><path d="m280.19 242.53 4.165 10.96c1.442 3.794-.416 8.044-4.18 9.562l-2.64 1.065c-3.857 1.556-8.24-.345-9.741-4.223l-4.409-11.396c5.429-2.162 11.367-3.815 16.805-5.968" fill="#8f502a"/><path d="m264.829 254.016 17.786-6.05c1.924-.654 2.954-2.745 2.299-4.669l-.391-1.15c-.655-1.925-2.745-2.954-4.669-2.299l-17.786 6.049c-1.924.655-2.954 2.745-2.299 4.67l.391 1.149c.655 1.925 2.745 2.954 4.669 2.3" fill="#7aafb6"/><path d="m279.772 282.091h45.701c0 2.557-2.073 4.629-4.63 4.629h-41.071z" fill="#fff3e5"/><path d="m324.5 284.923h-44.728v-1.035h45.339c-.158.373-.366.72-.611 1.035" fill="#575754"/><path d="m291.736 282.091h33.737v-16.885h-33.737z" fill="#3d5477"/><path d="m279.754 282.091h20.552v-11.07c0-5.237-4.246-9.483-9.483-9.483h-1.587c-5.237 0-9.482 4.246-9.482 9.483z" fill="#fff3e5"/><g fill="#e9dbcd" transform="translate(279 261)"><path d="m16.328 24.465.828-.006-.117-13.853c-.02-2.378-.043-5.075-.944-7.5-.8-2.155-2.667-4.636-5.507-5.137l-.145.816c2.497.44 4.156 2.669 4.876 4.61.85 2.289.871 4.795.891 7.217z" mask="url(#g)"/><path d="m5.314 24.927.828-.015c-.11-6.479-.223-13.179.895-19.668.213-1.23.498-2.641 1.206-3.81.627-1.037 1.575-1.768 2.55-1.991l-.263 25.192.829.009.272-26.123-.445.03c-1.413.092-2.778 1.009-3.652 2.453-.781 1.294-1.088 2.794-1.313 4.1-1.132 6.564-1.018 13.305-.907 19.823" mask="url(#g)"/></g><path d="m321.067 167.044h2.28c5.279 0 9.557 4.278 9.557 9.557 0 5.278-4.278 9.556-9.557 9.556h-16.988v-4.406c0-8.123 6.585-14.707 14.708-14.707" fill="#76aab1"/><path d="m325.473 265.21v-98.166h-4.406c-8.123 0-14.708 6.584-14.708 14.707v83.459c0 4.561 3.697 8.257 8.257 8.257h2.6c4.56 0 8.257-3.696 8.257-8.257" fill="#76aab1"/><path d="m325.473 257.412v7.798c0 4.561-3.697 8.257-8.257 8.257h-2.6c-4.56 0-8.257-3.696-8.257-8.257v-7.798z" fill="#a06135"/><path d="m306.523 260.342h18.787c2.032 0 3.68-1.647 3.68-3.68v-1.215c0-2.032-1.648-3.68-3.68-3.68h-18.787c-2.033 0-3.681 1.648-3.681 3.68v1.215c0 2.033 1.648 3.68 3.681 3.68" fill="#8dbfc3"/><path d="m193.857 150.531h78.638c1.897 0 2.909-2.236 1.659-3.663l-29.657-33.839c-1.852-2.114-4.525-3.325-7.335-3.325h-79.702c-1.897 0-2.91 2.235-1.66 3.661l28.956 33.04c2.298 2.622 5.615 4.126 9.101 4.126" fill="#f2e4d5"/><path d="m192.792 150.531h79.703c1.897 0 2.909-2.236 1.659-3.663l-29.657-33.839c-1.852-2.114-4.525-3.325-7.335-3.325h-79.702c-1.897 0-2.91 2.235-1.66 3.661l29.658 33.84c1.852 2.114 4.525 3.326 7.334 3.326" fill="#f2e4d5"/><path d="m192.792 150.531h79.703c1.897 0 2.909-2.236 1.659-3.663l-29.657-33.839c-1.852-2.114-4.525-3.325-7.335-3.325h-79.702c-1.897 0-2.91 2.235-1.66 3.661l29.658 33.84c1.852 2.114 4.525 3.326 7.334 3.326" fill="#dfd3c5"/><path d="m267.426 146.868-29.657-33.839c-1.852-2.114-4.525-3.325-7.335-3.325h6.728c2.81 0 5.483 1.211 7.335 3.325l29.657 33.839c1.25 1.427.238 3.663-1.659 3.663h-6.728c1.897 0 2.91-2.236 1.659-3.663" fill="#e9dacc"/><path d="m176.177 123.237-6 16.998c-.694 1.968-.402 4.075.804 5.779s3.093 2.681 5.181 2.681h34.822c2.686 0 5.091-1.702 5.986-4.235l7.49-21.223zm-6.694 23.837c-1.554-2.197-1.933-4.912-1.037-7.45l6.217-17.61c.13-.367.476-.612.865-.612h50.229c.298 0 .577.143.749.387.172.242.215.554.116.835l-7.922 22.447c-1.153 3.265-4.254 5.459-7.716 5.459h-34.822c-2.691 0-5.125-1.259-6.679-3.456z" fill="#d4c8bd"/><path d="m204.656 132.181c0-1.774 2.67-3.211 5.963-3.211 3.294 0 5.964 1.437 5.964 3.211 0 1.773-2.67 3.211-5.964 3.211-3.293 0-5.963-1.438-5.963-3.211" fill="#d4c8bd"/><path d="m72.468 123.313h93.426c4.983 0 9.022-4.039 9.022-9.022v-51.682c0-4.983-4.039-9.022-9.022-9.022h-93.426c-4.982 0-9.022 4.039-9.022 9.022v51.682c0 4.983 4.04 9.022 9.022 9.022" fill="#f2e4d5"/><path d="m169.411 114.291v-51.682c0-4.983-4.039-9.022-9.022-9.022h5.505c4.983 0 9.022 4.039 9.022 9.022v51.682c0 4.983-4.039 9.022-9.022 9.022h-5.505c4.983 0 9.022-4.039 9.022-9.022" fill="#fff3e5"/><path d="m104.349 88.45c0 4.138 3.355 7.493 7.492 7.493 4.139 0 7.493-3.355 7.493-7.493s-3.354-7.493-7.493-7.493c-4.137 0-7.492 3.355-7.492 7.493" fill="#e9dbcd"/><path d="m91.887 150.531h45.261c1.182 0 2.14-.959 2.14-2.142 0-1.182-.958-2.141-2.14-2.141h-45.261z" fill="#f8eada"/><path d="m103.508 123.313h23.548v-18.655h-23.548z" fill="#d4c9bd"/><path d="m105.037 104.658h22.019v.53c-5.475 1.589-9.48 6.633-9.48 12.62v32.723h-25.689v-32.723c0-7.263 5.888-13.15 13.15-13.15" fill="#e9dbcd"/><path d="m119.941 104.658h7.115v.53c-5.475 1.589-9.48 6.633-9.48 12.62v32.723h-4.22v-34.032c0-5.065 2.649-9.48 6.585-11.841" fill="#f8eada"/><path d="m395.741 81.995c-1.181 6.657 3.312 13.02 3.312 13.02s6.407-4.429 7.588-11.085c1.181-6.657-3.311-13.02-3.311-13.02s-6.408 4.429-7.589 11.085" fill="#75b6a6"/><g fill="#83c1b4" transform="translate(395 70)"><path d="m11.08 5.86c.627 0 1.215-.22 1.563-.746l-.671-.444c-.345.522-1.237.465-1.902.146-.244-.118-.481-.258-.717-.399-.549-.325-1.117-.661-1.795-.751-.413-.053-.81-.009-1.193.036-.34.039-.66.075-.966.04-1.052-.121-1.858-1.07-2.594-2.031l-.639.489c.84 1.098 1.776 2.185 3.141 2.341.4.047.78.003 1.15-.041.351-.039.683-.08.995-.036.515.067.99.349 1.491.646.257.152.514.303.78.43.42.202.899.32 1.357.32" mask="url(#h)"/><path d="m11.771 8.418c.787 0 1.586-.179 2.278-.678l-.471-.652c-1.184.857-2.896.467-3.81.159-.418-.14-.83-.304-1.242-.468-.944-.377-1.92-.767-2.972-.873-.538-.053-1.072-.031-1.59-.008-.521.022-1.013.043-1.499-.008-.796-.085-1.819-.488-2.078-1.345l-.77.233c.373 1.234 1.722 1.8 2.763 1.912.547.057 1.09.035 1.619.011.512-.021.995-.044 1.474.006.939.094 1.822.447 2.755.819.425.17.852.338 1.284.484.656.221 1.452.408 2.259.408" mask="url(#h)"/><path d="m10.867 10.901c.442 0 .886-.156 1.17-.548l-.652-.472c-.182.252-.636.263-.972.125-.268-.109-.516-.287-.778-.476-.165-.12-.331-.239-.505-.344-1.598-.975-3.863-.678-5.155.676l.582.554c1.043-1.091 2.868-1.33 4.155-.544.156.096.304.203.453.31.289.209.588.424.944.569.229.094.494.15.758.15" mask="url(#h)"/></g><path d="m397.275 81.995c1.18 6.657-3.312 13.02-3.312 13.02s-6.407-4.429-7.588-11.085c-1.182-6.657 3.311-13.02 3.311-13.02s6.407 4.429 7.589 11.085" fill="#75b6a6"/><g fill="#83c1b4" transform="translate(386 70)"><path d="m-1.588 5.822c.257 0 .514-.047.748-.136.553-.212.98-.59 1.393-.955l.296-.257c.559-.473 1.039-.684 1.453-.636.332.035.649.234.984.442.242.152.493.307.774.421.827.334 1.795.226 2.527-.285.731-.509 1.169-1.38 1.144-2.27l-.804.023c.017.613-.297 1.236-.799 1.588-.504.35-1.196.428-1.767.198-.216-.087-.426-.218-.649-.357-.397-.248-.809-.504-1.324-.56-.648-.068-1.32.199-2.058.821l-.309.269c-.376.333-.731.647-1.148.806-.425.164-1.026.085-1.208-.286l-.722.353c.277.566.871.821 1.469.821" mask="url(#i)"/><path d="m-.215 7.803c.405 0 .81-.068 1.167-.174.244-.073.488-.159.731-.246.676-.24 1.314-.468 1.945-.379.333.046.66.183 1.006.326.315.131.641.268.996.345.826.179 1.726-.032 2.471-.58s1.214-1.347 1.287-2.19l-.802-.069c-.053.612-.403 1.2-.962 1.611-.557.411-1.222.573-1.824.441-.284-.062-.562-.177-.857-.3-.377-.157-.768-.32-1.204-.381-.823-.114-1.587.156-2.325.418-.23.082-.46.164-.691.233-.822.244-1.828.213-2.211-.413l-.687.419c.425.693 1.191.939 1.96.939" mask="url(#i)"/><path d="m1.194 12.306c.994-.808 2.021-1.643 3.223-2.071.993-.355 2.41-.45 3.407.347l.502-.629c-1.05-.839-2.652-1.022-4.179-.476-1.332.475-2.462 1.394-3.46 2.205z" mask="url(#i)"/></g><path d="m390.973 85.389c0-6.76 5.535-12.24 5.535-12.24s5.535 5.48 5.535 12.24c0 6.761-5.535 12.241-5.535 12.241s-5.535-5.48-5.535-12.241" fill="#7ac1b0"/><g fill="#87c9b9" transform="translate(390 73)"><path d="m4.44 5.831c.218 0 .441-.045.665-.151.303-.147.529-.385.729-.594.208-.219.387-.408.593-.445.249-.052.546.143.855.346.107.069.213.137.319.199.813.472 1.823.559 2.705.23.881-.328 1.59-1.054 1.895-1.945l-.761-.261c-.225.654-.767 1.211-1.414 1.452-.648.242-1.423.176-2.021-.172-.094-.054-.188-.116-.283-.177-.408-.267-.869-.567-1.44-.464-.463.085-.765.402-1.031.682-.167.176-.325.341-.495.423-.408.198-.982-.028-1.708-.667-.479-.422-1.479-1.298-2.523-.936l.263.76c.533-.184 1.145.265 1.728.78.295.259 1.068.94 1.924.94" mask="url(#j)"/><path d="m4.451 8.312.226-.012c.5-.057.911-.293 1.307-.52.211-.123.421-.246.646-.332.813-.314 1.771-.102 2.695.103l.474.102c1.65.341 2.899.082 3.615-.75l-.61-.525c-.649.754-1.904.681-2.842.487l-.463-.1c-1.042-.23-2.119-.467-3.159-.068-.262.102-.51.243-.757.384-.34.197-.662.381-.996.419-.56.067-1.144-.301-1.702-.652l-.222-.14c-1.056-.653-1.98-.762-2.667-.318l.436.677c.545-.353 1.366.053 1.807.326l.217.135c.586.37 1.243.784 1.995.784" mask="url(#j)"/><path d="m6.733 11.078c.645 0 1.223-.269 1.784-.532.196-.092.392-.183.589-.262 1.366-.539 2.978-.37 4.204.443l.444-.671c-1.441-.954-3.337-1.151-4.943-.52-.213.084-.424.183-.635.282-.554.258-1.083.505-1.597.449-.387-.041-.757-.247-1.147-.466-.335-.187-.682-.382-1.076-.493-.852-.239-1.693-.042-2.507.147-.201.048-.402.095-.601.135-.403.08-1.757.278-2.289-.531l-.672.442c.546.83 1.713 1.159 3.117.877.208-.041.418-.09.629-.139.748-.176 1.453-.342 2.104-.157.303.085.594.248.903.421.444.248.903.505 1.455.564z" mask="url(#j)"/><path d="m6.024 14.866c.811 0 1.615-.274 2.35-.526l.513-.173c.509-.164 2.225-.621 2.97.36l.64-.489c-.719-.944-2.161-1.181-3.856-.636l-.528.177c-.949.326-1.928.66-2.798.376-.341-.112-.657-.318-.992-.537-.396-.257-.803-.522-1.293-.659-.679-.189-1.351-.088-2.002.01-.185.028-.369.055-.552.076-.411.048-1.408.088-1.829-.513l-.659.462c.645.919 1.892.929 2.577.851.193-.022.388-.051.583-.08.594-.09 1.156-.175 1.666-.031.37.103.71.325 1.069.558.364.237.741.482 1.182.627.317.104.638.147.959.147" mask="url(#j)"/><path d="m6.474 17.887c.304 0 .61-.034.92-.113.448-.115.853-.313 1.244-.504.285-.141.57-.281.87-.383.552-.187 1.297-.186 1.627.257l.646-.479c-.571-.771-1.682-.826-2.53-.541-.342.116-.66.272-.968.423-.37.182-.72.354-1.088.447-1.152.292-2.326-.197-3.567-.714-1.274-.534-2.593-1.085-3.976-.789l.168.787c1.136-.242 2.285.237 3.498.744 1.021.426 2.071.865 3.156.865" mask="url(#j)"/></g><path d="m409.238 90.267c3.877-5.537 2.487-13.201 2.487-13.201s-7.678 1.314-11.555 6.851c-3.878 5.538-2.487 13.202-2.487 13.202s7.677-1.314 11.555-6.852" fill="#82c8b9"/><g fill="#9ad1c6" transform="translate(397 77)"><path d="m15.27 6.071c.338 0 .678-.085.96-.238.681-.366 1.117-1.028 1.468-1.559l-.671-.445c-.317.481-.676 1.026-1.179 1.296-.397.215-1.007.205-1.244-.153l-.124-.24c-.102-.221-.228-.496-.51-.668-.407-.249-.94-.163-1.46.233l-.139.109c-.206.164-.4.318-.58.326l-.016.001c-.364 0-.604-.6-.66-1.032l-.023-.183c-.076-.64-.172-1.435-.819-1.858-.476-.311-1.022-.267-1.506-.229l-.144.011c-.277.022-.765.013-.929-.245l-.68.429c.203.321.655.68 1.665.618l.151-.011c.389-.03.758-.059 1.003.101.333.218.398.757.461 1.28l.023.19c.111.864.649 1.78 1.513 1.731.437-.02.772-.286 1.041-.499l.127-.099c.225-.172.453-.249.553-.187.073.045.134.178.198.319.056.12.114.241.185.348.303.455.818.654 1.336.654" mask="url(#k)"/><path d="m15.982 9.655c.201 0 .401-.044.579-.129.261-.126.453-.335.541-.591l-.76-.263-.129.128c-.121.058-.283.065-.414.02-.284-.102-.521-.366-.778-.674-.288-.346-.615-.738-1.107-.926-.875-.339-1.751.138-2.456.518-.554.298-1.283.576-1.722.251-.34-.252-.386-.748-.439-1.322-.051-.549-.109-1.171-.472-1.665-.597-.813-1.634-.86-2.549-.9-.808-.036-1.571-.071-1.934-.579l-.655.467c.592.828 1.634.874 2.553.916.807.035 1.568.069 1.937.572.23.314.274.775.319 1.263.061.669.132 1.428.761 1.894.623.464 1.487.402 2.566-.181.634-.342 1.272-.687 1.802-.484.297.115.542.408.778.691.258.31.611.734 1.127.916.144.051.298.078.452.078" mask="url(#k)"/><path d="m14.502 12.989.688-.417c-.672-1.109-1.461-2.149-2.685-2.25-.79-.064-1.495.296-2.177.645-.724.371-1.349.689-1.928.444-.558-.235-.781-.876-1.04-1.616-.254-.725-.542-1.549-1.246-2.014-.778-.515-1.75-.384-2.414-.24l-.368.083c-.569.132-1.106.258-1.621.168-.518-.091-1.039-.542-.958-1.011l-.793-.134c-.164.962.701 1.778 1.613 1.938.674.116 1.318-.033 1.941-.177l.356-.081c.828-.176 1.4-.139 1.8.125.478.316.698.944.931 1.609.281.804.6 1.717 1.485 2.092.924.392 1.82-.065 2.608-.47.609-.311 1.184-.607 1.745-.559.864.071 1.502.938 2.063 1.865" mask="url(#k)"/><path d="m12.702 15.31.668-.448c-.933-1.39-2.773-2.04-4.37-1.543-.304.093-.608.227-.911.362-.64.284-1.243.553-1.789.366-.494-.17-.816-.682-1.158-1.224-.383-.604-.815-1.289-1.574-1.552-.675-.234-1.362-.047-1.967.117-.125.034-.249.068-.373.099-.54.129-1.26.132-1.513-.294l-.692.41c.477.803 1.548.872 2.395.665.13-.031.262-.068.394-.104.542-.147 1.053-.285 1.492-.133.493.17.816.681 1.158 1.222.382.607.815 1.293 1.577 1.555.842.286 1.658-.072 2.376-.392.275-.122.549-.245.823-.33 1.248-.387 2.736.14 3.464 1.224" mask="url(#k)"/></g><path d="m392.846 83.917c3.877 5.538 2.487 13.202 2.487 13.202s-7.678-1.314-11.555-6.852c-3.877-5.537-2.487-13.201-2.487-13.201s7.677 1.314 11.555 6.851" fill="#82c8b9"/><g fill="#9ad1c6" transform="translate(381 77)"><path d="m-2.861 5.771c.698 0 1.417-.471 1.915-1.061.089-.105.178-.216.266-.326.416-.517.808-1.006 1.341-1.119.38-.08.822.031 1.393.351.123.07.245.143.368.216.396.238.807.483 1.285.615.668.183 1.557.083 2.031-.558.39-.527.338-1.155.292-1.71-.03-.361-.058-.703.027-.989.15-.507.776-.846 1.281-.704l.221-.773c-.934-.266-1.996.316-2.273 1.247-.128.432-.093.865-.058 1.285.04.474.073.882-.136 1.165-.247.334-.78.37-1.172.262-.372-.103-.718-.31-1.085-.53-.129-.077-.258-.154-.388-.227-.473-.264-1.191-.597-1.953-.436-.814.172-1.338.825-1.801 1.401l-.253.312c-.444.526-1.141.965-1.622.689l-.401.697c.231.133.475.193.722.193" mask="url(#l)"/><path d="m-.773 9.371c.757 0 1.516-.295 2.026-.865.239-.267.42-.576.595-.873.278-.473.518-.882.916-1.038.445-.175.992.011 1.573.206.734.247 1.566.528 2.305.039.71-.471.802-1.301.884-2.033.038-.344.075-.668.165-.95.143-.449.498-.838.973-1.069.474-.229.998-.267 1.441-.103l.281-.754c-.645-.241-1.401-.192-2.073.134-.673.326-1.178.89-1.389 1.547-.114.358-.156.738-.197 1.106-.072.638-.133 1.188-.529 1.451-.413.274-.964.086-1.604-.13-.66-.222-1.409-.475-2.125-.192-.655.259-1.005.853-1.314 1.378-.163.276-.316.537-.503.745-.635.713-1.883.804-2.615.191l-.515.619c.477.397 1.09.591 1.705.591" mask="url(#l)"/><path d="m1.798 11.996c.778 0 1.593-.312 2.006-1.029.136-.237.211-.485.284-.726.081-.267.158-.519.307-.684.429-.475 1.381-.17 1.771-.017l.094.037c.745.294 1.67.661 2.507.244.851-.426 1.06-1.346 1.243-2.159.097-.425.188-.828.355-1.163.449-.897 1.721-1.323 2.619-.877l.357-.719c-1.313-.656-3.04-.076-3.696 1.237-.211.422-.317.891-.419 1.345-.165.73-.308 1.361-.819 1.616-.515.26-1.194-.011-1.851-.272l-.095-.038c-1.167-.46-2.114-.38-2.663.226-.271.3-.381.667-.48.992-.062.205-.121.399-.212.557-.334.582-1.176.724-1.798.567-.751-.193-1.42-.739-2.011-1.221l-.509.623c.655.535 1.398 1.14 2.321 1.377.218.056.451.084.689.084" mask="url(#l)"/><path d="m3.072 15.332c1.133 0 2.551-.575 3.02-1.848.045-.124.081-.251.115-.378.052-.193.102-.374.189-.509.244-.376.843-.454 1.329-.368.274.049.538.134.803.218.346.109.703.221 1.086.269.779.101 1.719-.16 2.069-.954.13-.294.146-.597.16-.865.008-.134.013-.269.037-.4.084-.444.427-.84.856-.983s.941-.035 1.275.269l.543-.593c-.551-.504-1.363-.677-2.073-.44-.709.239-1.254.865-1.391 1.6-.031.165-.041.335-.05.505-.011.217-.022.424-.093.583-.174.394-.752.536-1.233.48-.311-.039-.618-.136-.944-.239-.298-.093-.596-.187-.903-.241-.726-.132-1.671-.01-2.145.72-.156.242-.228.504-.291.736-.028.105-.056.21-.093.311-.336.911-1.404 1.323-2.264 1.323h-.022c-.991-.009-1.935-.413-2.977-.899l-.341.73c1.088.507 2.159.963 3.311.973z" mask="url(#l)"/><path d="m2.908 18.759c.259 0 .516-.042.749-.12.718-.239 1.267-.732 1.798-1.208l.149-.133c.514-.457 1.073-.891 1.689-.965.349-.042.725.031 1.121.107.518.101 1.052.204 1.61.069.933-.226 1.532-1.021 1.95-1.69l.169-.275c.344-.562.67-1.095 1.157-1.415.295-.194.701-.268 1.031-.188.149.036.351.122.466.324l.699-.398c-.2-.353-.547-.604-.976-.709-.545-.131-1.181-.016-1.661.298-.639.42-1.027 1.055-1.402 1.668l-.165.268c-.337.539-.808 1.178-1.457 1.335-.385.094-.815.011-1.268-.076-.439-.085-.894-.175-1.371-.116-.835.101-1.515.618-2.127 1.162l-.151.135c-.492.441-.956.858-1.515 1.044-.514.171-1.219.066-1.46-.406l-.716.366c.329.646 1.012.923 1.681.923" mask="url(#l)"/></g><path d="m396.508 115.299c8.7 0 15.753-7.053 15.753-15.753v-8.515h-31.506v8.515c0 8.7 7.053 15.753 15.753 15.753" fill="#f2e4d5"/><g fill="#fff3e5"><path d="m384.193 94.803c0 .576.468 1.044 1.044 1.044.577 0 1.044-.468 1.044-1.044 0-.577-.467-1.044-1.044-1.044-.576 0-1.044.467-1.044 1.044"/><path d="m385.101 98.343c0-.325-.264-.59-.59-.59s-.59.265-.59.59c0 .326.264.591.59.591s.59-.265.59-.591"/><path d="m387.734 96.029c0 .35.284.635.635.635s.636-.285.636-.635c0-.352-.285-.636-.636-.636s-.635.284-.635.636"/><path d="m389.095 110.825c0 .552.448.999.999.999.552 0 .999-.447.999-.999 0-.55-.447-.998-.999-.998-.551 0-.999.448-.999.998"/><path d="m389.368 107.285c0 .251.203.454.454.454.25 0 .454-.203.454-.454s-.204-.454-.454-.454c-.251 0-.454.203-.454.454"/><path d="m387.007 108.647c0-.25-.203-.453-.454-.453-.25 0-.453.203-.453.453 0 .251.203.454.453.454.251 0 .454-.203.454-.454"/><path d="m403.53 95.711c0 .927.752 1.679 1.679 1.679.928 0 1.68-.752 1.68-1.679 0-.928-.752-1.68-1.68-1.68-.927 0-1.679.752-1.679 1.68"/><path d="m402.531 110.145c0 .627-.508 1.135-1.134 1.135-.627 0-1.135-.508-1.135-1.135s.508-1.135 1.135-1.135c.626 0 1.134.508 1.134 1.135"/><path d="m405.164 98.525c0-.376-.305-.681-.681-.681s-.681.305-.681.681.305.68.681.68.681-.304.681-.68"/><path d="m400.534 107.467c0 .401.325.727.726.727s.726-.326.726-.727-.325-.727-.726-.727-.726.326-.726.727"/><path d="m398.355 110.508c0-.326-.264-.59-.59-.59s-.59.264-.59.59.264.59.59.59.59-.264.59-.59"/><path d="m402.531 93.713c0-.325-.264-.59-.59-.59s-.59.265-.59.59c0 .326.264.591.59.591s.59-.265.59-.591"/><path d="m406.344 105.107c0 .601-.488 1.089-1.089 1.089-.602 0-1.09-.488-1.09-1.089 0-.602.488-1.09 1.09-1.09.601 0 1.089.488 1.089 1.09"/><path d="m392.908 101.793c0 .175.142.318.318.318.175 0 .318-.143.318-.318 0-.176-.143-.317-.318-.317-.176 0-.318.141-.318.317"/><path d="m391.002 102.066c0-.477-.386-.863-.863-.863-.476 0-.862.386-.862.863 0 .475.386.862.862.862.477 0 .863-.387.863-.862"/><path d="m395.269 94.985c0 .376.304.68.68.68.377 0 .681-.304.681-.68s-.304-.681-.681-.681c-.376 0-.68.305-.68.681"/><path d="m396.721 104.426c0-.276-.223-.5-.499-.5s-.499.224-.499.5c0 .275.223.499.499.499s.499-.224.499-.499"/><path d="m383.104 104.38c0 .251.203.454.454.454.25 0 .454-.203.454-.454 0-.25-.204-.454-.454-.454-.251 0-.454.204-.454.454"/><path d="m406.088 99.546v-8.515h6.173v8.515c0 8.7-7.053 15.753-15.753 15.753-1.057 0-2.088-.108-3.087-.307 7.222-1.435 12.667-7.802 12.667-15.446"/></g><path d="m24.15 150.531h33.165v-1.793c0-4.357-3.532-7.889-7.888-7.889h-17.389c-4.357 0-7.888 3.532-7.888 7.889z" fill="#f2e4d5"/><path d="m24.15 150.531h33.165v-1.793c0-4.357-3.532-7.889-7.888-7.889h-17.389c-4.357 0-7.888 3.532-7.888 7.889z" fill="#464644"/><path d="m43.869 140.849h5.558c4.356 0 7.888 3.532 7.888 7.889v1.793h-5.558v-1.793c0-4.357-3.531-7.889-7.888-7.889" fill="#747470"/><g transform="translate(38)"><path d="m2.893 142.615c1.519 0 2.752-1.231 2.752-2.751v-116.859c0-9.549 7.769-17.317 17.317-17.317s17.316 7.768 17.316 17.317v4.473c0 1.52 1.233 2.752 2.753 2.752 1.519 0 2.752-1.232 2.752-2.752v-4.473c0-12.584-10.237-22.822-22.821-22.822s-22.821 10.238-22.821 22.822v116.859c0 1.52 1.232 2.751 2.752 2.751" fill="#464644" mask="url(#m)"/><g fill="#52524f"><path d="m37.373 28.395h11.316c.507 0 .917-.411.917-.918 0-.506-.41-.917-.917-.917h-11.316c-.507 0-.917.411-.917.917 0 .507.41.918.917.918" mask="url(#m)"/><path d="m37.373 24.395h11.316c.507 0 .917-.411.917-.918s-.41-.917-.917-.917h-11.316c-.507 0-.917.41-.917.917s.41.918.917.918" mask="url(#m)"/><path d="m37.136 21.308.166-.015 11.131-2.035c.499-.091.829-.569.738-1.067-.091-.499-.571-.824-1.067-.738l-11.132 2.034c-.498.092-.828.57-.737 1.068.081.443.467.753.901.753" mask="url(#m)"/><path d="m36.339 18.548c.115 0 .23-.021.342-.067l10.498-4.223c.471-.189.698-.724.509-1.193-.19-.472-.726-.698-1.193-.51l-10.498 4.224c-.471.189-.698.724-.509 1.193.144.358.488.576.851.576" mask="url(#m)"/><path d="m35.032 16.042c.172 0 .347-.048.502-.15l9.465-6.198c.424-.278.542-.847.266-1.27-.279-.423-.846-.543-1.271-.265l-9.466 6.198c-.423.278-.542.846-.265 1.27.177.269.47.415.769.415" mask="url(#m)"/><path d="m33.269 13.85c.231 0 .463-.087.641-.261l8.093-7.909c.361-.355.369-.936.014-1.298-.353-.361-.936-.368-1.298-.015l-8.092 7.91c-.362.354-.369.935-.014 1.297.179.184.417.276.656.276" mask="url(#m)"/><path d="m31.118 12.039c.292 0 .578-.139.757-.397l6.415-9.321c.286-.417.18-.989-.236-1.276-.42-.287-.989-.181-1.277.236l-6.415 9.32c-.286.418-.181.989.236 1.277.159.109.341.161.52.161" mask="url(#m)"/><path d="m28.647 10.674c.355 0 .693-.208.843-.555l4.469-10.395c.199-.466-.016-1.005-.481-1.206-.462-.199-1.005.016-1.205.481l-4.47 10.395c-.199.466.016 1.006.482 1.205.117.052.241.075.362.075" mask="url(#m)"/><path d="m25.915 9.812c.425 0 .807-.297.898-.73l2.301-11.079c.103-.496-.215-.982-.712-1.085-.493-.104-.981.216-1.085.712l-2.302 11.078c-.103.496.217.982.713 1.085z" mask="url(#m)"/><path d="m22.962 9.511c.507 0 .918-.411.918-.917v-11.315c0-.507-.411-.918-.918-.918s-.917.411-.917.918v11.315c0 .506.41.917.917.917" mask="url(#m)"/><path d="m-2.688 28.395h11.315c.507 0 .917-.411.917-.918 0-.506-.41-.917-.917-.917h-11.315c-.507 0-.917.411-.917.917 0 .507.41.918.917.918" mask="url(#m)"/><path d="m-2.688 24.395h11.315c.507 0 .917-.411.917-.918s-.41-.917-.917-.917h-11.315c-.507 0-.917.41-.917.917s.41.918.917.918" mask="url(#m)"/><path d="m8.863 21.308c.435 0 .821-.31.902-.753.091-.498-.239-.976-.738-1.068l-11.131-2.034c-.5-.086-.976.24-1.067.738s.239.976.738 1.067l11.131 2.035z" mask="url(#m)"/><path d="m9.661 18.548c.363 0 .707-.218.851-.576.189-.469-.039-1.004-.509-1.193l-10.497-4.224c-.466-.188-1.003.038-1.193.51-.189.469.038 1.004.509 1.193l10.496 4.223c.113.046.228.067.343.067" mask="url(#m)"/><path d="m10.969 16.042c.299 0 .592-.146.768-.415.277-.424.159-.992-.265-1.27l-9.466-6.198c-.424-.279-.993-.159-1.271.265-.276.423-.158.992.266 1.27l9.466 6.198c.155.102.33.15.502.15" mask="url(#m)"/><path d="m12.731 13.85c.238 0 .477-.092.656-.276.355-.362.347-.943-.014-1.297l-8.093-7.91c-.361-.353-.944-.346-1.297.015-.354.362-.348.943.015 1.298l8.091 7.909c.179.174.411.261.642.261" mask="url(#m)"/><path d="m14.882 12.039c.18 0 .36-.052.52-.161.416-.288.522-.859.235-1.277l-6.414-9.32c-.288-.417-.858-.523-1.277-.236-.417.287-.523.859-.236 1.276l6.415 9.321c.178.258.465.397.757.397" mask="url(#m)"/><path d="m17.353 10.674c.121 0 .245-.023.362-.075.466-.199.681-.739.481-1.205l-4.468-10.395c-.201-.465-.744-.68-1.205-.481-.467.201-.682.74-.482 1.206l4.469 10.395c.15.347.489.555.843.555" mask="url(#m)"/><path d="m20.085 9.812.187-.019c.497-.103.816-.589.712-1.085l-2.301-11.078c-.104-.496-.589-.816-1.085-.712-.496.103-.815.589-.713 1.085l2.302 11.079c.091.433.472.73.898.73" mask="url(#m)"/><path d="m23.038 9.511c.507 0 .918-.411.918-.917v-11.315c0-.507-.411-.918-.918-.918s-.917.411-.917.918v11.315c0 .506.41.917.917.917" mask="url(#m)"/><path d="m-2.688 32.34h11.315c.507 0 .917-.411.917-.918 0-.506-.41-.917-.917-.917h-11.315c-.507 0-.917.411-.917.917 0 .507.41.918.917.918" mask="url(#m)"/><path d="m-2.688 36.29h11.315c.507 0 .917-.41.917-.917s-.41-.918-.917-.918h-11.315c-.507 0-.917.411-.917.918s.41.917.917.917" mask="url(#m)"/><path d="m-2.688 40.24h11.315c.507 0 .917-.41.917-.917 0-.506-.41-.917-.917-.917h-11.315c-.507 0-.917.411-.917.917 0 .507.41.917.917.917" mask="url(#m)"/><path d="m-2.688 44.192h11.315c.507 0 .917-.411.917-.918s-.41-.918-.917-.918h-11.315c-.507 0-.917.411-.917.918s.41.918.917.918" mask="url(#m)"/><path d="m-2.688 48.142h11.315c.507 0 .917-.411.917-.917 0-.507-.41-.918-.917-.918h-11.315c-.507 0-.917.411-.917.918 0 .506.41.917.917.917" mask="url(#m)"/><path d="m-2.688 52.092h11.315c.507 0 .917-.411.917-.917 0-.507-.41-.918-.917-.918h-11.315c-.507 0-.917.411-.917.918 0 .506.41.917.917.917" mask="url(#m)"/><path d="m-2.688 56.042h11.315c.507 0 .917-.41.917-.917s-.41-.918-.917-.918h-11.315c-.507 0-.917.411-.917.918s.41.917.917.917" mask="url(#m)"/><path d="m-2.688 59.992h11.315c.507 0 .917-.41.917-.917 0-.506-.41-.917-.917-.917h-11.315c-.507 0-.917.411-.917.917 0 .507.41.917.917.917" mask="url(#m)"/><path d="m-2.688 63.944h11.315c.507 0 .917-.412.917-.918s-.41-.917-.917-.917h-11.315c-.507 0-.917.411-.917.917s.41.918.917.918" mask="url(#m)"/><path d="m-2.688 67.894h11.315c.507 0 .917-.411.917-.918 0-.506-.41-.917-.917-.917h-11.315c-.507 0-.917.411-.917.917 0 .507.41.918.917.918" mask="url(#m)"/><path d="m-2.688 71.844h11.315c.507 0 .917-.41.917-.917s-.41-.918-.917-.918h-11.315c-.507 0-.917.411-.917.918s.41.917.917.917" mask="url(#m)"/><path d="m-2.688 75.794h11.315c.507 0 .917-.41.917-.917s-.41-.918-.917-.918h-11.315c-.507 0-.917.411-.917.918s.41.917.917.917" mask="url(#m)"/><path d="m-2.688 79.745h11.315c.507 0 .917-.411.917-.918 0-.506-.41-.917-.917-.917h-11.315c-.507 0-.917.411-.917.917 0 .507.41.918.917.918" mask="url(#m)"/><path d="m-2.688 83.696h11.315c.507 0 .917-.412.917-.918s-.41-.917-.917-.917h-11.315c-.507 0-.917.411-.917.917s.41.918.917.918" mask="url(#m)"/><path d="m-2.688 87.646h11.315c.507 0 .917-.41.917-.917s-.41-.918-.917-.918h-11.315c-.507 0-.917.411-.917.918s.41.917.917.917" mask="url(#m)"/><path d="m-2.688 91.596h11.315c.507 0 .917-.41.917-.917s-.41-.918-.917-.918h-11.315c-.507 0-.917.411-.917.918s.41.917.917.917" mask="url(#m)"/><path d="m-2.688 95.547h11.315c.507 0 .917-.411.917-.918s-.41-.917-.917-.917h-11.315c-.507 0-.917.41-.917.917s.41.918.917.918" mask="url(#m)"/><path d="m-2.688 99.497h11.315c.507 0 .917-.41.917-.917s-.41-.918-.917-.918h-11.315c-.507 0-.917.411-.917.918s.41.917.917.917" mask="url(#m)"/><path d="m-2.688 103.447h11.315c.507 0 .917-.411.917-.916 0-.507-.41-.918-.917-.918h-11.315c-.507 0-.917.411-.917.918 0 .505.41.916.917.916" mask="url(#m)"/><path d="m-2.688 107.399h11.315c.507 0 .917-.411.917-.918s-.41-.917-.917-.917h-11.315c-.507 0-.917.41-.917.917s.41.918.917.918" mask="url(#m)"/><path d="m-2.688 111.349h11.315c.507 0 .917-.411.917-.918s-.41-.917-.917-.917h-11.315c-.507 0-.917.41-.917.917s.41.918.917.918" mask="url(#m)"/><path d="m-2.688 115.299h11.315c.507 0 .917-.411.917-.917 0-.507-.41-.918-.917-.918h-11.315c-.507 0-.917.411-.917.918 0 .506.41.917.917.917" mask="url(#m)"/><path d="m-2.688 119.249h11.315c.507 0 .917-.411.917-.917 0-.507-.41-.918-.917-.918h-11.315c-.507 0-.917.411-.917.918 0 .506.41.917.917.917" mask="url(#m)"/><path d="m-2.688 123.2h11.315c.507 0 .917-.411.917-.918 0-.506-.41-.917-.917-.917h-11.315c-.507 0-.917.411-.917.917 0 .507.41.918.917.918" mask="url(#m)"/><path d="m-2.688 127.15h11.315c.507 0 .917-.411.917-.917 0-.507-.41-.917-.917-.917h-11.315c-.507 0-.917.41-.917.917 0 .506.41.917.917.917" mask="url(#m)"/><path d="m-2.688 131.101h11.315c.507 0 .917-.411.917-.918 0-.506-.41-.917-.917-.917h-11.315c-.507 0-.917.411-.917.917 0 .507.41.918.917.918" mask="url(#m)"/><path d="m-2.688 135.051h11.315c.507 0 .917-.411.917-.917 0-.507-.41-.918-.917-.918h-11.315c-.507 0-.917.411-.917.918 0 .506.41.917.917.917" mask="url(#m)"/><path d="m-2.688 139.001h11.315c.507 0 .917-.41.917-.917s-.41-.917-.917-.917h-11.315c-.507 0-.917.41-.917.917s.41.917.917.917" mask="url(#m)"/></g></g><path d="m72.168 36.845c0 4.979 4.037 9.016 9.016 9.016s9.016-4.037 9.016-9.016-4.037-9.016-9.016-9.016-9.016 4.037-9.016 9.016" fill="#fff3e5"/><path d="m78.579 40.001c0 2.351 1.906 4.257 4.258 4.257 2.351 0 4.257-1.906 4.257-4.257 0-2.352-1.906-4.258-4.257-4.258-2.352 0-4.258 1.906-4.258 4.258" fill="#fffcf8"/><path d="m81.184 15.092c8.069 0 14.61 6.541 14.61 14.609v7.898h-29.22v-7.898c0-8.068 6.541-14.609 14.61-14.609" fill="#464644"/><path d="m90.068 29.701v7.898h5.726v-7.898c0-8.068-6.541-14.609-14.61-14.609-.98 0-1.937.1-2.863.284 6.698 1.331 11.747 7.237 11.747 14.325" fill="#747470"/><path d="m4.962 159.552h438.076c2.491 0 4.51-2.02 4.51-4.511s-2.019-4.51-4.51-4.51h-438.076c-2.491 0-4.51 2.019-4.51 4.51s2.019 4.511 4.51 4.511" fill="#c3703c"/><g fill="#b16738" transform="translate(0 150)"><path d="m448.671 10.076.83-.392c-2.805-5.928-10.074-7.941-15.435-7.837-3.591.059-7.152.794-10.597 1.504-2.289.472-4.656.96-6.999 1.242-13.69 1.651-26.47-3.671-34.784-8.423l-.455.797c8.435 4.82 21.414 10.211 35.348 8.537 2.382-.287 4.768-.779 7.075-1.255 3.403-.702 6.922-1.427 10.427-1.485 5.072-.098 11.972 1.779 14.59 7.312" mask="url(#n)"/><path d="m410.639 15.412c6.175-5.036 11.595-7.898 17.058-9.008 6.865-1.398 13.711.38 17.861 4.638l.657-.64c-4.366-4.479-11.533-6.354-18.701-4.897-5.614 1.141-11.16 4.064-17.455 9.196z" mask="url(#n)"/><path d="m413.081 3.273c.098 0 .195-.002.294-.003 4.642-.083 9.197-2.253 12.186-5.806l-.702-.591c-2.82 3.353-7.12 5.402-11.5 5.48-4.298.058-8.388-1.634-12.361-3.287-1.76-.733-3.578-1.49-5.404-2.091l-.287.871c1.792.591 3.595 1.341 5.338 2.066 3.971 1.653 8.075 3.361 12.436 3.361" mask="url(#n)"/><path d="m401.911 14.593 6.949-3.937c.501-.284 1.435-.813 1.564-1.771.062-.466-.067-.899-.375-1.252-.641-.734-1.943-1-2.949-1.003-11.913-.039-23.773-3.928-33.396-10.95l-.541.741c9.778 7.136 21.829 11.087 33.934 11.127.98.003 1.909.285 2.261.688.134.155.185.322.157.527-.06.444-.568.789-1.107 1.095l-6.949 3.936z" mask="url(#n)"/><path d="m366.379 13.717c2.938-2.006 5.976-4.08 9.277-5.512 3.642-1.582 7.224-2.152 10.36-1.648 3.67.589 6.856 2.766 8.316 5.683l.82-.41c-1.589-3.177-5.034-5.545-8.991-6.179-3.305-.531-7.067.06-10.87 1.713-3.381 1.466-6.456 3.565-9.429 5.595z" mask="url(#n)"/><path d="m374.106 5.219c.183 0 .368-.012.554-.036.855-.113 1.702-.611 2.211-1.3.41-.554.579-1.2.476-1.82-.141-.853-.728-1.497-1.284-2.014-1.189-1.109-2.545-2.013-4.029-2.685l-.379.836c1.393.631 2.666 1.479 3.783 2.52.442.412.908.912 1.005 1.493.079.478-.125.875-.31 1.125-.366.494-.977.854-1.593.936-1.183.157-2.387-.378-3.426-.891-3.569-1.759-6.897-3.979-9.891-6.601l-.604.69c3.054 2.675 6.449 4.94 10.089 6.734 1.01.498 2.169 1.013 3.398 1.013" mask="url(#n)"/></g><path d="m4.578 159.552h363.768c2.279 0 4.126-1.848 4.126-4.126v-.77c0-2.279-1.847-4.125-4.126-4.125h-363.768c-2.279 0-4.126 1.846-4.126 4.125v.77c0 2.278 1.847 4.126 4.126 4.126" fill="#d37f4a"/><g fill="#ca723e" transform="translate(0 150)"><path d="m362.666 4.32c.176 0 .351-.001.527-.003 2.379-.025 5.132-.217 7.508-1.465 2.151-1.13 4.253-3.545 4.102-6.396l-.917.048c.13 2.445-1.72 4.542-3.611 5.536-2.204 1.157-4.821 1.336-7.091 1.36-10.498.088-21.135-3.039-29.896-8.857l-.507.764c8.766 5.821 19.359 9.013 29.885 9.013" mask="url(#o)"/><path d="m362.725 6.878c4.987 0 11.206-.918 16.441-4.508l-.518-.756c-6 4.113-13.382 4.591-18.519 4.264-5.391-.342-10.764-1.628-15.962-2.871-1.086-.26-2.173-.519-3.26-.771-17.038-3.948-34.544-5.949-52.03-5.949-.093 0-.182 0-.274 0l.001.917h.273c17.418 0 34.852 1.993 51.823 5.925 1.085.251 2.169.511 3.254.771 5.235 1.252 10.648 2.547 16.116 2.893.832.053 1.722.085 2.655.085" mask="url(#o)"/><path d="m359.583 13.632.366-.841c-15.183-6.611-31.266-10.417-47.802-11.312-6.109-.329-12.321-.254-18.329-.181-5.925.073-12.054.149-18.063-.168-14.472-.762-25.74-3.879-34.448-9.529l-.499.77c8.846 5.741 20.262 8.905 34.899 9.675 6.04.318 12.183.241 18.123.17 5.992-.073 12.189-.149 18.267.18 16.427.888 32.403 4.669 47.486 11.236" mask="url(#o)"/><path d="m337.376 11.882.388-.832c-13.381-6.257-28.674-6.862-39.027-6.775-4.937.042-9.952.261-14.802.474-8.165.358-16.608.729-24.89.256-15.393-.878-27.896-4.776-37.163-11.587l-.544.739c9.413 6.917 22.082 10.875 37.654 11.764 8.328.474 16.796.103 24.983-.256 4.843-.212 9.849-.431 14.77-.473 10.256-.087 25.418.511 38.631 6.69" mask="url(#o)"/><path d="m320.147 12.544.321-.859c-18.032-6.737-32.41-6.984-43.951-.75l.436.807c11.295-6.099 25.424-5.836 43.194.802" mask="url(#o)"/><path d="m276.148 13.708.506-.764c-7.704-5.104-17.183-6.205-26.349-7.268l-1.565-.183c-9.13-1.074-19.471-2.764-26.642-9.261l-.616.68c7.372 6.679 17.879 8.402 27.15 9.493l1.567.182c9.059 1.051 18.427 2.139 25.949 7.121" mask="url(#o)"/><path d="m220.11 16.054.585-.706c-8.55-7.094-19.794-10.52-30.851-9.414-1.043.106-2.037.207-2.8-.219-.388-.217-.684-.69-.718-1.152-.016-.206.017-.491.26-.677.24-.186.607-.23 1.027-.266 23.798-2.012 48.312 1.043 70.889 8.839l.3-.867c-22.697-7.838-47.345-10.911-71.266-8.886-.438.037-1.036.088-1.51.452-.442.341-.66.864-.615 1.472.056.765.533 1.523 1.187 1.887 1.01.564 2.199.445 3.254.339 10.903-1.091 21.896 2.261 30.258 9.198" mask="url(#o)"/><path d="m233.272 15.265.295-.868-18.516-6.284c-.732-.249-1.588-.618-1.711-1.268-.105-.557.41-1.113.948-1.31.627-.229 1.35-.16 2.16-.054 9.609 1.243 19.15 3.398 28.359 6.403l.285-.872c-9.264-3.023-18.861-5.19-28.525-6.441-.937-.122-1.777-.197-2.594.102-.896.327-1.739 1.26-1.535 2.343.212 1.116 1.35 1.637 2.318 1.965z" mask="url(#o)"/><path d="m151.694 15.084c17.015-7.388 36.961-8.558 54.724-3.21l.264-.878c-17.969-5.409-38.144-4.225-55.354 3.246z" mask="url(#o)"/><path d="m162.001 7.038c.126 0 .248 0 .373-.001 7.664-.02 17.29-.84 23.752-7.041l-.636-.662c-6.226 5.976-15.626 6.766-23.119 6.786-21.085.095-41.883-4.853-62.019-9.601l-.211.893c20.068 4.733 40.819 9.626 61.86 9.626" mask="url(#o)"/><path d="m160.242 3.906c6.933 0 14.428-1.522 19.914-6.688l-.629-.668c-7.495 7.057-18.985 7.058-27.313 5.814-3.14-.47-6.322-1.135-9.398-1.778-6.396-1.336-13.017-2.717-19.652-2.435l.039.917c6.53-.273 13.084 1.092 19.425 2.417 3.089.645 6.284 1.312 9.451 1.785 2.5.374 5.284.636 8.163.636" mask="url(#o)"/><path d="m86.583 15.491c1.042-6.09 6.682-10.277 11.808-11.724 6.035-1.703 12.615-.695 17.671.373 8.03 1.697 15.885 4.292 23.346 7.711l.383-.834c-7.523-3.447-15.443-6.064-23.538-7.775-5.159-1.09-11.882-2.117-18.111-.358-5.404 1.525-11.354 5.967-12.463 12.453z" mask="url(#o)"/><path d="m90.979 14.243c3.149-6.254 10.816-8.756 17.027-8.465 6.881.324 13.534 3.382 19.404 6.082l.383-.834c-5.945-2.734-12.685-5.832-19.744-6.164-6.502-.31-14.554 2.346-17.891 8.969z" mask="url(#o)"/><path d="m97.481 14.07c1.735-3.424 5.173-5.886 8.972-6.426 3.799-.538 7.787.866 10.407 3.671l.671-.626c-2.822-3.021-7.12-4.534-11.207-3.953-4.091.581-7.793 3.233-9.661 6.92z" mask="url(#o)"/><path d="m76.212 8.455c1.702 0 3.32-.223 4.847-.672 5.906-1.734 10.248-6.776 13.738-10.829l-.696-.597c-3.409 3.96-7.654 8.888-13.3 10.546-4.303 1.262-9.394.641-15.141-1.848-6.557-2.84-12.432-7.249-16.99-12.749l-.706.585c4.649 5.612 10.643 10.109 17.332 13.006 3.935 1.704 7.587 2.558 10.916 2.558" mask="url(#o)"/><path d="m76.576 4.681c.69 0 1.392-.046 2.103-.148 4.532-.643 8.428-3.675 9.693-7.544l-.871-.286c-1.161 3.545-4.757 6.327-8.951 6.922-4.587.652-8.827-1.124-11.582-2.727-3.558-2.07-6.629-4.93-9.599-7.696l-.626.671c3.008 2.801 6.117 5.696 9.763 7.818 2.458 1.43 6.06 2.99 10.07 2.99" mask="url(#o)"/><path d="m74.974 14.491.205-.002-.015-.917c-4.698.077-8.5-2.604-12.571-5.442-2.577-1.796-5.243-3.654-8.156-4.776-5.407-2.082-11.341-1.539-17.079-1.015l-.767.07c-7.547.682-16.42 1.203-25.032-.12-9.047-1.388-16.88-4.734-22.651-9.674l-.597.697c5.901 5.052 13.892 8.469 23.108 9.885 8.712 1.334 17.655.813 25.254.125l.769-.07c5.633-.515 11.459-1.048 16.666.958 2.809 1.082 5.428 2.907 7.96 4.673 3.957 2.758 8.047 5.608 12.906 5.608" mask="url(#o)"/><path d="m60.122 14.077.798-.453c-2.736-4.805-8.214-8.164-15.029-9.213-5.379-.825-10.884-.228-16.21.349l-1.676.181c-13.117 1.384-28.268 1.952-41.2-4.35l-.404.824c13.141 6.405 28.452 5.838 41.7 4.438l1.68-.181c5.266-.572 10.712-1.163 15.971-.353 6.536 1.005 11.773 4.198 14.37 8.758" mask="url(#o)"/><path d="m6.942 14.716c2.299-.651 4.617-1.383 6.858-2.091 5.09-1.606 10.351-3.267 15.692-4.071 8.796-1.323 16.662.128 22.15 4.088l.535-.744c-5.68-4.101-13.785-5.609-22.822-4.251-5.411.814-10.708 2.487-15.831 4.104-2.234.705-4.545 1.435-6.832 2.082z" mask="url(#o)"/></g><path d="m371.231 128.619h51.039c2.846 0 5.153 2.245 5.153 5.014 0 2.77-2.307 5.014-5.153 5.014h-51.039z" fill="#62625f"/><path d="m422.27 128.619h-52.665c-.361 0-.654-.293-.654-.654 0-.36.293-.653.654-.653h53.199c3.491 0 6.321 2.83 6.321 6.321s-2.83 6.321-6.321 6.321h-53.199c-.361 0-.654-.293-.654-.653 0-.361.293-.654.654-.654h52.665c2.846 0 5.153-2.244 5.153-5.014 0-2.769-2.307-5.014-5.153-5.014" fill="#747470"/><path d="m371.018 128.619h49.615c2.758 0 5.173 2.124 5.245 4.881.072 2.83-2.2 5.147-5.013 5.147h-49.847z" fill="#fff3e5"/><path d="m387.72 128.619c2.758 0 5.173 2.124 5.244 4.881.073 2.83-2.199 5.147-5.012 5.147h-16.934v-10.028z" fill="#f2e3d5"/><g transform="translate(371 128)"><path d="m54.2 3.171h-32.913c-.155-.259-.333-.503-.531-.729h32.913c.198.226.376.47.531.729" fill="#f4dfcb" mask="url(#p)"/><path d="m21.287 3.171h-21.269v-.729h20.738c.198.226.376.47.531.729" fill="#e6d2c0" mask="url(#p)"/><path d="m54.866 5.997h-32.913c.012-.163.016-.329.011-.497-.002-.078-.005-.155-.011-.232h32.913c.006.077.01.154.012.232.001.044.001.088.001.132 0 .123-.004.245-.013.365" fill="#f4dfcb" mask="url(#p)"/><path d="m21.953 5.997h-21.935v-.729h21.935c.006.077.009.154.011.232.005.168.001.334-.011.497" fill="#e6d2c0" mask="url(#p)"/><path d="m53.733 8.823h-32.913c.188-.227.356-.471.501-.729h32.914c-.146.258-.314.502-.502.729" fill="#f4dfcb" mask="url(#p)"/><path d="m20.82 8.823h-20.802v-.729h21.303c-.145.258-.313.502-.501.729" fill="#e6d2c0" mask="url(#p)"/></g><path d="m419.753 149.437h-42.697c-2.381 0-4.31-1.878-4.31-4.195s1.929-4.194 4.31-4.194h42.697z" fill="#c34748"/><path d="m377.056 149.437h44.056c.303 0 .547.244.547.547 0 .301-.244.547-.547.547h-44.502c-2.92 0-5.288-2.369-5.288-5.289 0-2.921 2.368-5.288 5.288-5.288h44.502c.303 0 .547.244.547.547 0 .302-.244.547-.547.547h-44.056c-2.381 0-4.31 1.877-4.31 4.194s1.929 4.195 4.31 4.195" fill="#e05959"/><path d="m419.93 149.437h-41.504c-2.307 0-4.328-1.778-4.387-4.084-.061-2.367 1.839-4.305 4.193-4.305h41.698z" fill="#f2e3d5"/><path d="m405.959 149.437c-2.307 0-4.328-1.778-4.388-4.084-.061-2.367 1.84-4.305 4.194-4.305h14.165v8.389z" fill="#fff3e5"/><g transform="translate(374 141)"><path d="m28.582 6.911h-27.533c-.166-.189-.315-.393-.444-.61h27.533c.129.217.278.421.444.61" fill="#e6d2c0" mask="url(#q)"/><path d="m45.93 6.911h-17.348c-.166-.189-.315-.393-.444-.61h17.792z" fill="#f4dfcb" mask="url(#q)"/><path d="m27.581 4.547h-27.533c-.004-.064-.008-.129-.009-.194-.001-.037-.002-.074-.002-.111 0-.103.004-.204.011-.305h27.533c-.01.137-.013.275-.01.416.002.065.005.13.01.194" fill="#e6d2c0" mask="url(#q)"/><path d="m45.93 4.547h-18.349c-.005-.064-.008-.129-.01-.194-.003-.141 0-.279.01-.416h18.349z" fill="#f4dfcb" mask="url(#q)"/><path d="m28.109 2.183h-27.532c.122-.216.262-.42.419-.611h27.533c-.157.191-.298.395-.42.611" fill="#e6d2c0" mask="url(#q)"/><path d="m45.93 2.183h-17.821c.122-.216.263-.42.42-.611h17.401z" fill="#f4dfcb" mask="url(#q)"/></g><path d="m374.126 116.541h40.007c2.704 0 4.896 2.133 4.896 4.764 0 2.632-2.192 4.765-4.896 4.765h-40.007z" fill="#abcd4c"/><path d="m414.133 116.541h-41.552c-.343 0-.621-.278-.621-.621s.278-.621.621-.621h42.059c3.317 0 6.006 2.69 6.006 6.006 0 3.317-2.689 6.007-6.006 6.007h-42.059c-.343 0-.621-.279-.621-.621 0-.343.278-.621.621-.621h41.552c2.704 0 4.896-2.133 4.896-4.765 0-2.631-2.192-4.764-4.896-4.764" fill="#abcd4c"/><path d="m373.924 116.541h38.653c2.62 0 4.916 2.019 4.983 4.639.07 2.688-2.089 4.89-4.763 4.89h-38.873z" fill="#fff3e5"/><path d="m381.303 116.541c2.621 0 4.916 2.019 4.984 4.639.069 2.688-2.09 4.89-4.762 4.89h-7.601v-9.529z" fill="#f2e3d5"/><g transform="translate(373 116)"><path d="m43.917 2.967h-31.274c-.146-.246-.315-.478-.504-.693h31.274c.188.215.357.447.504.693" fill="#f4dfcb" mask="url(#r)"/><path d="m12.643 2.967h-11.719v-.693h11.215c.189.215.358.447.504.693" fill="#e6d2c0" mask="url(#r)"/><path d="m44.549 5.652h-31.273c.012-.156.015-.313.011-.472-.002-.074-.006-.148-.011-.222h31.273c.006.074.009.148.011.222.001.042.002.084.002.126 0 .116-.004.231-.013.346" fill="#f4dfcb" mask="url(#r)"/><path d="m13.276 5.652h-12.352v-.694h12.352c.005.074.009.148.011.222.004.159.001.316-.011.472" fill="#e6d2c0" mask="url(#r)"/><path d="m43.472 8.338h-31.273c.178-.216.339-.449.477-.694h31.274c-.139.245-.299.478-.478.694" fill="#f4dfcb" mask="url(#r)"/><path d="m12.199 8.338h-11.275v-.694h11.752c-.138.245-.299.478-.477.694" fill="#e6d2c0" mask="url(#r)"/></g></g></g></svg>