<svg height="500" viewBox="0 0 517 500" width="517" xmlns="http://www.w3.org/2000/svg"><g fill="none" fill-rule="evenodd"><path d="m0 0h517v500h-517z" fill="#fff"/><g transform="translate(30 50)"><path d="m458 393.997015c0 3.868657-3.206499 7.002985-7.171787 7.002985h-443.65459c-3.96222886 0-7.173623-3.134328-7.173623-7.002985 0-3.862687 3.21139414-6.997015 7.173623-6.997015h443.65459c3.965288 0 7.171787 3.134328 7.171787 6.997015" fill="#f6f6f4"/><path d="m73.6861423 340-4.6861423-4.687898v-6.630199l4.6861423-4.681903h6.6277154l4.6861423 4.681903v6.630199l-4.6861423 4.687898z" fill="#92938f"/><path d="m66.6861423 327-4.6861423-4.682254v-6.630696l4.6861423-4.68705h6.6277154l4.6861423 4.68705v6.630696l-4.6861423 4.682254z" fill="#dce0db"/><path d="m16.6861724 393-4.6861724-4.681903v-6.630199l4.6861724-4.687898h6.6276552l4.6861724 4.687898v6.630199l-4.6861724 4.681903z" fill="#b9b9b4"/><path d="m45.2747253 342-5.2747253-5.268731v-7.456544l5.2747253-5.274725h7.4565434l5.2687313 5.274725v7.456544l-5.2687313 5.268731z" fill="#dce0db"/><path d="m52.2747253 333-5.2747253-5.268731v-7.456544l5.2747253-5.274725h7.4565434l5.2687313 5.274725v7.456544l-5.2687313 5.268731z" fill="#b9b9b4"/><path d="m66.2687313 342-5.2687313-5.274725v-7.456544l5.2687313-5.268731h7.4565434l5.2747253 5.268731v7.456544l-5.2747253 5.274725z" fill="#c5e5e6"/><path d="m85 336h-50v13.458418h2.8478171v43.541582h44.3067926v-43.541582h2.8453903z" fill="#b9b9b4"/><path d="m37 354h45v-5h-45z" fill="#92938f"/><path d="m247.30275 142v36.80507c0 16.263591-13.222295 29.493915-29.48314 29.493915h-27.81961v17.701015h27.81961c26.014896 0 47.18039-21.171466 47.18039-47.19493 0-14.870376-6.918072-28.147979-17.69725-36.80507" fill="#8ec5cc"/><path d="m183.766136 207h-5.532272c-10.621961 0-19.233864 8.506584-19.233864 19h44c0-10.493416-8.611903-19-19.233864-19" fill="#efaf91"/><path d="m238.968442 393h-.042413c-1.157284 0-2.1025-.93686-2.126736-2.106404l-2.799293-136.810932 4.011108-.082664 1.411765 69.666247c.084827 4.176068 6.113608 4.512848 6.658925.379642l7.943448-60.101091 3.974754.536398-16.91694 126.657331c-.145418 1.065448-1.04822 1.861473-2.114618 1.861473" fill="#cfcec9"/><path d="m318.71846 391.236499-22.71846-126.668965 3.981838-.709074 10.504234 59.244446c.769496 4.32915 7.139215 3.698453 7.047608-.691929l-1.392422-68.328313 4.036802-.082664 2.821486 136.813994c.024429 1.20016-.940495 2.186006-2.137489 2.186006h-.04275c-1.032102 0-1.917634-.740915-2.100847-1.763501" fill="#cfcec9"/><path d="m283.659485 153v35.413476c0 33.497868-27.327199 60.652222-61.039946 60.652222h-.619539c11.182376 20.354338 32.995063 34.118932 58.021993 33.93243 36.037552-.268783 64.978007-29.257076 64.978007-65.065498 0-34.551665-27.106373-62.807968-61.340515-64.93263" fill="#dd432e"/><path d="m188.296747 212.742661-.07874.026945c-2.101752.744668-4.403383-.375396-5.13627-2.501005l-15.081737-43.546522 7.692291-2.722079 15.081737 43.54591c.732888 2.126222-.375529 4.452696-2.477281 5.196751" fill="#424851"/><path d="m198.888218 390-14.888218-5.494773 7.111782-19.505227 14.888218 5.494773z" fill="#efaf91"/><path d="m161.888218 389-14.888218-5.488694 7.111782-19.511306 14.888218 5.494773z" fill="#efaf91"/><path d="m399.592754 247h-16.185508l-32.249319 138.685126c-.870123 3.742777 1.965383 7.314874 5.798793 7.314874h.121695c2.768574 0 5.172061-1.907963 5.798793-4.60837l22.586693-97.119577c1.49077-6.401733 10.587512-6.401733 12.072198 0l22.586693 97.119577c.632817 2.700407 3.030219 4.60837 5.798793 4.60837h.121695c3.83341 0 6.668916-3.572097 5.798793-7.314874z" fill="#796547"/><path d="m398.207519 238h-12.415038l-1.792481 8h16z" fill="#59432c"/><path d="m419.612261 239h-65.612261v-13h65.612261c3.531034 0 6.387739 2.881478 6.387739 6.434849v.130302c0 3.553988-2.856705 6.434849-6.387739 6.434849" fill="#796547"/><path d="m45.9567195 393h.1216956c2.7685736 0 5.1659759-1.907963 5.7987927-4.60837l22.5866932-97.119577c1.4846856-6.401733 10.5814276-6.401733 12.072198 0l22.586693 97.119577c.626732 2.700407 3.030219 4.60837 5.798793 4.60837h.121695c3.83341 0 6.668916-3.572097 5.798793-7.314874l-32.2493193-138.685126h-16.1855074l-32.2493195 138.685126c-.8701231 3.742777 1.9653831 7.314874 5.7987927 7.314874" fill="#796547"/><path d="m73.7924812 238-1.7924812 8h16l-1.7924812-8z" fill="#59432c"/><path d="m170.629661 382-26.629661-7.994953 38.579103-111.345048c3.867074-11.161052 14.380872-18.659999 26.153149-18.659999h80.267748v.243405c0 13.30755-10.752054 24.095218-24.008848 24.095218h-52.538445c-1.46008 0-2.761323.931314-3.243944 2.316329z" fill="#2d3736"/><path d="m158.128364 383.996867c-7.759378 0-14.048103-3.740341-14.048103-8.357814 0-.213017.01846-.4323.049226-.639053h-17.444753c-9.76537 0-17.684734 8.057083-17.684734 18h61.951949c0-4.648799.609182-6.121128-2.510567-9.003133-11.943657 0-5.919525 0-10.313018 0" fill="#312017"/><path d="m192.126252 383.996867c-7.753861 0-14.043105-3.740341-14.043105-8.357814 0-.213017.018462-.4323.043077-.639053h-17.440035c-9.772327 0-17.686189 8.057083-17.686189 18h61.950893c0-4.648799.615386-6.121128-2.510774-9.003133-11.938485 0-5.920012 0-10.313867 0" fill="#65483b"/><path d="m227.56291 188.105653-.006173-.00122c.413595-.826892.549402-1.777573.358037-2.7124l-22.327924-107.9813209c-.345691-1.6873225-1.703762-2.9587599-3.370485-3.2551238v-.0006098c-.228403-.0402469-.462979-.0609802-.703728-.0634194-2.944545-.2091621-8.512637.0054882-8.512637.0054882l4.802633 7.571913 21.037757 102.5723767-3.247025 9.758663s8.96327-.447595 11.852257-5.689454c.030866-.058541.067904-.115252.098769-.175013z" fill="#cfcec9"/><path d="m215.74264 194h-136.0298806c-3.387424 0-6.3031814-2.376957-6.9769908-5.682727l-21.5986563-106.1935126c-.8514501-4.1985781 2.3705842-8.1237604 6.6707138-8.1237604h135.3254439c1.984675 0 3.693701 1.3926098 4.085735 3.3295701l22.695128 111.5888079c.532922 2.625942-1.48238 5.081622-4.171493 5.081622" fill="#e4e4df"/><path d="m140.75357 226h-24.361121c-3.306328 0-5.832165-2.919554-5.328227-6.153567l10.281573-62.846433h30.654205l-3.48455 69z" fill="#fcfbfa"/><path d="m170.133324 215.822314h-11.692052c-4.552334 0-8.030658-4.05088-7.322789-8.533003l7.200742-43.178981c.591926-3.734596-2.306678-7.11033-6.102323-7.11033h-.073228l-9.580648 58.822314-.488186 3.161026c-.579721 3.687152 2.282269 7.01666 6.029096 7.01666h30.896064v-1.340562c0-4.88052-3.96651-8.837124-8.866676-8.837124" fill="#cfcec9"/><path d="m136.003108 120c-7.731854 0-14.003108 6.268007-14.003108 13.999689 0 7.732304 6.271254 14.000311 14.003108 14.000311 7.731853 0 13.996892-6.268007 13.996892-14.000311-7.731853 0-13.996892-6.268007-13.996892-13.999689" fill="#cfcec9"/><path d="m323.93858 137.006707-10.029832-4.906429c-4.323945-.884185-6.270949 4.369559-10.680881 4.369559h-22.608581c-1.891726-.078268-3.654471-.105172-5.263666 0h-1.553918s-17.60902 1.512164-19.801702 9.511405v102.018758l70-3.466419v-54.691647z" fill="#8ec5cc"/><path d="m254 154.466493v54.533507h70v-42.819252h-.206472c-11.064457 0-19.918452-9.296014-19.499436-20.478612l.340071-9.082369 1.53032-4.395071.078945-.224696z" fill="#4196a7"/><path d="m356.62157 239h-312.2431397c-3.5197672 0-6.3784303-2.880861-6.3784303-6.434849v-.130302c0-3.553371 2.8586631-6.434849 6.3784303-6.434849h312.2431397c3.525888 0 6.37843 2.881478 6.37843 6.434849v.130302c0 3.553988-2.852542 6.434849-6.37843 6.434849" fill="#957f56"/><path d="m302.375692 131h-.756522l.787027 18.994523h.695513c14.837601 0 27.851007 13.320447 27.851007 28.505477 0 15.718115-12.818174 28.505477-28.577025 28.505477h-28.375692v18.994523h28.375692c26.25865 0 47.624308-21.308212 47.624308-47.5 0-26.191179-21.365658-47.5-47.624308-47.5" fill="#8ec5cc"/><path d="m260.804738 127-13.804738 14h28z" fill="#efaf91"/><path d="m295.675547 183h-21.570969c-1.237176 0-2.241617-1.014468-2.241617-2.265851 0-1.252002 1.004441-2.267088 2.241617-2.267088h1.910887c.600214 0 1.090185-.492388 1.090185-1.099832 0-.607443-.489971-1.099831-1.090185-1.099831h-6.773848c-1.237177 0-2.241617-1.015087-2.241617-2.267089 0-1.252001 1.00444-2.266469 2.241617-2.266469h12.114531c.600214 0 1.090185-.492388 1.090185-1.099832s-.489971-1.099832-1.090185-1.099832h-5.842903c-1.237177-.000618-2.247742-1.015705-2.247742-2.267088 0-1.252002 1.010565-2.267088 2.247742-2.267088h29.239013c1.243302 0 2.247742 1.015086 2.247742 2.267088 0 1.251383-1.00444 2.267088-2.247742 2.267088h-19.702955c-.600214 0-1.090185.49177-1.090185 1.099832 0 .607444.489971 1.099832 1.090185 1.099832h2.351861c1.243301 0 2.247741 1.014468 2.247741 2.266469 0 1.252002-1.00444 2.267089-2.247741 2.267089h-7.692544c-.600214 0-1.090185.492388-1.090185 1.099831 0 .607444.489971 1.099832 1.090185 1.099832h15.966927c1.243302 0 2.247742 1.015086 2.247742 2.267088 0 1.251383-1.00444 2.265851-2.247742 2.265851" fill="#9bc9cd"/><path d="m276.818362 193h-4.642668c-1.200793 0-2.175694-.895074-2.175694-1.999727s.974901-2.000273 2.175694-2.000273h4.642668c1.206737 0 2.181638.89562 2.181638 2.000273s-.974901 1.999727-2.181638 1.999727" fill="#9bc9cd"/><path d="m282 216h-87.667084c-5.703672 0-10.332916 4.432553-10.332916 9.900035v.099965h87.660945v-.099965c0-5.467482 4.629244-9.900035 10.339055-9.900035" fill="#424851"/><path d="m282.791073 218.024425h-3.799409c1.300753-2.320572 2.050955-5.008753 2.050955-7.876722v-7.938506h1.748454c4.271309 0 7.744017 3.547584 7.744017 7.907614 0 4.360648-3.472708 7.907614-7.744017 7.907614zm0-20.374817h-1.748454v-1.649608h-31.042619v14.147703c0 8.755277 6.945415 15.852297 15.518284 15.852297 3.636059 0 6.975666-1.278909 9.619522-3.415368h7.653267c6.733665 0 12.208927-5.592602 12.208927-12.467821 0-6.874601-5.475262-12.467203-12.208927-12.467203z" fill="#b7ce37"/><path d="m285.766136 207h-5.532272c-10.621961 0-19.233864 8.506584-19.233864 19h44c0-10.493416-8.611903-19-19.233864-19" fill="#efaf91"/><path d="m204.714868 382-26.714868-7.994953 38.711425-111.345048c3.880337-11.161052 14.430197-18.659999 26.242851-18.659999h81.045724v.243405c0 13.30755-10.788932 24.095218-24.091195 24.095218h-53.221313c-1.465088 0-2.770794.931314-3.25507 2.316329z" fill="#424851"/><path d="m236 123h75v-62h-75z" fill="#efaf91"/><path d="m250.090554 79h-8.181108c-2.160812 0-3.909446 1.7908336-3.909446 4h16c0-2.2091664-1.748634-4-3.909446-4" fill="#65483b"/><path d="m284.085837 79h-8.171674c-2.159969 0-3.914163 1.7908336-3.914163 4h16c0-2.2091664-1.754194-4-3.914163-4" fill="#65483b"/><path d="m298.967118 69.2517181c.024543-.0147418.012272.175673 0 .5085918-.177942 4.9342007 2.534141 9.5219692 6.945878 11.7381519l.073631.0386972v26.56041l-.012272 4.768969c-.012272 4.520202-3.687697 8.177395-8.203745 8.158354l-35.465701.020884c-.036816-.408471-4.025173 0-4.025173 0h-20.849906v-60.045776h-2.42983v77.925113c0 2.709418.95107 5.332843 2.687539 7.41205l.110447.131448c4.30129 5.15717 3.031152 12.937765-2.687539 16.454911l-.110447.067566s17.119257.017813 28.838892.003071l.134991-.003071h8.430774c17.340151 0 33.115639-10.036089 40.472624-25.750839l.122719-.261053v-75.979196z" fill="#65483b"/><path d="m259.567185 121.14288c-.024527-.090208-.564119-.14288-.564119-.14288s-.545724.052672-.564119.14288l-28.438947 7.196651c2.293266 8.813734 10.748916 14.28796 18.897981 12.225893 4.788878-1.212661 8.400465-4.764066 10.105085-9.276277 1.698488 4.512211 5.310075 8.063616 10.105085 9.276277 8.142933 2.062067 16.604715-3.412159 18.891849-12.225893z" fill="#312017"/><path d="m292.021047 69.5305h8.963842c.338371 0 .676741-.024 1.015111-.061h-11c.33837.037.67674.061 1.021047.061" fill="#312017"/><path d="m309.95963 40.5471843c-.422056-.2896782-.856344-.5592315-1.308983-.8080498-.990913-.5476444-2.042992-.9940539-3.144006-1.3264215-1.994058-4.704375-6.153443-8.2671126-11.236456-9.4477802-1.186648-.2756518-2.416113-.4256746-3.688395-.4256746h-9.236281c-.654492 0-1.29675.0432992-1.932891.1183107h-45.563614c-4.061517 0-7.578644-2.2979109-9.334149-5.6575689-4.648724 2.7400514-8.349353 6.9034903-10.490213 11.8981534-1.302866 3.0510743-2.024642 6.4089028-2.024642 9.9362692 0 12.836101 9.566585 23.4389352 21.971339 25.1282168.250786.1280683.483222-.1244092.740126 0h67.149598c4.868927-.3104131 9.156763-2.7638355 11.909297-6.4284179 2.030758-2.6955325 3.22964-6.0442131 3.22964-9.6734244 0-5.5282808-2.789235-10.405243-7.04037-13.3136128" fill="#312017"/><path d="m294.718035 103.083668c0 3.906557-3.109962 7.084446-6.939484 7.084446h-11.451978c-4.110029 0-7.445616-3.408125-7.445616-7.596567v-8.4752002h25.837078zm-39.862398-7.5175398v7.2524568c0 3.907179-3.11606 7.085068-6.945582 7.085068h-11.451979c-4.10393 0-7.445615-3.408126-7.445615-7.596567v-8.2107392h25.843176zm43.880957-5.5661282h-33.868098v5.5661282h-6.000398v-5.5661282h-33.868098v12.307086c0 6.457829 5.128389 11.692914 11.458076 11.692914h11.451979c6.049181 0 10.958043-5.006093 10.958043-11.181415v-3.7373021h6.000398v3.2258031c0 6.457829 5.128389 11.692914 11.458077 11.692914h11.451978c6.049181 0 10.958043-5.006093 10.958043-11.180793v-8.8921153h18.263406c0-2.3409474-1.847683-3.9270917-4.140518-3.9270917z" fill="#dd432e"/><path d="m258.462017 99-8.462017 22h15v-22z" fill="#e99071"/><path d="m312.393267 94h-2.393267v27h2.393267c7.51645 0 13.606733-6.044404 13.606733-13.500304 0-7.455899-6.090283-13.499696-13.606733-13.499696" fill="#efaf91"/><path d="m258.236882 99-10.236882 22h4.29985l7.70015-22z" fill="#efaf91"/><path d="m398 201.46811c0 3.607372-2.910448 6.53189-6.5 6.53189s-6.5-2.924518-6.5-6.53189v-33.93683c0-3.606762 2.910448-6.53128 6.5-6.53128s6.5 2.924518 6.5 6.53128z" fill="#bdcf36"/><path d="m404 200.499692c0 4.694375-3.779817 8.500308-8.434251 8.500308h-9.137614c-4.654435 0-8.428135-3.805933-8.428135-8.500308s3.7737-8.499692 8.428135-8.499692h9.137614c4.654434 0 8.434251 3.805317 8.434251 8.499692" fill="#65483c"/><path d="m378 194v22.961758c0 4.438984 3.699564 8.038242 8.266697 8.038242h10.460409c4.567133 0 8.272894-3.599258 8.272894-8.038242v-22.961758z" fill="#4196a7"/><g fill="#69843a"><path d="m397.246356 173.786139c-.285715.285148-.746356.285148-1.03207 0-.285715-.285148-.285715-.746982 0-1.03213l3.539358-3.540148c.285715-.285148.746356-.285148 1.03207 0 .285715.285148.285715.746982 0 1.03213z"/><path d="m397.246356 178.786139c-.285715.285148-.746356.285148-1.03207 0-.285715-.285148-.285715-.746982 0-1.03213l3.539358-3.540148c.285715-.285148.746356-.285148 1.03207 0 .285715.285148.285715.747565 0 1.032713z"/><path d="m397.246356 183.786139c-.285715.285148-.746356.285148-1.03207 0-.285715-.285148-.285715-.747565 0-1.032713l3.539358-3.539565c.285715-.285148.746356-.285148 1.03207 0 .285715.285148.285715.746982 0 1.03213z"/><path d="m397.246356 189.786139c-.285715.285148-.746356.285148-1.03207 0-.285715-.285148-.285715-.746982 0-1.03213l3.539358-3.540148c.285715-.285148.746356-.285148 1.03207 0 .285715.285148.285715.747565 0 1.032713z"/><path d="m384.753644 167.786145c.285715.28514.746356.28514 1.03207 0 .285715-.285139.285715-.747543 0-1.032683l-3.539358-3.540045c-.285715-.284556-.746356-.284556-1.03207 0-.285715.28514-.285715.747544 0 1.032683z"/><path d="m384.753644 173.786139c.285715.285148.746356.285148 1.03207 0 .285715-.285148.285715-.746982 0-1.03213l-3.539358-3.540148c-.285715-.285148-.746356-.285148-1.03207 0-.285715.285148-.285715.746982 0 1.03213z"/><path d="m384.753644 178.786139c.285715.285148.746356.285148 1.03207 0 .285715-.285148.285715-.746982 0-1.03213l-3.539358-3.540148c-.285715-.285148-.746356-.285148-1.03207 0-.285715.285148-.285715.747565 0 1.032713z"/><path d="m384.753644 183.786139c.285715.285148.746356.285148 1.03207 0 .285715-.285148.285715-.747565 0-1.032713l-3.539358-3.539565c-.285715-.285148-.746356-.285148-1.03207 0-.285715.285148-.285715.746982 0 1.03213z"/><path d="m384.753644 189.786139c.285715.285148.746356.285148 1.03207 0 .285715-.285148.285715-.746982 0-1.03213l-3.539358-3.540148c-.285715-.285148-.746356-.285148-1.03207 0-.285715.285148-.285715.747565 0 1.032713z"/><path d="m392 172.318008c0 .376704-.448.681992-1 .681992s-1-.305288-1-.681992v-1.636016c0-.376704.448-.681992 1-.681992s1 .305288 1 .681992z"/><path d="m392 178.318008c0 .376704-.448.681992-1 .681992s-1-.305288-1-.681992v-1.636016c0-.376704.448-.681992 1-.681992s1 .305288 1 .681992z"/><path d="m392 184.317587c0 .376635-.448.682413-1 .682413s-1-.305778-1-.682413v-1.635719c0-.376635.448-.681868 1-.681868s1 .305233 1 .681868z"/><path d="m392 189.318008c0 .376704-.448.681992-1 .681992s-1-.305288-1-.681992v-1.636016c0-.376704.448-.681992 1-.681992s1 .305288 1 .681992z"/><path d="m397.543139 167.705874c-1.725555 1.725501-4.523418 1.725501-6.248973 0-1.725555-1.725502-1.725555-4.523895 0-6.249397l6.162695-6.161889c1.725555-1.726117 4.523418-1.726117 6.248973 0 1.725555 1.725502 1.725555 4.523279 0 6.249397z"/></g><path d="m407.884093 156.5c1.487876-1.486831 1.487876-3.897415 0-5.384877-1.487876-1.486831-3.896217-1.486831-5.384093 0-1.487876-1.486831-3.896217-1.486831-5.384093 0-1.487876 1.487462-1.487876 3.898046 0 5.384877-1.487876 1.486831-1.487876 3.897415 0 5.384877 1.487876 1.486831 3.896217 1.486831 5.384093 0 1.487876 1.486831 3.896217 1.486831 5.384093 0 1.487876-1.487462 1.487876-3.898046 0-5.384877" fill="#dd432e"/><path d="m402 154.857321c-.573655 0-1.109899.223053-1.515199.627414-.835541.835514-.835541 2.195016 0 3.03053.4053.404361.941544.627414 1.515199.627414s1.109899-.223053 1.515199-.627414c.835541-.835514.835541-2.195016 0-3.03053-.4053-.404361-.941544-.627414-1.515199-.627414zm0 6.142679c-1.066251 0-2.070148-.416199-2.830865-1.17134-1.558847-1.560124-1.558847-4.097819 0-5.65732.760717-.755141 1.764614-1.17134 2.830865-1.17134 1.072486 0 2.076383.416199 2.830865 1.17134 1.558847 1.559501 1.558847 4.097196 0 5.65732-.754482.755141-1.758379 1.17134-2.830865 1.17134z" fill="#e8b2a7"/><path d="m48 375h66v-10h-66z" fill="#796547"/><path d="m358 375h66v-10h-66z" fill="#796547"/><path d="m317.5 118.916652c-.873494 0-1.584337.710608-1.584337 1.583348s.710843 1.583348 1.584337 1.583348 1.584337-.710608 1.584337-1.583348-.710843-1.583348-1.584337-1.583348zm0 5.083348c-1.927711 0-3.5-1.570088-3.5-3.5s1.572289-3.5 3.5-3.5 3.5 1.570088 3.5 3.5-1.572289 3.5-3.5 3.5z" fill="#666763"/><path d="m132 221.999701c0 2.209147-1.81481 4.000299-4.054492 4.000299h-36.8910165c-2.2396817 0-4.0544915-1.791152-4.0544915-4.000299 0-2.208549 1.8148098-3.999701 4.0544915-3.999701h36.8910165c2.239682 0 4.054492 1.791152 4.054492 3.999701" fill="#92938f"/><g fill="#cfcec9"><path d="m82.0030774 189c-20.4341678 0-37.0030774 16.565428-37.0030774 37h74c0-20.434572-16.56891-37-36.9969226-37"/><path d="m79.4457108 249c-.6725496 0-1.3511582-.264982-1.8540557-.793115-.9936769-1.032453-.9633819-2.679128.06059-3.67678l1.4056893-1.370092c.5392515-.523248.8119068-1.226.7755528-1.978818-.0363541-.752208-.3817174-1.4226-.9694409-1.887845l-.0727081-.059225c-.4362484-.343133-.9936769-.538512-1.5632234-.538512h-18.3345509c-7.1132726 0-12.8935639-5.827775-12.8935639-12.990841v-.105016c0-1.435422 1.1572701-2.599756 2.5811364-2.599756s2.5811364 1.164334 2.5811364 2.599756v.105016c0 4.296496 3.4657511 7.79133 7.7312911 7.79133h18.3345509c1.7207575 0 3.4112201.588578 4.7623783 1.658886l.0727081.059834c1.7389346 1.376809 2.8113786 3.458201 2.9264997 5.70078s-.7391987 4.423492-2.3448352 5.984079l-1.4056892 1.370092c-.5028975.487835-1.1451521.730227-1.7934657.730227"/><path d="m132 202.999695c0 7.732113-6.27239 14.000305-14.003051 14.000305-7.73066 0-13.996949-6.268192-13.996949-14.000305s6.266289-13.999695 13.996949-13.999695c7.730661 0 14.003051 6.267582 14.003051 13.999695"/><path d="m112 198h18v-13z"/><path d="m123 198h-18v-13z"/><path d="m130.004124 205.43437c.046901.351504.392792.60281.773859.561106l6.607107-.718714c.381067-.041162.656607-.359628.609707-.711132-.046901-.351504-.386929-.60281-.767996-.561106l-6.61297.718714c-.381067.041162-.650745.359628-.609707.711132"/><path d="m137.994797 210.434029c-.046901.351447-.386929.602713-.767996.561557l-6.61297-.718598c-.381067-.041697-.650745-.35957-.609707-.711017.046901-.351447.392792-.602713.773859-.561557l6.607107.718598c.381067.041697.656607.360111.609707.711017"/><path d="m130 207.5c0 .275993.308813.5.693372.5h6.613256c.384559 0 .693372-.224007.693372-.5 0-.276416-.308813-.5-.693372-.5h-6.613256c-.384559 0-.693372.223584-.693372.5"/></g><path d="m112.995876 205.434492c-.046901.351428-.392792.60268-.767996.560985l-6.61297-.718559c-.381067-.041153-.656607-.35955-.609707-.710978.046901-.351428.386929-.60268.767996-.561527l6.61297.719101c.381067.041153.650745.35955.609707.710978" fill="#92938f"/><path d="m105.005203 211.434029c.046901.351447.386929.602713.767996.561557l6.61297-.718598c.381067-.041697.650745-.360111.609707-.711017-.046901-.351447-.392792-.602713-.767996-.561557l-6.61297.718598c-.381067.041697-.656607.360111-.609707.711017" fill="#92938f"/><path d="m113 207.5c0 .275993-.308813.5-.693372.5h-6.613256c-.384559 0-.693372-.224007-.693372-.5 0-.276416.308813-.5.693372-.5h6.613256c.384559 0 .693372.223584.693372.5" fill="#92938f"/><path d="m123 221.999701c0 2.209147-1.81481 4.000299-4.054492 4.000299h-36.8910165c-2.2396817 0-4.0544915-1.791152-4.0544915-4.000299 0-2.208549 1.8148098-3.999701 4.0544915-3.999701h36.8910165c2.239682 0 4.054492 1.791152 4.054492 3.999701" fill="#cfcec9"/><path d="m288 104h-3.296786c0-2.591865-2.111154-4.7004385-4.700189-4.7004385-2.595085 0-4.700189 2.1085735-4.700189 4.7004385h-3.302836c0-4.4113111 3.587146-8 8.003025-8 4.409829 0 7.996975 3.5886889 7.996975 8" fill="#312017"/><path d="m254 104h-3.302836c0-2.591865-2.105104-4.7004385-4.700189-4.7004385-2.589035 0-4.700189 2.1085735-4.700189 4.7004385h-3.296786c0-4.4113111 3.587146-8 7.996975-8 4.40983 0 8.003025 3.5886889 8.003025 8" fill="#312017"/><path d="m126.496943 200c-1.840174 0-3.350218 1.322776-3.496943 3h1.387773c.146725-.968898 1.033188-1.719325 2.10917-1.719325 1.082096 0 1.968559.750427 2.115284 1.719325h1.387773c-.146725-1.677224-1.662882-3-3.503057-3" fill="#fffffe"/><path d="m116.503057 200c-1.840175 0-3.356332 1.322776-3.503057 3h1.387773c.146725-.968898 1.033188-1.719325 2.115284-1.719325 1.075982 0 1.962445.750427 2.10917 1.719325h1.387773c-.146725-1.677224-1.656769-3-3.496943-3" fill="#fffffe"/><g transform="matrix(-1 0 0 1 311 0)"><path d="m44.8326452 17.9356883-1.1491936 10.7715455c-7.6643548-.7373507-12.5001613 7.7006753-12.5001613 7.7006753l-5.9451613-.047.5706129-18.4252208z" fill="#fffffe"/><path d="m.21329032 4.82757143c0 .54690909.21390323 1.09381818.64048387 1.504.83416129.80266234 2.16416129.77946753 2.96951613-.05066234l1.10690323-1.14081818c.42290322-.43642857.99045161-.65922078 1.59845161-.62809091.6073871.03112987 1.14919355.31068831 1.52490323.7874026l.04780645.05920779c.27703226.3521948.43454839.80571429.43454839 1.26594805v14.86481816c0 5.7620779 4.70770967 10.4504805 10.49351617 10.4504805h.0851935c1.1596129 0 2.0998065-.936948 2.0998065-2.0918052 0-1.1548571-.9401936-2.0911948-2.0998065-2.0911948h-.0851935c-3.4702581 0-6.2932904-2.8120649-6.2932904-6.2674805v-14.86481816c0-1.39290909-.4756129-2.76384415-1.3398064-3.8594935l-.0478065-.06042858c-1.1124193-1.41-2.79361287-2.27797402-4.60535481-2.37014285-1.81112903-.09216883-3.57322581.60001298-4.83396774 1.89892207l-1.10629032 1.14081819c-.39409678.40590909-.58961291.92962337-.58961291 1.45333766" fill="#fffffe"/><g fill="#957f56"><path d="m15.814129 36.4079091h15.219c0-4.5858572 4.2811291-8.3171688 9.5435162-8.3171688s9.544129 3.7313116 9.544129 8.3171688h15.219c0-12.9433117-11.108871-23.4737533-24.763129-23.4737533-13.6542581 0-24.7625162 10.5304416-24.7625162 23.4737533"/><path d="m72.8576452 25.3159091c0 6.5116364-5.3003871 11.7902857-11.8388387 11.7902857-6.5384517 0-11.8382259-5.2786493-11.8382259-11.7902857 0-6.511026 5.2997742-11.7896753 11.8382259-11.7896753 6.5384516 0 11.8388387 5.2786493 11.8388387 11.7896753"/><path d="m55.7092258 20.560974h14.8941613v-11.31418179z"/><path d="m65.3397742 20.560974h-14.8941613v-11.31418179z"/><path d="m32.6389355 18.2158571c.2948064-.2551428.481129-.4162857.7753226-.6720389h13.9766451c.2935807.2527013.4805162.4132337.7740968.6653247l.5436452 3.6385324c.2978709.2594156.4890967.426052.7869677.6854676.7888065-.0244156 1.6689355.3051948 2.533129 1.2213896.0686452.1800649.1311613.3424285.2004194.5224935v16.3950649c0 1.3562857-.9775807 2.574013-2.3302581 2.7327143-1.608258.1886104-2.9731935-1.0578052-2.9731935-2.6216234v-9.9713247c-.0330968-.1428311-.0655807-.2813896-.0986774-.4242207-2.584-5.1761039-7.9174839-8.0955974-14.6422581-8.0955974 0 0-.0594516-.4168961.0073548-.8936104z"/><path d="m51.9656129 29.5086753h4.1315806c6.6346775 0 12.0325162 5.3757013 12.0325162 11.9837792v2.5099221c0 1.4649351-1.1920968 2.6527533-2.6636774 2.6527533-1.4709678 0-2.6630646-1.1878182-2.6630646-2.6527533v-2.5099221c0-3.6830909-3.0087419-6.6788831-6.7057742-6.6788831h-4.1315806c-1.4709677 0-2.6636774-1.1872078-2.6636774-2.6521428 0-1.4649351 1.1927097-2.6527533 2.6636774-2.6527533"/><path d="m70.6193226 27.1782078c.0288064.2429351.2494516.4168961.494.3882078l4.2412903-.4974675c.2439355-.028078.418-.2484286.3891936-.4913637-.0288065-.242935-.2494517-.4168961-.4933871-.3882078l-4.2412904.4968572c-.2439355.0286883-.4186129.2490389-.3898064.491974"/><path d="m75.7438065 30.5005584c-.0288065.2429351-.2494517.4168961-.4933871.3882078l-4.2412904-.4968571c-.2439355-.0286883-.4186129-.249039-.3898064-.491974.0288064-.2429351.2494516-.4168961.494-.3882078l4.2412903.4974675c.2439355.0286883.418.2484286.3891936.4913636"/><path d="m70.6015484 28.5387662c0 .2447663.1991935.4431429.4449677.4431429h4.2700968c.2457742 0 .4449677-.1983766.4449677-.4431429 0-.2441558-.1991935-.4425324-.4449677-.4425324h-4.2700968c-.2457742 0-.4449677.1983766-.4449677.4425324"/></g><path d="m66.8769355 28.7072338c-.1372903 0-.2482258.1110909-.2482258.2472078 0 .4242207-.3462903.7684805-.7716452.7684805-.4259677 0-.772258-.3442598-.772258-.7684805 0-.1361169-.1109355-.2472078-.247613-.2472078l-.0085806.0018311-.0085806-.0018311c-.1366775 0-.2482258.1110909-.2482258.2472078 0 .4242207-.3462904.7684805-.7716452.7684805s-.7716452-.3442598-.7716452-.7684805c0-.1361169-.1109355-.2472078-.2482258-.2472078s-.2482258.1110909-.2482258.2472078c0 .6964545.5687742 1.2628961 1.2680968 1.2628961.4235161 0 .798-.2081429 1.0284516-.5267663.2304516.3186234.6049355.5267663 1.0284516.5267663.6987097 0 1.2680968-.5664416 1.2680968-1.2628961 0-.1361169-.1115484-.2472078-.2482258-.2472078" fill="#59432c"/><g fill="#796547"><path d="m55.587871 27.1782078c-.0288065.2429351-.2500645.4168961-.494.3882078l-4.2406775-.4974675c-.2445483-.0286884-.4186129-.2484286-.3898064-.4913637.0281935-.242935.2494516-.4168961.4933871-.3882078l4.2412903.4968572c.2439355.0286883.4186129.2490389.3898065.491974"/><path d="m50.4633871 30.5005584c.0281935.2429351.2494516.4168961.4933871.3882078l4.2412903-.4968571c.2439355-.0286883.4186129-.249039.3898065-.491974-.0288065-.2429351-.2500645-.4168961-.494-.3882078l-4.2406775.4974675c-.2445483.0286883-.4186129.2484286-.3898064.4913636"/><path d="m55.6056452 28.5387662c0 .2447663-.1991936.4431429-.4449678.4431429h-4.2707097c-.2451612 0-.4443548-.1983766-.4443548-.4431429 0-.2441558.1991936-.4425324.4443548-.4425324h4.2707097c.2457742 0 .4449678.1983766.4449678.4425324"/></g><path d="m59.9376452 27.7959221c0 .7861818-.6404839 1.4240389-1.4299033 1.4240389-.7900322 0-1.4299032-.6378571-1.4299032-1.4240389s.639871-1.424039 1.4299032-1.424039c.7894194 0 1.4299033.6378572 1.4299033 1.424039" fill="#59432c"/><path d="m71.5840323 27.7959221c0 .7861818-.639871 1.4240389-1.4299033 1.4240389-.7894193 0-1.4292903-.6378571-1.4292903-1.4240389s.639871-1.424039 1.4292903-1.424039c.7900323 0 1.4299033.6378572 1.4299033 1.424039" fill="#59432c"/></g></g></g></svg>