<svg height="500" viewBox="0 0 517 500" width="517" xmlns="http://www.w3.org/2000/svg" xmlns:xlink="http://www.w3.org/1999/xlink"><mask id="a" fill="#fff"><path d="m.429 1.4268-.035-1.3926 1.498 1.1622s-.421 1.2636-.467 1.2198c-.0455-.0438-.996-.9894-.996-.9894" fill="#fff" fill-rule="evenodd"/></mask><mask id="b" fill="#fff"><path d="m12.7844324 21.2509767-11.89862159-6.8440465c-.71275676-.4103255-.62340541-1.1266046.19975676-1.5998604l21.54035133-12.39060468c.8231622-.47376745 2.0679189-.52493024 2.7806757-.11511628l11.8986216 6.84455814c.7127568.40981395.6234054 1.12609302-.1997567 1.59934883l-21.5403514 12.39060469c-.8231622.4737674-2.0679189.5249302-2.7806757.1151162" fill="#fff" fill-rule="evenodd"/></mask><mask id="c" fill="#fff"><path d="m24.5679512 24.6602041c-1.0305366 0-2.0641463-.2265306-2.8549756-.6816327l-20.18970731-11.6112245c-.15263414-.0877551-.29092683-.1811224-.41385366-.2780612-1.18265853-.9341837-1.00031707-2.25255101.51834147-3.05459182l17.0012927-8.98163266-1.4290244.75510205 24.656561 14.31581633-14.3773171 8.8122449c-.7857073.4816326-1.8469756.7239796-2.9113171.7239796" fill="#fff" fill-rule="evenodd"/></mask><mask id="d" fill="#fff"><path d="m25.2 17.811-24.89948276-14.85476471 1.44310345-.78352941 3.20844828-1.74123529 24.76862073 14.53288231z" fill="#fff" fill-rule="evenodd"/></mask><mask id="e" fill="#fff"><path d="m101.835427 86.7446627c-.201859 0-.429598-.0643491-.667688-.2007692l-37.69593-21.4931184-.0879899-.0499349-61.77049749-35.2195562c-.82141206-.4684615-1.4937588-1.6133609-1.4937588-2.5441065l.00155277-11.0073018c.24792462.5755385.67234673 1.1068048 1.15163316 1.3817042l99.96227626 57.4009526c.217387.1245799.419246.1832663.605578.1832663.455477 0 .76603-.3649881.76603-.9920059l-.160452-72.5075503c0-.54259171-.238091-1.16034319-.595226-1.65557396.486532.55752071.822965 1.32301775.822965 1.98143787l-.010352 75.40892309v3.3106331l-.005176 4.961574c0 .6594497-.336432 1.041426-.822965 1.041426" fill="#fff" fill-rule="evenodd"/></mask><mask id="f" fill="#fff"><path d="m28.1343511 23.8252174c-1.4170992-5.3765217-9.7380152-8.1542609-20.27022896-12.6824348-2.37221374-1.02-4.85654962-2.1281739-7.40006107-3.37565217-.44277863-.25669565-.38671756-.70956521.12458015-1.00643478l4.25025954-2.46626087c.01453435.01252174.02958779.02504348.04567939.03704348 12.33343515 7.89130434 24.51114505 11.81217394 23.24977095 19.49373914l39.3569466-23.08069566c.0103817-.07617391.0155725-.15182609.0207634-.22852174.0103816.15182609.0103816.30365217.0051908.456z" fill="#fff" fill-rule="evenodd"/></mask><mask id="g" fill="#fff"><path d="m24.0390244 41.8284146c1.2643902-7.5410487-10.942439-11.3901951-23.30536586-19.1371463-.01613008-.0117805-.03121952-.0240732-.04578862-.0363659-.33977236-.2919512-.24247155-.7406341.23310569-1.0197804l36.38113819-21.36621956c.2497561-.14597561.556748-.21870732.8481301-.21870732s.5723577.07221951.7648781.21665854c13.668943 5.37343902 22.7278048 11.29236584 24.3460162 16.66990244.2029268.6786585.2861789 1.3496341.2497561 2.0088293-.0052032.0752926-.0104065.1495609-.020813.2243414zm-13.4093008-18.7304634c-.1222764 0-.2487155.0256098-.3506992.0778537-.2065691.1055122-.236748.2776097-.067122.3846585l13.3380163 8.3969268c.083252.0537805.2029268.0809269.3278049.0809269.124878 0 .2497561-.026122.3538211-.0783659.2029268-.1055122.2341464-.2776097.062439-.3841463l-13.3338536-8.3969269c-.0858537-.0542926-.2055285-.0809268-.3304065-.0809268m4.3764553-2.7832683c-.1248781 0-.2497561.026122-.3538212.0783659-.2029268.1055122-.2341463.2776097-.0676423.3846585l13.335935 8.3969268c.0884553.0537805.2081301.0809269.3330081.0809269.1196748 0 .2497561-.026122.3486179-.0783659.2081301-.1055122.2393496-.2776097.0676423-.3841463l-13.335935-8.397439c-.083252-.0537805-.2029268-.0809269-.3278048-.0809269m4.3759349-2.7827561c-.124878 0-.2497561.026122-.3538211.0783659-.2081301.1055122-.2341464.2776097-.0676423.3846585l13.335935 8.3969268c.0884553.0537805.20813.0809269.3330081.0809269.1196748 0 .2445528-.026122.3486179-.0783659.2081301-.1055122.2393496-.2776097.0676423-.3841463l-13.335935-8.397439c-.083252-.0537805-.2081301-.0809269-.3278049-.0809269m4.4747968-3.8450488c-.1196748 0-.2497561.026122-.3486179.0783659-.2081301.1055122-.2393496.2770976-.0676423.3841463l13.335935 8.3974391c.083252.0537805.2029268.0804146.3278048.0804146.1248781 0 .2497561-.0256098.3538212-.0778537.2029268-.1055122.2341463-.2776097.062439-.3846585l-13.3307317-8.3969268c-.0884553-.0537805-.2081301-.0809269-.3330081-.0809269m4.3759349-2.782756c-.124878 0-.2497561.0261219-.3538211.0783658-.2029268.1055122-.2341464.2770976-.062439.3841463l13.3359349 8.3969269c.0832521.0542927.2029269.0809268.3278049.0809268.1248781 0 .2497561-.0256098.3486179-.0778537.2081301-.1055121.2393496-.2776097.0676423-.3846585l-13.335935-8.3969268c-.083252-.0537805-.2029268-.0809268-.3278049-.0809268m4.375935-2.78275615c-.1248781 0-.2497561.02612195-.3538212.07836586-.20813.10551219-.2341463.27709756-.0676422.38414634l13.3359349 8.39692685c.0884553.0542927.2081301.0809268.3330082.0809268.1196748 0 .2497561-.0256097.3486178-.0778537.2081301-.1055121.2393496-.2776097.0676423-.3846585l-13.3359349-8.39692682c-.0832521-.05378048-.2029269-.08092683-.3278049-.08092683m4.3707317-2.78275609c-.1196748 0-.2445529.02612195-.3486179.07836585-.2081301.105-.2341463.27709756-.0676423.38414634l13.335935 8.39692685c.0884553.0542927.2081301.0809268.3330081.0809268.1196748 0 .2445529-.0261219.3486179-.0778536.2081301-.1055122.2393496-.2776098.0676423-.3846586l-13.335935-8.39692681c-.0884553-.05378049-.2081301-.08092683-.3330081-.08092683m4.375935-2.7827561c-.1196748 0-.2497561.02612195-.3486179.07836585-.2081301.105-.2393496.27709756-.0676423.38414634l13.335935 8.39692685c.083252.0542927.2029268.0809268.3278048.0809268.1248781 0 .2497561-.0261219.3538212-.0783658.20813-.105.2341463-.2770976.0676422-.3841464l-13.3359349-8.39692681c-.0884553-.05378049-.2081301-.08092683-.3330081-.08092683" fill="#fff" fill-rule="evenodd"/></mask><mask id="h" fill="#fff"><path d="m13.47 9.70789474c-.12 0-.235-.02736842-.315-.0831579l-12.815-8.62842105c-.165-.11-.135-.28684211.065-.39473684.095-.05368421.22-.08052632.335-.08052632.12 0 .235.02789474.32.0831579l12.815 8.62842105c.16.11.135.2868421-.065.39473684" fill="#fff" fill-rule="evenodd"/></mask><mask id="i" fill="#fff"><path d="m13.27 8.939c-.12 0-.235-.026-.32-.079l-12.815-8.197c-.16-.1045-.135-.2725.065-.375.1-.051.22-.0765.335-.0765.12 0 .235.0265.32.079l12.815 8.197c.165.1045.135.2725-.065.3755-.1.0505-.22.076-.335.076" fill="#fff" fill-rule="evenodd"/></mask><mask id="j" fill="#fff"><path d="m14.0327586 9.63736842c-.1241379 0-.2431034-.02736842-.3310345-.08315789l-13.25689651-8.62842106c-.16551724-.11-.13965518-.28631579.06724138-.39473684.10344827-.05368421.2275862-.08052631.35172413-.08052631s.24310345.02789473.32586207.08315789l13.25689653 8.62842105c.1706897.11.1396552.28684211-.0672414.39526316-.0982758.05368421-.2275862.08-.3465517.08" fill="#fff" fill-rule="evenodd"/></mask><mask id="k" fill="#fff"><path d="m13.36 8.872c-.12 0-.235-.026-.315-.079l-12.815-8.197c-.165-.1045-.135-.272.06-.375.1-.051.22-.0765.34-.0765s.235.0265.315.079l12.815 8.197c.165.1045.135.2725-.065.3755-.095.051-.215.076-.335.076" fill="#fff" fill-rule="evenodd"/></mask><mask id="l" fill="#fff"><path d="m14.1258621 9.56684211c-.124138 0-.2431035-.02736843-.3258621-.08263158l-13.25689655-8.62894737c-.17068966-.11-.13965517-.28631579.06724138-.39473684.09827586-.05368421.2275862-.08052632.34655172-.08052632.12413793 0 .24310345.02789474.33103448.0831579l13.25172417 8.62842105c.1706896.11.1396551.2868421-.062069.39526316-.1034483.05368421-.2275862.08-.3517241.08" fill="#fff" fill-rule="evenodd"/></mask><mask id="m" fill="#fff"><path d="m13.355 8.8425c-.12 0-.235-.0265-.32-.079l-12.815-8.197c-.16-.1045-.135-.2725.065-.3755.1-.051.22-.0765.34-.0765.115 0 .235.0265.315.079l12.815 8.1975c.165.104.135.272-.065.375-.1.051-.22.0765-.335.0765" fill="#fff" fill-rule="evenodd"/></mask><mask id="n" fill="#fff"><path d="m14.1206897 9.53578947c-.124138 0-.2431035-.02789473-.3310345-.08315789l-13.25689658-8.62842105c-.16551724-.11-.13448276-.28684211.06724138-.39526316.10344828-.05368421.22758621-.08052632.35172414-.08052632s.24310345.02789474.32586207.0831579l13.25689659 8.62894737c.1706896.10947368.1396551.28631579-.0672414.39473684-.0982759.05368421-.2275862.08052631-.3465517.08052631" fill="#fff" fill-rule="evenodd"/></mask><mask id="o" fill="#fff"><path d="m13.445 8.7755c-.12 0-.235-.0265-.315-.079l-12.817-8.197c-.163-.1045-.134-.2725.0645-.3755.098-.051.2195-.076.337-.076.12 0 .235.026.3175.079l12.813 8.197c.165.104.135.272-.06.375-.1.051-.22.0765-.34.0765" fill="#fff" fill-rule="evenodd"/></mask><g fill="none" fill-rule="evenodd"><path d="m0 0h517v500h-517z" fill="#fff"/><g transform="translate(75 41)"><path d="m226.550224 408-208.1914346-122.431449c-11.10491564-6.412936-11.14733043-14.263673-.1127613-20.797158l117.8427639-69.771393 227.911208 131.618581z" fill="#dceef4"/><path d="m364.599696 332.96366.600646-.08963c1.791756-.268889 3.028679-1.957428 2.763988-3.771655l-14.837986-101.268585c-.269782-1.813712-1.934283-3.065951-3.72604-2.797578l-.600646.090145c-1.791756.268889-3.028679 1.957428-2.763988 3.77114l14.837986 101.268586c.269782 1.814227 1.934283 3.066466 3.72604 2.797577" fill="#887987"/><path d="m223.234472 417.986417c-1.945943-.170986-3.388887-1.921259-3.221221-3.90884l13.916282-164.774926c.167666-1.987581 1.879892-3.460132 3.830915-3.289146 1.951023.171504 3.393968 1.921259 3.226302 3.909358l-13.916282 164.774408c-.167666 1.988099-1.884973 3.46065-3.835996 3.289146" fill="#887987"/><path d="m234.664621 326-6.664621-4.607594 1.908482-19.392406 7.091518 1.120423z" fill="#635861"/><path d="m351.212537 268 6.787463-5.221641-3.490695-19.778359-7.509305 1.67172z" fill="#635861"/><path d="m4 353.924945 124.095585-64.924945 67.904415 39.075055-124.0955854 64.924945z" fill="#dceef4"/><path d="m88.3470377 313.141922-69.7955812-40.336742c-6.4682396-3.738116-3.8510149-11.937489 5.8170294-18.221058l25.0886164-16.306288c9.6675283-6.283569 48.7587093-10.631705 55.2269487-6.893589l43.699189 26.892022c6.46824 3.738117 4.057937 27.64822-5.609592 33.931789l-25.088616 16.306288c-9.667528 6.283052-22.8697548 8.365695-29.3379943 4.627578" fill="#ac3d67"/><path d="m135.882969 317.748361c-.428116.333624-6.674741 3.049078-7.075153 3.361295-.614208.477723-2.437491 1.786111-3.533133 2.488861-2.306808 1.478594-7.333382 7.302122-14.752491 2.602158-10.8565838-6.877653 16.849684-23.246603 16.849684-23.246603l12.161841-5.510789c1.480895-.670901 3.217404-.575879 4.67739.255308 2.695719 1.534981 3.614679 5.021057 1.968079 7.538112-2.825357 4.319352-3.112858 6.912634-10.296217 12.511658" fill="#161e2c"/><path d="m134.882969 313.748369c-.428116.333623-6.674741 3.049078-7.075153 3.360773-.614208.478246-2.437491 1.786635-3.533133 2.488863-2.306808 1.479116-7.333382 7.302646-14.752491 2.60268-10.8565838-6.877655 16.849684-23.24661 16.849684-23.24661l12.161841-5.510792c1.480895-.670901 3.217404-.575879 4.67739.255308 2.695719 1.53446 3.614679 5.020537 1.968079 7.538115-2.825357 4.318832-3.113381 6.912637-10.296217 12.511663" fill="#7b4948"/><path d="m142.74775 306c.644957-1.180744 1.657886-3.428555 2.501408-4.805553 1.583488-2.58509.549445-5.901039-2.042951-7.476973-1.404026-.853654-3.073977-.951245-4.498111-.262209l-5.708096 2.76204c3.21825 1.439736 6.870829 4.732628 9.74775 9.782695" fill="#834e4a"/><path d="m87.6554428 275.591726c8.8113918-5.959732 17.8009072-12.085891 27.5273962-16.49853.368226-.166945.757286-.309004 1.116658-.494614-2.896853 1.495248-1.597904.64445-.796348.352555.644787-.234863 1.283324-.481133 1.936444-.692666.735932-.239012 2.856228-1.176393 3.640077-.888646-.647391-.237456-3.30883.357221-1.107284.235382 1.416135-.078806 1.614571.947751-1.322386-.268564.241144.100064.801557.252492 1.044784.255603.796348.010887-1.956235-.832652-1.916131-.816061.236977.098508.471871.237975.682807.383144.605204.415289-2.583314-2.179618-1.216657-.872055 1.17447 1.122991-1.602592-2.657641-.892181-1.154098.127603.269601.325518.686963.503642.922864-1.669779-2.213837-.946868-2.482401-.486976-.973674.253124.827986.379685 1.674117.5526 2.519212.246353 1.199723-.375518-3.488219-.153123-1.037444.056249.615415.110936 1.230312.151561 1.847283.160936 2.461663.185415 4.931102.227602 7.396912.021875 1.313785.044271 2.628089.079166 3.941874.015625.590529-.066666 1.286825.046875 1.864911-.499996-2.540987.602079-2.868655.168228-1.612419-.122395.353073-.213019.720145-.333331 1.074773-.28281.836281-1.681758 3.90299-.216665.707702-.509892 1.112622-.980201 2.247019-1.472905 3.368454-1.43124 3.256467-2.855187 6.52071-4.142677 9.836799-2.581752 6.649806-4.342676 13.518404-4.717673 20.665417-.283852 5.408087 4.978608 10.576645 10.383255 10.336078 5.868185-.261824 10.079611-4.542773 10.383255-10.336078.035937-.680742-.066666-1.743591.179686-2.382856-.893743 2.318048-.033333.288784.103124-.443286.247915-1.334005.556246-2.657123.905202-3.968834.821868-3.094188 1.892173-6.119938 3.071331-9.095915.273435-.689556.509891-1.452215.857806-2.108071-1.156242 2.180656-.317706.742439-.052083.12806.488017-1.128693.985409-2.253758 1.480718-3.37986 1.134887-2.582982 2.357794-5.158188 3.262475-7.831902 1.145304-3.384526.846869-6.881559.786973-10.381703-.046354-2.6986-.064062-5.403421-.255206-8.097355-.434893-6.138084-1.512489-12.347196-6.158808-16.821532-5.68954-5.478599-14.221247-4.994873-21.121715-2.408779-11.9462643 4.476409-22.7185788 11.781035-33.2106871 18.878275-4.4848619 3.033008-6.9061978 9.229678-3.7254927 14.141596 2.8786241 4.444265 9.4020124 6.958292 14.2066636 3.708048" fill="#c5a584"/><path d="m125 303.527007c-4.529293 3.659895-13.458836 2.611788-16.561491-2.527007-.198684 2.723593-.352819 5.447186-.433726 8.171309-.32824 11.099967 16.346932 12.086607 16.676707.94425.065033-2.196361.176666-4.392721.31851-6.588552" fill="#e0e9ee"/><path d="m104.224268 298.513044-.22349 7.496213c-.009875.322379.074323.632818.251036.902245 1.042606 1.589052 5.206275 6.952687 13.388084 5.968938 7.174026-.862791 11.111606-2.88843 12.637574-3.851932.473486-.299018.742194-.822819.721404-1.38192l-.281181-7.660258c-.042099-1.14364-1.254142-1.874573-2.271801-1.348177-3.740077 1.936868-11.951512 4.668522-21.805857-1.395936-1.037409-.638528-2.379387.054509-2.415769 1.270827" fill="#debd9d"/><path d="m70.6926207 264.140966c.9428366 2.00045-2.8342053-7.489284-1.337368-5.851482 3.1184542 3.411659 20.1381831 24.151175 24.5696706 25.55062 5.3536139 1.690486-8.5870103-10.580748-8.5870103-10.580748s44.585663-25.713787 43.647486-26.984848c-7.338179-9.940871-14.296841-13.050238-28.365869-7.643243-16.0157973 6.155309-34.4370961 15.935571-29.9269093 25.509701" fill="#b19377"/><path d="m162.56842 332.447161c-.432074.317376-6.6632 2.81327-7.067497 3.110388-.619307.455546-2.455107 1.697-3.555353 2.359282-2.31674 1.395207-7.448648 7.021747-14.593301 2.105277-10.454135-7.19368 17.325141-22.564335 17.325141-22.564335l12.139738-5.08165c1.477796-.618649 3.182945-.468012 4.591816.406719 2.601188 1.61389 3.391781 5.110219 1.691261 7.559364-2.919072 4.202763-3.285821 6.771898-10.531805 12.104955" fill="#161e2c"/><path d="m161.568259 329.446988c-.432072.317895-6.663161 2.813786-7.067456 3.110384-.619303.455546-2.455092 1.696999-3.555332 2.35928-2.316726 1.395206-7.448604 7.021739-14.593216 2.105795-10.454073-7.194193 17.32504-22.564313 17.32504-22.564313l12.139667-5.082164c1.477788-.618649 3.182927-.467493 4.591789.406718 2.601174 1.613889 3.392276 5.110734 1.691251 7.559876-2.919054 4.20224-3.285801 6.771891-10.531743 12.104424" fill="#7b4948"/><path d="m170.496422 322c.684673-1.151665 1.772868-3.350977 2.663853-4.690941 1.67224-2.5151.735239-5.84794-1.821918-7.505292-1.385527-.897755-3.061306-1.052981-4.514087-.417672l-5.82427 2.547105c3.190252 1.543733 6.760765 4.945385 9.496422 10.0668" fill="#834e4a"/><path d="m107.636584 288.344366c8.488687-6.11114 16.961255-12.422076 26.023446-17.676952 1.370066-.79451 2.759369-1.558403 4.185069-2.250162.327568-.158798.663455-.302547.988423-.466016 1.33107-.669443-1.414261.574477-1.350827.556314.695172-.199796 1.360186-.532961 2.057438-.741578.455995-.136484.922909-.221591 1.379945-.349253 1.73143-.484698-3.15869.239755-1.249438.180075 1.261396-.038921 2.220702.553719-1.331589-.269853 2.081356.482622-2.54931-1.411022-1.088253-.522062 1.058096.644534-2.506154-2.229923-1.203682-.897782 1.080454 1.105361-1.821381-2.595263-.888073-1.102766 1.134009 1.815283-.630698-2.146372-.421679-1.073186.10139.522581.290132 1.056061.419079 1.574491.576624 2.309841-.192381-2.399101-.085271-.897782.045755.644535.116468 1.285436.147665 1.931528.073313 1.522076.057194 3.048305.00572 4.5709-.20694 6.120482-.129468 12.226952-.089432 18.352624.066554 10.118982.177303 20.283632-.541267 30.383413-.384762 5.410041 5.042986 10.58396 10.365703 10.345762 5.945097-.265701 9.953904-4.550143 10.365703-10.345762 1.165206-16.382694.197061-32.836484.646297-49.236303.188221-6.867768-.428958-14.677947-5.81459-19.624048-6.806652-6.250738-15.860003-3.675714-23.183485-.034251-10.610079 5.274596-20.227575 12.834641-29.8003557 19.725762-4.3862896 3.157803-6.9532777 9.148029-3.7191951 14.155366 2.8040849 4.340487 9.4791898 7.097143 14.1826488 3.711521" fill="#c5a584"/><path d="m153 318.040007c-4.593343 3.448297-13.387964 2.117577-16.294008-3.040007-.282145 2.671869-.520728 5.345303-.685861 8.021865-.673704 10.906482 15.781385 12.435351 16.457622 1.488196.133221-2.158249.313044-4.314934.522247-6.470054" fill="#e0e9ee"/><path d="m132.474826 313.432423-.471542 7.335518c-.020321.314931.053667.621723.221963.891374.992063 1.59043 4.986364 6.978358 13.21673 6.278283 7.21642-.614091 11.228958-2.471629 12.789476-3.366055.484568-.277791.77062-.781987.768536-1.330447l-.028658-7.512572c-.004168-1.12134-1.194747-1.876871-2.231619-1.393535-3.811416 1.776643-12.129317 4.188236-21.802445-2.069696-1.018115-.658864-2.385848-.023404-2.462441 1.16713" fill="#debd9d"/><path d="m145.341035 353.969344.230181-.033275c1.554646-.226688 2.628294-1.648683 2.397584-3.176224l-11.07778-73.373408c-.23071-1.52754-1.677938-2.582468-3.232584-2.355781l-.229652.033795c-1.554646.226688-2.628294 1.648683-2.397584 3.176223l11.07778 73.372889c.230181 1.52754 1.677409 2.582468 3.232055 2.355781" fill="#442f44"/><path d="m10.0829692 259.972226-.88048491-.128239c-1.41003288-.206007-2.38322794-1.49664-2.17423718-2.882551l15.95715149-105.795323c.2089907-1.386426 1.5215994-2.343843 2.9316322-2.138351l.8804849.128754c1.4100329.205492 2.383228 1.496125 2.1742372 2.882551l-15.9571515 105.795323c-.2089907 1.386426-1.5215994 2.343328-2.9316322 2.137836" fill="#635861"/><path d="m0 169h19v-11h-19z" fill="#a4bdd7"/><path d="m348 240h19v-11h-19z" fill="#a4bdd7"/><path d="m238.763372 309.555565-236.2628109-136.480357c-3.70399954-2.139519-3.23938275-5.876558 1.03736822-8.346865l110.24559568-63.684449c4.276751-2.4708255 10.746204-2.7389771 14.450203-.599459l236.265915 136.480357c3.704517 2.139519 3.238866 5.876558-1.039955 8.346865l-110.245596 63.684449c-4.273647 2.470826-10.746203 2.738977-14.45072.599459" fill="#a4bdd7"/><path d="m238.763372 298.555565-236.2628109-136.480357c-3.70399954-2.139519-3.23938275-5.876558 1.03736822-8.346865l110.24559568-63.6844492c4.276751-2.4708253 10.746204-2.7389769 14.450203-.5994586l236.265915 136.4803568c3.704517 2.139519 3.238866 5.876558-1.039955 8.346865l-110.245596 63.684449c-4.273647 2.470826-10.746203 2.738977-14.45072.599459" fill="#ecf5f9"/><path d="m71.5225129 237.143031-48.6829798 37.898378c-7.9507431 4.905381-13.92023809.036329-13.91199791-8.393433l-.92753519-13.723858c.00772517-8.429762 6.5190119-19.340239 14.469755-24.245101l49.0888087-30.287045c7.9507431-4.904863 14.4491546-2.02142 14.4414294 6.407823l-.0077251 8.098134c-.0077252 8.429243-6.519527 19.339721-14.4697551 24.245102" fill="#93335b"/><path d="m8.4175912 356.96811c-1.54737877-.235128-2.61591543-1.712852-2.38661789-3.299576l13.33317109-92.189342c.2298037-1.587243 1.6703795-2.682949 3.2182644-2.447302 1.5473788.235128 2.6159154 1.712852 2.3866179 3.299576l-13.3331711 92.189342c-.2298037 1.587243-1.67037946 2.682949-3.2182644 2.447302" fill="#442f44"/><path d="m72.513724 395.967408c-1.6094095-.241739-2.7199784-1.756465-2.4814908-3.384346l15.1086181-103.040488c.2384875-1.627881 1.7365351-2.751196 3.3454361-2.509971 1.6089011.241739 2.7199784 1.756466 2.4814909 3.383832l-15.1086181 103.041002c-.2384876 1.627367-1.7365351 2.751196-3.3454362 2.509971" fill="#442f44"/><path d="m84.7257748 322.530363-61.8281996-35.602374c-6.6455749-3.826843-10.3186602-11.449587-10.3186602-11.449587-2.4875018-5.696174 3.4450686-9.8185 10.0911605-5.991657l65.0100925 38.173026c6.646092 3.826843 9.1537585 7.823859 8.0803738 12.569123 0 0-2.6110755 6.63677-11.034767 2.301469" fill="#c73d6b"/><path d="m208.371322 197.571343-68.645148-39.403905c-.392795-.225285-.877465-.223232-1.268196.006159l-20.839286 12.228532c-.829463.486493-.823785 1.681173.010323 2.159969l68.412878 39.270477c.389182.223233.868691.223233 1.257872 0l21.071557-12.095106c.838237-.481361.838237-1.684765 0-2.166126" fill="#a4bdd7"/><path d="m187.042119 209.832192-68.413106-39.270198c-.834105-.478792-.839783-1.673464-.010324-2.159953l20.839199-12.228446c.390729-.229389.875397-.231442 1.26819-.006158l68.644859 39.403624c.838751.481358.838751 1.684753 0 2.166111l-21.071467 12.09502c-.389181.223744-.868171.223744-1.257351 0" fill="#fffffe"/><g fill="#a4bdd7"><path d="m143.029612 161.964144c-.105235.06548-.320132.038862-.478477-.060157l-4.396772-2.746976c-.158837-.099551-.202111-.233705-.096876-.299186l2.912659-1.821734c.105727-.066013.31964-.038863.478477.060156l4.397264 2.746976c.158345.099019.202111.233174.096384.299186z"/><path d="m148.029588 169.96326c-.106219.066545-.319149.040459-.479953-.060157l-4.396782-2.746967c-.158345-.099018-.200636-.232108-.093925-.298652l2.913649-1.822262c.103268-.064415.317182-.038329.475527.060689l4.396782 2.746435c.160312.100615.202111.233705.098351.298653z"/><path d="m146.029583 172.963836c-.105736.06655-.319174.038333-.47704-.060693l-4.398114-2.74771c-.15639-.097429-.203111-.232125-.097867-.298143l2.914863-1.8224c.102785-.064953.320158-.036203.476057.061225l4.398114 2.74771c.158357.098494.201635.23319.098358.297611z"/><path d="m138.028125 173.964505c-.104285.064969-.319251.038342-.476662-.060176l-4.398672-2.747865c-.15692-.097986-.200208-.232717-.095923-.297685l2.914575-1.822857c.104285-.065502.320726-.038875.477154.059111l4.399164 2.748397c.157412.097986.199224.232716.094939.298218z"/><path d="m133.197482 175.972619c-.115469.063218-.393889.013255-.623208-.111652l-6.321112-3.446923c-.226081-.123377-.318888-.275815-.203419-.339033l3.753278-2.048474c.112771-.061689.395508-.012236.62159.111142l6.321111 3.446412c.229319.124907.318349.278364.205578.340053z"/><path d="m173.55377 198.974408c-.096994.055023-.318226.018341-.493686-.081455l-4.868742-2.781886c-.17764-.101415-.243573-.228722-.14658-.284285l1.4015-.801606c.095904-.054483.319861-.017801.4975.083613l4.868742 2.781886c.17546.099797.238669.227104.142766.282127z"/><path d="m179.55377 202.974058c-.096994.055562-.318226.018881-.493686-.081454l-4.868742-2.781312c-.17764-.101413-.243573-.229259-.14658-.284281l1.4015-.801596c.095904-.055022.319861-.017801.4975.083612l4.868742 2.781312c.17546.100335.238669.227641.142766.282123z"/><path d="m186.597149 206.97581c-.093947.05384-.315353.014683-.492258-.086471l-4.91049-2.805126c-.175807-.10061-.246679-.228413-.152732-.282253l1.360851-.778235c.093397-.053296.318099-.013596.493906.087015l4.91049 2.805126c.176905.101154.244481.228413.151084.281709z"/><path d="m182.597001 201.975809c-.093944.053842-.315344.014684-.492245-.086473l-4.910361-2.805209c-.175801-.100614-.246671-.227876-.152727-.281718l1.361364-.778802c.092845-.053298.317542-.013052.493344.087561l4.910361 2.80521c.1769.100613.244474.227875.151629.281173z"/><path d="m165.388159 194.965405c-.109338.064052-.333636.036452-.498666-.060406l-29.72941-17.485953c-.161965-.095296-.210503-.228085-.101675-.292656l3.554531-2.092337c.106784-.063009.334659-.035931.496623.059365l29.72941 17.485953c.16503.096858.209992.230168.103208.293177z"/><path d="m162.773168 191.999847c-.00734.003562-.123746-.055461-.258504-.130767l-24.28259-13.598191c-.132661-.074288-.238579-.139925-.231762-.143996l.226518-.126696c.006817-.004071.124795.055461.256931.129749l24.282591 13.597683c.134758.075814.240152.140943.233335.145013z"/><path d="m145.028671 176.964568c-.103766.06495-.318674.038332-.478011-.061223l-4.397011-2.747068c-.155894-.097426-.20163-.233714-.097864-.298664l2.9138-1.822329c.10475-.065482.3231-.036734.478995.060691l4.397011 2.746536c.159829.099555.20163.234246.096881.299729z"/><path d="m151.028329 180.964616c-.103788.064968-.320217.037809-.476144-.059643l-4.397444-2.747828c-.157894-.098517-.202656-.233779-.098376-.298747l2.914413-1.822832c.104771-.065501.321692-.037809.479587.060708l4.397443 2.747295c.156419.097452.199705.232714.094934.298214z"/><path d="m157.027853 184.964475c-.103795.064974-.319256.038345-.476179-.059648l-4.398754-2.748599c-.157414-.097993-.200211-.232201-.095924-.297707l2.914629-1.822458c.104287-.065506.320241-.03941.477163.059115l4.398754 2.748067c.157414.097993.19972.232733.094941.29824z"/><path d="m164.028665 187.964514c-.103763.064952-.318174.038332-.476524-.060161l-4.3974-2.74716c-.159333-.099558-.202117-.234254-.097862-.299207l2.913733-1.822389c.104746-.064952.320141-.038865.478983.060693l4.397399 2.74716c.15835.099026.20015.23319.095404.298674z"/><path d="m170.029299 191.96449c-.104269.065494-.321168.037806-.48003-.061767l-4.396503-2.746497c-.156895-.098507-.200176-.23269-.095907-.298185l2.914115-1.822123c.104761-.065494.320184-.038871.477079.059104l4.396503 2.746497c.159354.099573.203127.235354.098858.300848z"/><path d="m176.028763 195.964275c-.104267.065492-.319686.038337-.477562-.060167l-4.396912-2.746941c-.158367-.099037-.201648-.233748-.097873-.29924l2.914061-1.822064c.104759-.065493.321161-.03887.479529.060167l4.39642 2.74694c.157875.098505.201156.233749.096397.299241z"/><path d="m190.949515 203.967224c-.107051.060036-.327717.035432-.490313-.056099l-12.30127-6.917926c-.162596-.09153-.206528-.215539-.099477-.275575l2.991874-1.684455c.107051-.060528.328222-.035923.490818.055115l12.30127 6.918418c.162596.091039.206023.21554.098972.276068z"/><path d="m152.028059 176.963595c-.105754.066031-.316278.039938-.475155-.059641l-4.398879-2.748274c-.157893-.098514-.202162-.231109-.096408-.29714l2.914878-1.823308c.103294-.064433.317262-.03834.475647.060706l4.398879 2.748275c.158877.099046.199211.231641.096408.296607z"/><path d="m158.029119 179.964176c-.105754.066026-.31923.037806-.47614-.060168l-4.400355-2.749133c-.156418-.097442-.200687-.230559-.094933-.296585l2.914879-1.823171c.103295-.064428.317754-.037805.474172.060169l4.400355 2.7486c.156418.097975.200195.232689.0969.297118z"/><path d="m165.029444 183.96434c-.105745.066024-.320184.037272-.477079-.060699l-4.397486-2.747454c-.155912-.097439-.204111-.232682-.098367-.298706l2.914607-1.823117c.103285-.064427.321659-.035142.477571.061765l4.397486 2.747454c.156895.097971.20116.233214.098367.29764z"/><path d="m171.028668 187.964036c-.105758.066032-.318749.038341-.476647-.060174l-4.397058-2.747249c-.158391-.099048-.203153-.232177-.097888-.298209l2.915468-1.823335c.103298-.064434.318257-.037808.476647.06124l4.397058 2.747249c.157899.098515.200694.232709.097887.297144z"/><path d="m177.029701 190.964178c-.105734.066023-.319661.037804-.476541-.060165l-4.399037-2.748449c-.158355-.099034-.202125-.231611-.09639-.297634l2.914331-1.822538c.103275-.064425.317202-.038868.475558.060166l4.399036 2.748449c.156881.097969.20065.233208.097374.297633z"/><path d="m184.028761 194.964036c-.105754.066033-.318244.038341-.476137-.060175l-4.39639-2.746746c-.159859-.099581-.20462-.232712-.098867-.298744l2.914859-1.823354c.103294-.064435.318244-.037809.478104.062305l4.39639 2.746746c.157892.098516.200193.232179.096899.297147z"/><path d="m190.028824 198.964007c-.105761.066036-.318757.038344-.476167-.059645l-4.400114-2.749005c-.156918-.098521-.200206-.230593-.094938-.296629l2.915537-1.823439c.1033-.064439.316788-.038344.473707.059645l4.400114 2.749005c.156918.097989.200206.232191.096905.297161z"/><path d="m155.029152 172.9635c-.106242.066563-.320696.039405-.479076-.059641l-4.398257-2.747736c-.156413-.097448-.199698-.23164-.093455-.298203l2.914793-1.822772c.103291-.064433.317744-.037808.474157.059641l4.398258 2.747736c.158872.099579.201664.23377.097881.298204z"/><path d="m161.029088 176.963586c-.106242.066559-.321185.03887-.477596-.058571l-4.397719-2.747533c-.157887-.099039-.202155-.233221-.095421-.299779l2.91427-1.822637c.10329-.064428.318725-.037805.476612.061234l4.398211 2.747533c.156411.097441.199695.232156.096404.297117z"/><path d="m167.029477 180.963763c-.106239.066028-.320687.039404-.480046-.06017l-4.39715-2.747069c-.156901-.098509-.200183-.232162-.093944-.298722l2.914219-1.822682c.10378-.06443.318227-.037806.475128.06017l4.397642 2.747069c.159359.099574.201659.233759.09837.29819z"/><path d="m174.028919 183.963172c-.10623.066553-.318689.040464-.477542-.058566l-4.397711-2.747304c-.158361-.099031-.20164-.233201-.09541-.299754l2.913938-1.822485c.103279-.064423.318198-.037802.476558.061229l4.398203 2.747303c.158361.099564.199673.232669.096394.297093z"/><path d="m180.029175 187.963388c-.106741.066567-.321209.039408-.476649-.057515l-4.399041-2.748455c-.158883-.099585-.201186-.232721-.094936-.299289l2.914986-1.822894c.103298-.064438.316782-.038343.476157.06071l4.398549 2.748454c.155932.096923.198727.231656.095428.296094z"/><path d="m187.029571 191.963562c-.10623.066549-.320656.039397-.480493-.060693l-4.396728-2.746608c-.155902-.097428-.200656-.232123-.094426-.298672l2.913939-1.822377c.10377-.064951.319672-.037267.475574.060161l4.39722 2.747141c.159345.099557.202623.233719.099345.298671z"/><path d="m193.029524 194.963847c-.106239.066028-.320685.038871-.478076-.059105l-4.398107-2.747587c-.158375-.099041-.201166-.232693-.094926-.299252l2.9142-1.822673c.10378-.06443.317734-.038338.476109.060703l4.398598 2.747587c.1569.098508.19969.232693.096402.297122z"/><path d="m141.776984 165.96304c-.115256.067402-.347903.039902-.520253-.060392l-8.089266-4.71759c-.172351-.100833-.219841-.236176-.104051-.303578l3.161537-1.845732c.112054-.065784.345235-.038284.517585.06201l8.0898 4.71759c.17235.100294.218773.236176.106718.30196z"/><path d="m203.77636 196.963676c-.114207.066335-.346892.039369-.518737-.060941l-8.091662-4.718914c-.169177-.098154-.218276-.235676-.104068-.302011l3.161523-1.8455c.114207-.066873.349027-.03829.518203.060402l8.091129 4.718915c.171845.099771.219343.235676.104601.302549z"/><path d="m138.908223 169.963066c-.110036.067656-.330108.03983-.496442-.062745l-9.250192-5.690708c-.16531-.101483-.211884-.237886-.101848-.305541l3.032901-1.868167c.107477-.066019.331131-.038739.49593.06329l9.250704 5.690708c.166334.102575.209325.238977.101848.304996z"/><path d="m131.882626 169.964276c-.109404.065436-.335437.038618-.501607-.061145l-6.218995-3.730383c-.166687-.099763-.211584-.235463-.102696-.300898l3.05815-1.835961c.109404-.065436.335437-.039154.502123.060609l6.218996 3.730384c.16617.099763.211067.235462.101663.301434z"/><path d="m149.028706 165.963789c-.10526.06603-.318732.039405-.479082-.060704l-4.395352-2.745533c-.158382-.099044-.202158-.233765-.096898-.299261l2.913347-1.822191c.105752-.06603.320699-.038872.479082.060171l4.39486 2.746067c.160349.100108.203142.233231.09739.299261z"/><path d="m156.029758 168.964073c-.105235.066014-.320624.03833-.478969-.06069l-4.397273-2.747012c-.15687-.097956-.201619-.232645-.096384-.298658l2.913157-1.821759c.105235-.066014.320624-.038331.477985.060157l4.397273 2.747013c.158345.09902.202603.233176.096876.29919z"/><path d="m162.027819 172.963428c-.104776.066031-.31728.040471-.476167-.059108l-4.398642-2.747744c-.15741-.098514-.200698-.232706-.09543-.298204l2.913572-1.822244c.10576-.066031.31974-.038873.47715.059641l4.398643 2.747743c.158886.099579.200206.231641.094938.297672z"/><path d="m168.029024 176.964299c-.105261.065497-.320703.03834-.478596-.060704l-4.3959-2.746069c-.159368-.099576-.202161-.233232-.096899-.299261l2.913384-1.822192c.105753-.066029.31972-.038872.479088.060704l4.395408 2.746069c.158384.098511.202653.233232.096899.299261z"/><path d="m175.028017 179.963432c-.105262.066024-.316767.040466-.476135-.059103l-4.397354-2.746416c-.159368-.100102-.202161-.233749-.096899-.299773l2.91337-1.82207c.105753-.066024.319718-.038869.479085.0607l4.396863 2.746949c.159367.099569.200193.231619.09444.297643z"/><path d="m181.029008 183.963984c-.105258.066029-.320694.03834-.477106-.059106l-4.399712-2.748715c-.156904-.098511-.199696-.232166-.094438-.297662l2.913303-1.822182c.10575-.066028.319219-.039404.476615.058574l4.399711 2.748715c.156413.097978.20068.232166.09493.298195z"/><path d="m188.029729 187.96391c-.105231.066012-.319627.038862-.478457-.060156l-4.396108-2.746405c-.159322-.09955-.203086-.234235-.097855-.299714l2.912544-1.821709c.105723-.066012.320611-.038329.479441.060688l4.396599 2.746937c.158339.099018.202103.232638.09638.29865z"/><path d="m194.028356 190.963681c-.105261.066028-.318736.039404-.475645-.058574l-4.401321-2.749229c-.156417-.097977-.198719-.231632-.093457-.29766l2.913391-1.821637c.105754-.066561.319229-.039404.475646.058041l4.400829 2.749762c.157401.097977.199702.231099.093949.297127z"/><path d="m197.265257 194.089354c-.075683-.042676-.169264-.074435-.267959-.085353-.096649-.010917-.174377.000993-.225003.029775l-3.030383 1.698623c-.050626.028286-.074149.072947-.054717.127533.021478.05409.075683.107684.151366.149864l1.194051.668433-3.973352 2.227613c-.051648.028782-.071592.074436-.051648.128029.019432.05409.075683.106692.1529.149864l3.080498 1.724924c.077728.043669.171309.075428.268981.086842.09716.011909.176934-.000496.228582-.029278l7.202659-4.03789c.051137-.028286.071592-.072451.050625-.127037-.019432-.055579-.076194-.107684-.153922-.151353z"/></g><path d="m43.9679275 183.250499c3.8440329 5.20776 7.6823785 10.470878 11.9224476 15.367186 2.0778975 2.40004 4.4566999 5.081524 7.5924173 6.04123 4.208531 1.28823 8.2955626-1.201831 9.562775-5.29416.5630332-1.816973.5268419-3.833648.6348988-5.722017.0242998-.425789.0630762-.851577.0884101-1.277366.1044378-1.759029-.4037914 1.622446-.0444635.277306.0884101-.331111.1571736-.68033.2285221-1.016098.388798-1.826286-.615252 1.09215-.084274.123132.7657045-1.397393-1.1415769 1.195105-.2419647.313521.6752263-.662222-1.5541577 1.09422-.7445067.587206.4854805-.303692 1.3070229-.445449-.8675571.338871 1.476088-.532365-1.1333046-.137101-.4410168.000518 1.2413615.246781 2.7981044.026385 4.0554935-.048632 11.8159418-.707751 22.5725126-5.865327 32.4909959-12.002268 4.654718-2.879634 9.158467-6.017431 13.91452-8.732026 1.044895-.596518 2.103232-1.171824 3.186386-1.696428.433261-.210567.87221-.407164 1.310125-.607383-1.710298.781216.151486-.030007.525291-.155726.921844-.310416 1.847824-.499253 2.793968-.708267-1.919173.424236-.799828.068291-.251271.097781.540801.028972 2.265058.232295.038259-.108646 3.536407.541677 7.131237-.895035 8.158553-4.635041.862387-3.141419-1.070229-7.618147-4.632486-8.163446-9.151746-1.401532-17.087463 3.875037-24.465835 8.612516-4.299526 2.76064-8.575786 5.564739-13.0500649 8.038244-5.1401984 2.841349-8.6099099 4.466381-14.2335205 5.852393-2.8730721.70775-3.8647137.862441-6.4880658.971087-2.0939251.086917-4.184231-.157795-6.2388627.424754-3.5782854 1.014546-6.0713488 3.767426-7.2703148 7.207362-.7015941 2.013571-.8784145 4.187523-1.0004309 6.306636-.0429125.750691-.0982335 1.507074-.1183972 2.258282-.0418785 1.54329.2305903-1.192518.1163292-.711372-.3293408 1.38446.2424817-.404576.3769065-.63325.8215425-1.396876 2.8229212-2.814446 5.0104267-2.807203 2.0561827.006726 1.9936235.361118 1.3302887.157795 2.0189574.61773 1.56243.706198.9006463.318695-.8282637-.485285.446187-.235917.6674709.536504-.0553209-.192976-.6473072-.569098-.8008617-.713442-.5097803-.478559-.9900905-.989195-1.4636795-1.503452-4.2617838-4.628833-7.2853083-8.941558-11.014046-13.994109-2.1249462-2.878599-5.7476952-4.327729-9.0741925-2.38038-2.8373977 1.66073-4.5192591 6.179882-2.3793193 9.079693" fill="#efa37e"/><path d="m246.222682 212.819164c-5.059149 2.920184-13.29277 2.905982-18.383507-.032084-5.096-2.937541-5.122323-7.686521-.057909-10.606179 5.05915-2.920184 13.287506-2.905982 18.383507.031558 5.090736 2.937541 5.117058 7.686521.057909 10.606705" fill="#a4bdd7"/><path d="m314.798581 228.104112c-4.28289 2.534064-11.250199 2.5268-15.558463-.015565-4.303188-2.542884-4.323486-6.658402-.040596-9.192465 4.282891-2.534064 11.2502-2.527319 15.558463.015565s4.323487 6.658402.040596 9.192465" fill="#a4bdd7"/><path d="m241.655362 211.110278c-4.477891 2.530762-11.758414 2.517868-16.262645-.028366-4.504231-2.546749-4.525303-6.662395-.052681-9.192641 4.477891-2.530246 11.758414-2.517352 16.267913.028882 4.504231 2.546234 4.525303 6.66188.047413 9.192125" fill="#7777ab"/><path d="m243 206-21-.075455v-17.924545l21 .16751z" fill="#7777ab"/><path d="m238.552301 188v16.673626l-.021314.646729c.015985 2.81171-1.491991 3.302773-3.767276 4.563971-1.364105.75631-3.042594 1.595572-4.763711 1.894614 3.991074.691278 8.48303-.30621 11.632195-2.05284 2.275285-1.261198 3.38362-2.240252 3.367635-5.052474h-.010658l-.06927-16.538443z" fill="#6c6ca3"/><path d="m241.655362 193.110738c-4.477891 2.530233-11.758414 2.51734-16.262645-.028881s-4.525303-6.661847-.052681-9.192595c4.477891-2.530233 11.758414-2.51734 16.267913.028881 4.504231 2.546221 4.525303 6.661847.047413 9.192595" fill="#aeaac9"/><path d="m240.236686 192.401143c-3.696639 2.141102-9.710259 2.130542-13.433228-.024289-3.722968-2.15483-3.738765-5.637092-.042126-7.778194 3.696638-2.141102 9.715525-2.130014 13.433227.024289 3.722968 2.15483 3.744031 5.637092.042127 7.778194" fill="#9c99bf"/><path d="m239.662882 187.485306c-3.699563-1.971596-9.689083-1.981744-13.367685-.022229-1.095197.582298-1.849782 1.273323-2.295197 2.008322.450655.746114 1.220961 1.450186 2.337118 2.043115 3.704803 1.972079 9.689083 1.981743 13.367685.022228 1.095197-.581814 1.855022-1.273322 2.295197-2.008321-.445415-.746114-1.220961-1.450187-2.337118-2.043115" fill="#515073"/><path d="m226.280336 192.507121c-1.088105-.594253-1.837805-1.300546-2.280336-2.05126.255106-.435819.619543-.85683 1.088106-1.251189 3.181017-.504425 6.74209-.076997 9.235883 1.288207 1.082899.594747 1.837805 1.300546 2.27513 2.05126.203044.33365.343612.657923.400881.96887-.551862.126846-1.056868.226547-1.488987.282319-3.175811.504425-6.736884.076997-9.230677-1.288207" fill="#66638a"/><path d="m240.468075 196.433022c1.534594.848001 3.226583 1.453938 3.802056 3.387876.373812 1.26555.093453 3.170586.093453 4.487749-.004919 1.103486.30987 3.905038-.905017 3.923619-.629578.009807-1.770686-.875872-2.341241-1.187615-.845994-.458323-1.588699.877421-.747623 1.337293 1.018145.552775 2.616681 1.785809 3.836487 1.59897 1.524757-.233807 1.569024-2.004132 1.603454-3.250586.059023-2.390713.467265-5.496783-.132801-7.821431-.536125-2.085681-2.813424-2.901166-4.466064-3.812651-.841076-.463485-1.58378.872775-.742704 1.336776" fill="#3f3e5b"/><path d="m41.7507987 170.674836c-4.3094867 4.604476-4.179968 7.579581-4.7048048 14.114023-.5133932 6.389025 3.312349 12.116231 9.4132506 14.131493l60.7889895 20.079648s17.002317-23.34764-2.954482-31.821294c-10.3812592-4.407678-17.4085574-10.498165-25.1864397-15.830746-11.4246911-7.831875-27.4007411-11.309511-37.3565136-.673124" fill="#514e70"/><path d="m36.472231 273.715694c-4.037329-1.437472-2.9280194-57.426005 1.8610774-95.715694l70.6666916 32.219845c-6.256465 33.135776-6.235281 58.28456-3.446765 97.780155z" fill="#514e70"/><path d="m108.804984 210.2341-11.5830825-5.2341c-7.0461795 33.665357-8.4309246 58.088231-3.3220619 96.022928l-.1928643-.056326c.018368 2.196679-1.6168966 4.583003-4.8057903 6.481004-5.6818431 3.381573 2.6434653 5.099747 8.3247982 1.717657l14.7740168-29.470946c-3.195016-32.405535-11.115718-25.531806-3.195016-69.460217" fill="#40405b"/><path d="m147.194183 292.101816-49.4224886 30.316335c-8.0042695 4.910125-14.1916731 2.605712-13.7493823-5.121034l.4251798-7.422851c.4428092-7.726745 7.3540555-18.065956 15.3583251-22.976082l49.422489-30.316335c8.004269-4.910125 14.191673-2.605712 13.749382 5.121034l-.42518 7.422851c-.442291 7.726745-7.353537 18.065956-15.358325 22.976082" fill="#c73d6b"/><path d="m11.7980259 272.258696-7.63373479-68.59513c-1.48551712-9.980452 7.28359199-12.713355 18.99162159-5.918712l46.8202053 27.171357c8.4355411 4.895419 16.1961767 13.534153 19.402366 21.597348l17.707592 44.53281c5.076035 12.766426-12.1135945 33.565648-23.9324681 26.540687z" fill="#c73d6b"/><path d="m198.775897 226.479988-9.147662 6.233289c-3.372333 2.29722-8.022195 1.434562-10.33314-1.91848-2.311963-3.353041-1.443833-7.97681 1.929008-10.275041l9.147662-6.232784c3.372333-2.297726 8.022195-1.434561 10.33314 1.917974 2.311963 3.353042 1.443833 7.97681-1.929008 10.275042" fill="#3f3e5b"/><path d="m108.911038 212.311977c5.468276 4.931298 10.361839 10.333085 15.206435 15.871448 3.414773 3.903598 7.019742 7.547544 11.925676 9.452347 11.745788 4.561554 24.893051-3.354176 35.074486-8.501504 7.07541-3.576438 12.886967-6.871413 20.169582-8.686376 8.256793-2.057996 4.75955-14.909179-3.515283-12.847028-6.352251 1.583353-12.368436 4.549091-18.211951 7.45407-3.068914 1.525192-6.114634 3.09764-9.186641 4.617639-1.433947.709368-2.872533 1.408349-4.323489 2.081885-1.757126.815824-2.230813 1.030815-3.525592 1.542329-2.445751.966422-4.91985 1.729797-7.492399 2.264159-1.188598.246669.996341.046218-.524715.021811-.49482-.008309-.990671.027523-1.487037.012982-.541209-.015579-1.076749-.083088-1.616412-.114246 1.248905.071664.687594.097109-.128344-.115805-.440183-.115285-.906654-.356241-1.348384-.428944.840678.138654.989124.514629.140199.016099-.343281-.20149-.692233-.388958-1.027782-.604988-.69481-.4466-1.230349-1.140908-.314417-.178121-1.480336-1.55635-3.092625-2.95587-4.526572-4.575056-5.126025-5.788148-10.187105-11.518133-15.937325-16.702851-2.659657-2.398659-6.726974-2.64325-9.350035 0-2.421525 2.439684-2.671512 7.011625 0 9.42015" fill="#efa37e"/><path d="m96.473152 206.591689 25.713425 24.999041c8.355933 6.099096 19.334681-9.234999 12.854879-14.824315l-25.034812-26.111478c-4.157546-3.556458-9.775469-3.537674-12.9931158.043308-3.3537884 3.73282-4.4146432 11.64093-.5403762 15.893444" fill="#514e70"/><path d="m117.674591 226.881409c7.096535-2.283553 11.950658-6.145137 14.217099-13.267853.833135-2.619056-3.387387-3.738753-4.217388-1.129849-1.802601 5.666501-5.557194 8.496198-11.162444 10.300098-2.65872.855761-1.519493 4.960979 1.162733 4.097604" fill="#fffefe"/><path d="m158 132.916919h-.008874c-.001044-.515083-.152948-.542383-.480246-.728843l-12.094896-6.905715c-.724545-.413096-1.990411-.369314-2.826666.107652l-21.897137 12.47067c-.436398.24827-.664515.560926-.685395.863794l-.006786-.005151.03654 1.194993.006787.005665c-.108578.335319.029754.674244.445793.911182l12.095418 6.890263c.362272.206548.859745.296687 1.371311.275569.511567-.020603 1.037228-.15298 1.455355-.390948l21.896615-12.47479c.44475-.252906.671823-.574833.684873-.882852l.004698.029874z" fill="#a4bdd7"/><path d="m.429 1.4268-.035-1.3926 1.498 1.1622s-.421 1.2636-.467 1.2198c-.0455-.0438-.996-.9894-.996-.9894" mask="url(#a)" transform="translate(118 137)"/><path d="m12.7844324 21.2509767-11.89862159-6.8440465c-.71275676-.4103255-.62340541-1.1266046.19975676-1.5998604l21.54035133-12.39060468c.8231622-.47376745 2.0679189-.52493024 2.7806757-.11511628l11.8986216 6.84455814c.7127568.40981395.6234054 1.12609302-.1997567 1.59934883l-21.5403514 12.39060469c-.8231622.4737674-2.0679189.5249302-2.7806757.1151162" mask="url(#b)" transform="translate(118 125)"/><path d="m132 139.988957 8.652073-14.588015c.83334-.484784 2.093487-.537136 2.815056-.117793l12.045736 7.003713c.721569.419343.631113 1.152278-.202227 1.636538l-21.806676 12.678721c-.416929.242392-.940431.376938-1.449376.397879z" fill="#b0cadf"/><path d="m142 134.709978 2.133204-3.165022 11.866796-.544956-.003009 1.483004-12.968258 4.516996z" fill="#89a8ca"/><path d="m120 139.724701c0 .246279-.223622.346138-.5.221773-.276378-.124364-.5-.424554-.5-.671444 0-.246279.223622-.345525.5-.221773.276378.124364.5.424554.5.671444" fill="#3f3e5b"/><path d="m130.584546 145.717065-12.095402-7.002779c-.724545-.419287-.633716-1.152124.20306-1.63632l21.896588-12.677552c.836775-.484196 2.102118-.536542 2.826662-.117254l12.095402 7.002255c.724545.419811.633716 1.152124-.20306 1.636843l-21.896588 12.67703c-.836775.484196-2.102118.537064-2.826662.117777" fill="#3f3e5b"/><path d="m150.346051 128.95461-3.255352-1.627374c-.134325-.067421-.117534-.18552.037652-.263076.155187-.077557.391782-.08593.526107-.018949l3.254843 1.627814c.134325.066981.117534.18552-.037652.262636-.155187.077557-.391782.08637-.525598.018949" fill="#515073"/><path d="m125.800169 142.977255-2.599832-1.441676c-.110286-.061224-.200337-.226431-.200337-.367343s.090051-.206509.200337-.145285l2.599832 1.44119c.10978.061224.199831.226431.199831.367829 0 .140912-.090051.206023-.199831.145285" fill="#3f3e5b"/><path d="m152.177503 134.985771 1.644994-.648261c.097529-.038603.177503-.142875.177503-.231617 0-.088743-.079974-.130008-.177503-.091405l-1.644994.648262c-.097529.038159-.177503.142431-.177503.231173s.079974.130008.177503.091848" fill="#515073"/><path d="m150.177446 135.985509 1.645108-.648381c.097498-.038166.177446-.142457.177446-.231216s-.079948-.130031-.177446-.091421l-1.645108.647937c-.097498.03861-.177446.142901-.177446.23166s.079948.130031.177446.091421" fill="#515073"/><path d="m127.563813 140.709479c-.583478.389031-1.533262.387146-2.121095-.004399-.587832-.391545-.590554-1.025056-.006531-1.414088.584022-.389659 1.533807-.387774 2.121095.0044.587832.391545.590554 1.025056.006531 1.414087" fill="#515073"/><path d="m141.808103 125.084389-18.485023 10.415696c-.430773.242939-.430773.849009 0 1.091948l11.222657 6.323578c.200189.112519.445971.112519.64616 0l18.485023-10.415696c.430773-.242428.430773-.849009 0-1.091436l-11.223181-6.32409c-.199665-.112519-.445447-.112519-.645636 0" fill="#9bc1dd"/><path d="m309.368444 225.965142c-4.867211 2.725326-12.780993 2.711158-17.679504-.030866-4.898511-2.742023-4.919378-7.174599-.057384-9.899418 4.867211-2.725326 12.780993-2.711158 17.679504.030866 4.898511 2.742023 4.919378 7.174599.057384 9.899418" fill="#829db3"/><path d="m283 204 5.81011 17.60129 24.580839.39871 5.609051-16.963761z" fill="#829db3"/><path d="m312.063186 205-5.579166 17.194559c-.317638 1.011445-1.475481 2.721798-3.478653 3.863719-1.449866.825844-3.176384 1.329038-5.005367 1.639552 4.124177.684748 8.714565.229597 11.947304-1.61022 2.003172-1.142427 3.155892-2.881606 3.47353-3.893051h.005124l5.574042-17.194559z" fill="#718c9e"/><path d="m313.622855 209.947979c-7.201631 4.087616-18.918652 4.066551-26.162091-.046754-7.248666-4.113304-7.285249-10.761588-.083619-14.849204 7.201631-4.087616 18.913426-4.066551 26.162091.046754 7.248666 4.113304 7.285249 10.761588.083619 14.849204" fill="#90adc2"/><path d="m311.494678 208.383566c-6.034194 3.504082-15.848046 3.486126-21.917945-.039504-6.074999-3.525629-6.105604-9.224508-.071411-12.728077 6.034194-3.503568 15.848046-3.485612 21.917945.040018 6.074999 3.525629 6.105604 9.223995.071411 12.727563" fill="#2c2e46"/><path d="m288.601607 198.785209c-.770555-.991197-1.45724-2.10777-1.583044-3.347665-.131047-1.240409.435075-2.61904 1.593528-3.131852 1.34716-.596054 2.94593.146444 3.989061 1.170526 1.043132 1.024083 1.787477 2.328207 2.914479 3.263909-1.441514-4.481195-2.888269-8.961876-4.329783-13.44307-.440317-1.360134-.885876-2.79426-.587089-4.19139.293544-1.39713 1.609253-2.697658 3.045525-2.466944 2.757223.443958 2.353599 5.021241 4.806793 6.333587-1.787477-3.33225-3.014074-6.953791-3.611647-10.672962-.351205-2.175083-.466526-4.505859.534671-6.477461 1.001197-1.971603 3.443907-3.384661 5.545896-2.602598 2.594725.96756 3.103186 4.292616 3.19754 7.015452.120563 3.503358.235884 7.006716.356447 10.509561.875392-3.507983 2.233036-7.555497 5.729362-8.69468.95402 4.805942.2254 9.91659-2.033845 14.282685.927811-1.593931 2.731014-2.658606 4.602361-2.712045.880633 4.901001-.828216 10.181217-4.434621 13.685089.995955-1.083688 1.986668-2.167376 2.982623-3.250549.891118 3.395451-.319754 7.236402-3.003591 9.552791-6.290241 5.425632-15.442544.672102-19.714666-4.822384" fill="#5bbba4"/><path d="m168.926718 137.7817 90.186812 52.951451c.62962.371094 1.45019.354156 2.141739-.044654l6.51295-3.740195c1.496637-.8587 1.666944-2.931283.304488-3.730443l-90.186296-52.951451c-.631684-.370581-1.448125-.353643-2.142255.045167l-6.513466 3.740195c-1.49612.8587-1.664879 2.931283-.303972 3.72993" fill="#a4bdd7"/><path d="m262.876754 187 5.123246-3.366372-14-16.633628 4.921502 7.881675z" fill="#86a4bf"/><path d="m161 40.8953382 4.979328-3.8953382 11.020672 11.9856561s-7.028261 5.0143439-7.666855 5.0143439c-.639127 0-8.333145-13.1046618-8.333145-13.1046618" fill="#b2c9dc"/><path d="m199.49115 179.303397-20.299895-11.874078c-1.628915-.952723-1.581021-2.502332.105058-3.408619l28.667976-15.403222c1.58823-.853068 4.05246-.818111 5.587131.079306l18.254353 10.67874c1.550121.904721 1.596471 2.359371.108148 3.286528l-26.625008 16.598039c-1.554756.969419-4.181208.988724-5.797763.043306" fill="#86a4bf"/><path d="m24.5679512 24.6602041c-1.0305366 0-2.0641463-.2265306-2.8549756-.6816327l-20.18970731-11.6112245c-.15263414-.0877551-.29092683-.1811224-.41385366-.2780612-1.18265853-.9341837-1.00031707-2.25255101.51834147-3.05459182l17.0012927-8.98163266-1.4290244.75510205 24.656561 14.31581633-14.3773171 8.8122449c-.7857073.4816326-1.8469756.7239796-2.9113171.7239796" mask="url(#c)" transform="translate(178 153)"/><path d="m196 153 3-2z" fill="#7e91ae"/><path d="m220.095398 168-.095398-.053699 4.904602-2.946301.095398.053151z" fill="#697e9a"/><path d="m25.2 17.811-24.89948276-14.85476471 1.44310345-.78352941 3.20844828-1.74123529 24.76862073 14.53288231z" mask="url(#d)" transform="translate(195 150)"/><path d="m266.849306 94.7317775-.134162.0320613h.030961l-98.17691-57.0149534-.912815-.5895157c-.748209-.4359313-1.65638.0641228-1.65638.9933856l.826642.2451144h.552127v90.5170243c0 1.009416.384425 2.223094 1.197135 2.696775 0 0 99.315735 48.382169 99.315735 47.372753l.108361-81.7306553v-.1468618c0-.9287456-.407645-1.9391961-1.150694-2.3751274" fill="#b2c9dc"/><path d="m226 130.177568c12.848342-12.802754 20.085601 23.52851 28.206086 43.444535 4.073231 9.98761 13.643246 9.37043 13.643246 9.37043l.150668-84.9036951v-.388633c0-.501877-.036368-1.2256094-.28575-1.7002049z" fill="#86a4bf"/><path d="m101.835427 86.7446627c-.201859 0-.429598-.0643491-.667688-.2007692l-37.69593-21.4931184-.0879899-.0499349-61.77049749-35.2195562c-.82141206-.4684615-1.4937588-1.6133609-1.4937588-2.5441065l.00155277-11.0073018c.24792462.5755385.67234673 1.1068048 1.15163316 1.3817042l99.96227626 57.4009526c.217387.1245799.419246.1832663.605578.1832663.455477 0 .76603-.3649881.76603-.9920059l-.160452-72.5075503c0-.54259171-.238091-1.16034319-.595226-1.65557396.486532.55752071.822965 1.32301775.822965 1.98143787l-.010352 75.40892309v3.3106331l-.005176 4.961574c0 .6594497-.336432 1.041426-.822965 1.041426" mask="url(#e)" transform="translate(161 100)"/><path d="m262.626722 174.815793-100.083981-57.627076c-.758672-.436197-1.380534-1.516353-1.382606-2.399083l-.16013-72.7931842c-.002073-.8832469.61668-1.2486392 1.374833-.8119256l100.080872 57.6265595c.761781.4367136 1.383642 1.5163523 1.383642 2.3995993l.160648 72.793184c0 .88273-.61668 1.248123-1.373278.811926" fill="#3f3e5b"/><path d="m257.798681 165-93.798681-54.067038.202868-62.932962 93.797132 54.067038z" fill="#9bc1dd"/><path d="m235.640138 101.839189-51.278719-29.1098437c-.752076-.4266375-1.361419-1.571312-1.361419-2.5572733 0-.985451.609343-1.4381154 1.361419-1.0114779l51.278719 29.1098438c.752596.4266375 1.359862 1.5718224 1.359862 2.5572731 0 .985451-.607266 1.438626-1.359862 1.011478" fill="#6a678d"/><path d="m235.640742 118.835284-41.279928-24.0146684c-.751223-.43702-1.360814-1.6100738-1.360814-2.6195064 0-1.0099554.609072-1.4736357 1.360814-1.0366157l41.279928 24.0146685c.752261.43702 1.359258 1.610074 1.359258 2.619507 0 1.009955-.606997 1.474158-1.359258 1.036615" fill="#c73d6b"/><path d="m235.671736 127.834582-13.338403-7.990486c-.735107-.440205-1.333333-1.619871-1.333333-2.635972 0-1.015575.598226-1.482603 1.333333-1.042397l13.338403 7.990486c.735108.439679 1.328264 1.619871 1.328264 2.635446s-.593156 1.482602-1.328264 1.042923" fill="#6a678d"/><path d="m201.687406 108.831932-6.374812-3.928378c-.725104-.446516-1.312594-1.645058-1.312594-2.676424s.58749-1.505656 1.312594-1.05914l6.374812 3.928378c.724604.446516 1.312594 1.645058 1.312594 2.676424 0 1.031901-.58799 1.505656-1.312594 1.05914" fill="#6a678d"/><path d="m193.692186 112.836679-8.38487-5.041538c-.721966-.434625-1.307316-1.599335-1.307316-2.602554 0-1.0027.58535-1.463287 1.307316-1.029182l8.38487 5.041539c.721965.434105 1.307814 1.599334 1.307814 2.602034s-.585849 1.463806-1.307814 1.029701" fill="#6a678d"/><path d="m207.664542 129.837624-22.329084-13.066191c-.737735-.431394-1.335458-1.589347-1.335458-2.585786 0-.996954.597723-1.454665 1.335458-1.023271l22.329084 13.066191c.737226.43191 1.335458 1.589347 1.335458 2.585786 0 .996954-.598232 1.454665-1.335458 1.023271" fill="#c73d6b"/><path d="m235.647521 136.839416-35.293494-20.114903c-.747993-.426036-1.354027-1.569606-1.354027-2.553667s.606034-1.436597 1.354027-1.010561l35.293494 20.114903c.743347.426546 1.352479 1.569606 1.352479 2.554177 0 .984061-.609132 1.436596-1.352479 1.010051" fill="#6a678d"/><path d="m215.708203 115.842534-5.418864-3.185153c-.712258-.418849-1.289339-1.541284-1.289339-2.507589 0-.966805.577081-1.410675 1.289339-.992326l5.418864 3.185153c.711766.418348 1.291797 1.541284 1.291797 2.507589 0 .966805-.580031 1.410675-1.291797.992326" fill="#6a678d"/><path d="m208.635526 94.8388373-14.271052-8.1008306c-.753764-.4275708-1.364474-1.5752609-1.364474-2.5628677 0-.9881183.61071-1.441773 1.364474-1.0142021l14.271052 8.101342c.753764.4275709 1.364474 1.5747495 1.364474 2.5628678 0 .9876068-.61071 1.4417729-1.364474 1.0136906" fill="#6a678d"/><path d="m218.582908 99.8433482-4.164194-2.2097563c-.783727-.4161003-1.418714-1.5311697-1.418714-2.4911336 0-.960461.634987-1.4019152 1.418714-.9858148l4.164194 2.2102534c.784269.4156033 1.417092 1.5311698 1.417092 2.4911337 0 .9599638-.632823 1.4014184-1.417092.9853176" fill="#c73d6b"/><path d="m190.007582 121-22.007582-11.223973 32.209319-11.6386389 20.977963 11.8892709-5.789011 2.037666-4.876677-2.763584c-.192016-.109015-.37469-.160466-.540239-.160466-.483152 0-.820996.438098-.820996 1.170639 0 .983683.60926 2.126304 1.361235 2.552686l.998481.565962-6.391006 2.249073-4.440749-2.517026c-.192016-.108506-.37469-.160467-.540758-.160467-.482634 0-.820477.438099-.820477 1.170639 0 .983684.60926 2.126814 1.361235 2.552686l.562553.318895-5.872563 2.066193-10.014911-5.675918c-.192534-.109015-.375209-.160466-.540757-.160466-.482634 0-.820478.438098-.820478 1.170639 0 .983683.609261 2.126814 1.361235 2.552686l6.136715 3.478296zm-5.18494-16.683899c-.482634 0-.820478.438098-.820478 1.170129 0 .984193.609261 2.126814 1.360716 2.553196l8.727369 4.945924c.192015.108506.374689.159957.540238.159957.482634 0 .820996-.437589.820996-1.170129 0-.983684-.609779-2.126814-1.361234-2.552686l-8.727369-4.945925c-.192015-.109015-.37469-.160466-.540238-.160466m10.377664-3.552162c-.482633 0-.820477.437589-.820477 1.17013 0 .983683.60926 2.126814 1.361235 2.552686l6.611045 3.746758c.192015.109016.37469.160467.540238.160467.482634 0 .820997-.438099.820997-1.170639 0-.983684-.60978-2.126814-1.361235-2.552686l-6.611045-3.746759c-.192535-.108505-.375209-.159957-.540758-.159957m29.868804 7.897994-21.020518-11.911686 5.608932-2.0269682c.090818.0269991.178522.0397345.261556.0397345.261037 0 .479001-.1273541.624829-.3601575l6.860146-2.4783112 18.495773 10.4822634c.192015.109015.373652.160466.539719.160466.482634 0 .819959-.437589.819959-1.17013 0-.983683-.607185-2.1268137-1.359678-2.5526858l-14.655461-8.3070547 7.021544-2.5374035 21.734089 11.8877431zm-11.184129-14.9223374c-.482634 0-.820478.4375887-.820478 1.170639 0 .9836833.60926 2.1263045 1.361235 2.5526861l3.995481 2.2643562c.192016.1090152.373652.1604662.53972.1604662.482633 0 .819958-.4375887.819958-1.1701296 0-.9836833-.607184-2.1268139-1.359678-2.5526861l-3.995481-2.2648657c-.192016-.1090151-.37469-.1604661-.540757-.1604661" fill="#b6d3e5"/><path d="m236.174072 103c-.167276 0-.350235-.051323-.543649-.160068l-18.630423-10.4562352 3.86827-1.3836968 14.762153 8.2864281c.757972.4248148 1.369577 1.5651069 1.369577 2.5463479 0 .730722-.33978 1.167224-.825928 1.167224" fill="#8f8fa9"/><path d="m221.096278 110-21.096278-11.6417389 3.860927-1.3582611 21.139073 11.663687z" fill="#d66e90"/><path d="m202.20834 109c-.159633 0-.33578-.053946-.520934-.168247l-6.374812-3.928428c-.725104-.446522-1.312594-1.64508-1.312594-2.676459 0-.76806.325771-1.226866.791159-1.226866.159633 0 .33578.053946.521435.167713l6.374812 3.928428c.724604.446522 1.312594 1.645079 1.312594 2.676459 0 .76806-.326272 1.2274-.79166 1.2274" fill="#8f8fa9"/><path d="m194.211223 113c-.159052 0-.334557-.052446-.519037-.163051l-8.38487-5.041599c-.721966-.43463-1.307316-1.599354-1.307316-2.602585 0-.746192.324585-1.192765.788278-1.192765.159052 0 .334558.052446.519038.16357l8.38487 5.0416c.721965.43411 1.307814 1.599353 1.307814 2.602065 0 .746711-.325084 1.192765-.788777 1.192765" fill="#8f8fa9"/><path d="m191.250034 121-5.933808-3.380915c-.727111-.41395-1.316226-1.525076-1.316226-2.48122 0-.712032.326673-1.137865.793349-1.137865.160075 0 .336709.050011.522877.155974l9.683774 5.517012z" fill="#d66e90"/><path d="m200.989445 117-.581753-.315564c-.777638-.421424-1.407692-1.552615-1.407692-2.526024 0-.72489.349374-1.158412.848479-1.158412.171736 0 .360644.051418.559213.15879l4.592308 2.490737z" fill="#8f8fa9"/><path d="m211.269717 113-.960399-.527791c-.723295-.397625-1.309318-1.463183-1.309318-2.380523 0-.683135.324958-1.091686.789684-1.091686.159234 0 .334942.047981.519634.149644l4.690682 2.577197z" fill="#8f8fa9"/><path d="m209.295082 94.8535c-.093677 0-.192623-.025-.295082-.078l1-.629c-.16452.457-.410422.707-.704918.707" fill="#8f8fa9"/><path d="m219.145418 100c-.17308 0-.362386-.0502113-.56251-.1565996l-4.164194-2.2097936c-.783727-.4161074-1.418714-1.5311957-1.418714-2.4911758 0-.7153865.352109-1.142431.855123-1.142431.17308 0 .363468.0502113.563591.1565996l4.164194 2.2102908c.784269.4156102 1.417092 1.5311956 1.417092 2.4911757 0 .7148894-.351569 1.1419339-.854582 1.1419339" fill="#d66e90"/><path d="m168 105v-10.1262724l25.913111-9.0211338c.223726.3365904.497919.6150425.794485.7828278l10.172737 5.7572264-5.699792 1.9486547-4.472945-2.5315681c-.192508-.1091369-.37565-.1606454-.541623-.1606454-.484391 0-.823101.4385875-.823101 1.1719467 0 .984782.611342 2.1291895 1.364724 2.5555374l.543705.3075213zm40.809573-13.9506538-11.359001-6.4283674 4.011967-1.3968504 11.387097 6.444177zm7.967742-2.7243426-11.412591-6.4589666 5.359001-1.866037 12.276275 6.197854z" fill="#b6d3e5"/><path d="m213.153049 89-11.153049-6.6074907 3.821981-1.3925093 11.178019 6.6226551z" fill="#8f8fa9"/><path d="m194.961497 95-.558823-.3048534c-.774332-.4226491-1.402674-1.5571284-1.402674-2.533367 0-.726997.348128-1.1617796.845989-1.1617796.170589 0 .358824.0510617.556685.1592518l4.597326 2.5096056z" fill="#d66e90"/><path d="m205.043449 92-10.243442-5.9263731c-.298627-.1727148-.574727-.4593477-.800007-.8058272l3.562048-1.2677997 11.437952 6.6172321z" fill="#8f8fa9"/><path d="m208 149.522315c0 2.219432-1.567267 3.113385-3.499734 1.996743-1.932999-1.116642-3.500266-3.821408-3.500266-6.041373 0-2.219432 1.567267-3.113385 3.500266-1.996743 1.932467 1.116642 3.499734 3.821408 3.499734 6.041373" fill="#a4bdd7"/><path d="m90.7107148 139c-.9127084 0-2.0809108-.343166-3.5774526-1.22506-6.7821087-3.997031-6.1152532-12.772276-6.1152532-12.772276s.0369583-.002664.1092679-.002664c.7948705 0 5.8560097.294675 12.8689737 7.364747l.0037494.087923-.0321376 2.258821s-.0321376 4.288509-3.2571476 4.288509" fill="#f6fbfc"/><path d="m81.6191756 125.223701s5.0587679-.008198 12.2980483 6.832966l-.0391991 1.949568s-.0726489 5.881495-6.4960664 2.188844c-6.4234175-3.693162-5.7627828-10.971378-5.7627828-10.971378zm5.5798539 12.141119c8.6337212 4.963328 8.7309349-2.95535 8.7309349-2.95535l.0700356.036891-.1233463-2.70224c-9.4595145-8.828135-15.7700388-8.744106-15.7700388-8.744106s-1.5407839 9.401477 7.0924146 14.364805z" fill="#442f44"/><path d="m99 136-4.8733802-2.828113-.1266198-3.171887 4.8733802 2.828113z" fill="#442f44"/><path d="m81.0611816 124.909654-1.0069531-.474556c-.5493521-.258469-1.0208023-.993063-1.0525401-1.640804-.0317378-.647217.3877779-.962716.93713-.703725l1.0069531.474034c.5493521.258991 1.0208023.993586 1.0525401 1.640803.0317378.647741-.3877779.962717-.93713.704248" fill="#442f44"/><path d="m114.061182 141.909648-1.006953-.474033c-.54993-.258991-1.020803-.993583-1.052541-1.641323-.031737-.647216.387778-.962714.936553-.703723l1.007531.474555c.549352.258468 1.020225.993061 1.05254 1.6408.031737.647216-.387778.962191-.93713.703724" fill="#442f44"/><path d="m108.126726 148c-.571561 0-1.253076-.163981-2.064306-.541667-6.1873448-2.880249-6.8333905-10.061035-6.8333905-10.061035l-.2290295-2.397298c6.711782.012166 11.868493 5.800171 11.868493 5.800171s1.042287 7.200358-2.741767 7.199829" fill="#f6fbfc"/><path d="m106.289307 145.77038c-6.368574-2.881639-6.9905723-9.234187-6.9905723-9.234187l-.222105-2.121692c6.9280083.387802 12.2147323 5.769018 12.2147323 5.769018s1.36652 8.467977-5.002055 5.586861zm6.375874-6.352549s-6.601628-6.791501-15.665181-7.417831l.1225227 2.752197.069864.035492s.8373255 8.55201 9.3967103 12.424815c8.559385 3.872283 6.076084-7.794673 6.076084-7.794673z" fill="#442f44"/><path d="m100.227809 138.673929c-.2402316-.296381-.2999847-.661201-.13353-.814482l1.940755-1.791295c.166455-.153847.496316-.038462.737157.257919.240232.296381.299985.661201.13353.815048l-1.940755 1.790729c-.166455.153847-.496316.038462-.737157-.257919" fill="#fffefe"/><path d="m82.2280581 128.673929c-.240213-.296381-.3005711-.661201-.1335194-.814482l1.9406039-1.791295c.166442-.153847.4962776-.038462.7364905.257919.2408227.296381.3005711.661201.1341291.814482l-1.9406039 1.791295c-.166442.153847-.4962776.038462-.7371002-.257919" fill="#fffefe"/><path d="m70.0210065 172.608454 4.223544-23.608454 14.7554495 8.958862-3.3604855 21.473206c-.2659153 3.475002-16.2980693 1.162289-15.618508-6.823614" fill="#efa37e"/><path d="m80.9895193 116.113567s-13.6992488-9.686063-14.9318264 12.41266c-.8571994 15.372074 7.9271656 29.189961 20.3912658 35.855672 7.7615879 4.150575 17.7188813-.13021 18.5370003-7.763642 2.451785-11.069414 3.000969-21.509132-.257109-30.689459.986268-9.204807-5.6049623-6.254769-16.682734-7.429263z" fill="#efa37e"/><path d="m72.4803236 161.446885c-1.02956-1.150281-2.1154771-2.251681-3.4581318-3.017668-4.6927688-2.677576-13.6853725-10.001519-11.7546214-26.168379 2.8001109-23.451281 23.4998499-18.849636 36.5449436-20.860549 5.3132183-.819029 9.126713-.817469 14.351742 4.325516 4.752257 4.677568-.415372 14.384236-7.586286 14.662446-2.843944.110764-1.9375346 7.776359-2.6425197 10.354611-1.2539446 4.585005-4.2674817 6.704081-5.569956 11.14452-1.2320279 4.201231-7.9176449 10.113843-11.9805714 10.810148-4.8138321.82527-6.9538349-.187207-7.9045993-1.250645" fill="#3a271d"/><path d="m113.740579 143.230103-20.3638529.768788c-.7244309.027281-1.3431825-.452149-1.3754147-1.064854-.0322322-.613153.5336799-1.136859 1.2581108-1.16414l20.3633248-.768788c.72443-.027281 1.343182.452149 1.375943 1.064854.032232.613153-.534209 1.136859-1.258111 1.16414" fill="#442f44"/><path d="m95.9940589 147.339038c.1333535 3.588341-1.9944102 6.569639-4.7525232 6.658998-.3020535.009485-.5987515-.015476-.8879517-.072885-2.3569816-.467762-4.2287495-3.067662-4.3476429-6.264121-.1333535-3.58884 1.9944102-6.570138 4.7530587-6.658998 2.758113-.08886 5.1017057 2.748166 5.2350591 6.337006" fill="#efa37e"/><path d="m96 182c-16.2887258-3.259841-28.570044 6.570861-30-17.345256 2.573817-1.376111 5.6118246-.507098 6.9820693 1.895219 2.4055869 4.218157 8.1736993 7.086316 14.9356156 6.586529 2.0239538-.149884 3.8890235.85909 4.7987123 2.595548z" fill="#6a678d"/><path d="m228.016063 261.924353-30.732209-17.65975c-.378472-.217163-.378472-.761617 0-.979296l42.132892-24.20966c.175793-.100863.392949-.100863.568742 0l30.727556 17.659235c.382608.217678.382608.762132 0 .979296l-42.128239 24.210175c-.175793.100863-.392949.100863-.568742 0" fill="#cc3d6c"/><path d="m197 244h1v-2h-1z" fill="#cc3d6c"/><path d="m270 237h2v-1h-2z" fill="#cc3d6c"/><path d="m228.016063 260.924353-30.732209-17.65975c-.378472-.217163-.378472-.761617 0-.979296l42.132892-24.20966c.175793-.100863.392949-.100863.568742 0l30.727556 17.659235c.382608.217678.382608.762132 0 .979811l-42.128239 24.20966c-.175793.100863-.392949.100863-.568742 0" fill="#de4371"/><path d="m259.015371 279.923967-30.732297-17.659129c-.377432-.217677-.377432-.761613 0-.97929l42.132821-24.209515c.175791-.101377.392943-.101377.568734 0l30.732297 17.659129c.377432.217677.377432.761613 0 .97929l-42.132821 24.209515c-.175791.101377-.392943.101377-.568734 0" fill="#cc3d6c"/><path d="m228 261h1v-1h-1z" fill="#cc3d6c"/><path d="m300 254h2v-1h-2z" fill="#cc3d6c"/><path d="m259.015371 278.924354-30.732297-17.659591c-.377432-.217677-.377432-.761611 0-.979288l42.132821-24.209443c.175791-.101376.392943-.101376.568734 0l30.732297 17.659077c.377432.217676.377432.76161 0 .979287l-42.132821 24.209958c-.175791.100861-.392943.100861-.568734 0" fill="#de4371"/><path d="m208 246.164122 19.913854 12.835878 12.086146-9.609311s-23.462552-9.551254-32-3.226567" fill="#cc3d6c"/><path d="m28.1343511 23.8252174c-1.4170992-5.3765217-9.7380152-8.1542609-20.27022896-12.6824348-2.37221374-1.02-4.85654962-2.1281739-7.40006107-3.37565217-.44277863-.25669565-.38671756-.70956521.12458015-1.00643478l4.25025954-2.46626087c.01453435.01252174.02958779.02504348.04567939.03704348 12.33343515 7.89130434 24.51114505 11.81217394 23.24977095 19.49373914l39.3569466-23.08069566c.0103817-.07617391.0155725-.15182609.0207634-.22852174.0103816.15182609.0103816.30365217.0051908.456z" mask="url(#f)" transform="translate(200 235)"/><path d="m24.0390244 41.8284146c1.2643902-7.5410487-10.942439-11.3901951-23.30536586-19.1371463-.01613008-.0117805-.03121952-.0240732-.04578862-.0363659-.33977236-.2919512-.24247155-.7406341.23310569-1.0197804l36.38113819-21.36621956c.2497561-.14597561.556748-.21870732.8481301-.21870732s.5723577.07221951.7648781.21665854c13.668943 5.37343902 22.7278048 11.29236584 24.3460162 16.66990244.2029268.6786585.2861789 1.3496341.2497561 2.0088293-.0052032.0752926-.0104065.1495609-.020813.2243414zm-13.4093008-18.7304634c-.1222764 0-.2487155.0256098-.3506992.0778537-.2065691.1055122-.236748.2776097-.067122.3846585l13.3380163 8.3969268c.083252.0537805.2029268.0809269.3278049.0809269.124878 0 .2497561-.026122.3538211-.0783659.2029268-.1055122.2341464-.2776097.062439-.3841463l-13.3338536-8.3969269c-.0858537-.0542926-.2055285-.0809268-.3304065-.0809268m4.3764553-2.7832683c-.1248781 0-.2497561.026122-.3538212.0783659-.2029268.1055122-.2341463.2776097-.0676423.3846585l13.335935 8.3969268c.0884553.0537805.2081301.0809269.3330081.0809269.1196748 0 .2497561-.026122.3486179-.0783659.2081301-.1055122.2393496-.2776097.0676423-.3841463l-13.335935-8.397439c-.083252-.0537805-.2029268-.0809269-.3278048-.0809269m4.3759349-2.7827561c-.124878 0-.2497561.026122-.3538211.0783659-.2081301.1055122-.2341464.2776097-.0676423.3846585l13.335935 8.3969268c.0884553.0537805.20813.0809269.3330081.0809269.1196748 0 .2445528-.026122.3486179-.0783659.2081301-.1055122.2393496-.2776097.0676423-.3841463l-13.335935-8.397439c-.083252-.0537805-.2081301-.0809269-.3278049-.0809269m4.4747968-3.8450488c-.1196748 0-.2497561.026122-.3486179.0783659-.2081301.1055122-.2393496.2770976-.0676423.3841463l13.335935 8.3974391c.083252.0537805.2029268.0804146.3278048.0804146.1248781 0 .2497561-.0256098.3538212-.0778537.2029268-.1055122.2341463-.2776097.062439-.3846585l-13.3307317-8.3969268c-.0884553-.0537805-.2081301-.0809269-.3330081-.0809269m4.3759349-2.782756c-.124878 0-.2497561.0261219-.3538211.0783658-.2029268.1055122-.2341464.2770976-.062439.3841463l13.3359349 8.3969269c.0832521.0542927.2029269.0809268.3278049.0809268.1248781 0 .2497561-.0256098.3486179-.0778537.2081301-.1055121.2393496-.2776097.0676423-.3846585l-13.335935-8.3969268c-.083252-.0537805-.2029268-.0809268-.3278049-.0809268m4.375935-2.78275615c-.1248781 0-.2497561.02612195-.3538212.07836586-.20813.10551219-.2341463.27709756-.0676422.38414634l13.3359349 8.39692685c.0884553.0542927.2081301.0809268.3330082.0809268.1196748 0 .2497561-.0256097.3486178-.0778537.2081301-.1055121.2393496-.2776097.0676423-.3846585l-13.3359349-8.39692682c-.0832521-.05378048-.2029269-.08092683-.3278049-.08092683m4.3707317-2.78275609c-.1196748 0-.2445529.02612195-.3486179.07836585-.2081301.105-.2341463.27709756-.0676423.38414634l13.335935 8.39692685c.0884553.0542927.2081301.0809268.3330081.0809268.1196748 0 .2445529-.0261219.3486179-.0778536.2081301-.1055122.2393496-.2776098.0676423-.3846586l-13.335935-8.39692681c-.0884553-.05378049-.2081301-.08092683-.3330081-.08092683m4.375935-2.7827561c-.1196748 0-.2497561.02612195-.3486179.07836585-.2081301.105-.2393496.27709756-.0676423.38414634l13.335935 8.39692685c.083252.0542927.2029268.0809268.3278048.0809268.1248781 0 .2497561-.0261219.3538212-.0783658.20813-.105.2341463-.2770976.0676422-.3841464l-13.3359349-8.39692681c-.0884553-.05378049-.2081301-.08092683-.3330081-.08092683" mask="url(#g)" transform="translate(204 217)"/><path d="m13.47 9.70789474c-.12 0-.235-.02736842-.315-.0831579l-12.815-8.62842105c-.165-.11-.135-.28684211.065-.39473684.095-.05368421.22-.08052632.335-.08052632.12 0 .235.02789474.32.0831579l12.815 8.62842105c.16.11.135.2868421-.065.39473684-.1.05368421-.22.08052632-.34.08052632" mask="url(#h)" transform="translate(245 218)"/><path d="m13.27 8.939c-.12 0-.235-.026-.32-.079l-12.815-8.197c-.16-.1045-.135-.2725.065-.375.1-.051.22-.0765.335-.0765.12 0 .235.0265.32.079l12.815 8.197c.165.1045.135.2725-.065.3755-.1.0505-.22.076-.335.076" mask="url(#i)" transform="translate(241 222)"/><path d="m14.0327586 9.63736842c-.1241379 0-.2431034-.02736842-.3310345-.08315789l-13.25689651-8.62842106c-.16551724-.11-.13965518-.28631579.06724138-.39473684.10344827-.05368421.2275862-.08052631.35172413-.08052631s.24310345.02789473.32586207.08315789l13.25689653 8.62842105c.1706897.11.1396552.28684211-.0672414.39526316-.0982758.05368421-.2275862.08-.3465517.08" mask="url(#j)" transform="translate(236 224)"/><path d="m13.36 8.872c-.12 0-.235-.026-.315-.079l-12.815-8.197c-.165-.1045-.135-.272.06-.375.1-.051.22-.0765.34-.0765s.235.0265.315.079l12.815 8.197c.165.1045.135.2725-.065.3755-.095.051-.215.076-.335.076" mask="url(#k)" transform="translate(232 228)"/><path d="m14.1258621 9.56684211c-.124138 0-.2431035-.02736843-.3258621-.08263158l-13.25689655-8.62894737c-.17068966-.11-.13965517-.28631579.06724138-.39473684.09827586-.05368421.2275862-.08052632.34655172-.08052632.12413793 0 .24310345.02789474.33103448.0831579l13.25172417 8.62842105c.1706896.11.1396551.2868421-.062069.39526316-.1034483.05368421-.2275862.08-.3517241.08" mask="url(#l)" transform="translate(227 230)"/><path d="m13.355 8.8425c-.12 0-.235-.0265-.32-.079l-12.815-8.197c-.16-.1045-.135-.2725.065-.3755.1-.051.22-.0765.34-.0765.115 0 .235.0265.315.079l12.815 8.1975c.165.104.135.272-.065.375-.1.051-.22.0765-.335.0765" mask="url(#m)" transform="translate(223 234)"/><path d="m14.1206897 9.53578947c-.124138 0-.2431035-.02789473-.3310345-.08315789l-13.25689658-8.62842105c-.16551724-.11-.13448276-.28684211.06724138-.39526316.10344828-.05368421.22758621-.08052632.35172414-.08052632s.24310345.02789474.32586207.0831579l13.25689659 8.62894737c.1706896.10947368.1396551.28631579-.0672414.39473684-.0982759.05368421-.2275862.08052631-.3465517.08052631" mask="url(#n)" transform="translate(218 237)"/><path d="m13.445 8.7755c-.12 0-.235-.0265-.315-.079l-12.817-8.197c-.163-.1045-.134-.2725.0645-.3755.098-.051.2195-.076.337-.076.12 0 .235.026.3175.079l12.813 8.197c.165.104.135.272-.06.375-.1.051-.22.0765-.34.0765" mask="url(#o)" transform="translate(215 240)"/><path d="m228 259.266859 16 7.733141s-11.271111-13.03085-16-7.733141" fill="#cc3d6c"/><path d="m228 258.773203s3.786143-1.405436 6.841991 1.114335c3.055847 2.519772 22.545939 17.112462 22.545939 17.112462l39.61207-22.571623s-21.168218-20.462695-29.703873-18.262927z" fill="#fffffe"/><g fill="#ceced7"><path d="m285.488213 249c-.129073 0-.258146-.028958-.345915-.085876l-13.036358-8.471763c-.165213-.107844-.134235-.275103.072281-.373461.098096-.045933.216843-.0689.33559-.0689.129072 0 .252982.029457.340752.086375l13.04152 8.471763c.165213.107844.129073.275103-.077444.373461-.098095.045933-.216842.068401-.330426.068401"/><path d="m281.488198 252c-.129077 0-.258153-.028958-.345925-.085876l-13.036739-8.471763c-.165218-.108343-.134239-.275103.077446-.373461.092935-.045933.211686-.0689.330436-.0689.129077 0 .252991.029457.340763.086375l13.041901 8.471763c.165218.107844.129077.275103-.077446.373461-.098098.045933-.216849.068401-.330436.068401"/><path d="m276.486584 254c-.129077 0-.252991-.029456-.340763-.08637l-13.041901-8.471793c-.165218-.107838-.129077-.274588.077446-.37294.098098-.045931.211686-.068897.330436-.068897.129077 0 .258153.029456.345925.08637l13.036739 8.471294c.165218.107838.134239.275087-.077446.373439-.092935.045931-.211686.068897-.330436.068897"/><path d="m272.491352 257c-.134235 0-.258145-.029456-.345915-.08637l-13.04152-8.471793c-.165213-.107838-.129073-.274588.077444-.37294.098095-.045931.216842-.068897.330426-.068897.129073 0 .258146.029456.345915.08637l13.036358 8.471294c.165213.107838.134235.275087-.072281.373439-.098096.045931-.216843.068897-.330427.068897"/><path d="m267.491317 260c-.134245 0-.258164-.028958-.345939-.085876l-13.037265-8.472262c-.170388-.107345-.134245-.274604.072285-.372962.098103-.045933.216858-.0689.33045-.0689.129082 0 .258164.029457.345939.086375l13.037265 8.472263c.165225.107344.134245.274603-.072286.372961-.098102.045933-.216857.068401-.330449.068401"/><path d="m263.486584 263c-.129077 0-.252991-.029457-.340763-.086375l-13.041901-8.471763c-.165218-.107844-.129077-.275103.077446-.373461.098098-.045933.216849-.068401.330436-.068401.129077 0 .258153.028958.345925.085876l13.036739 8.471763c.165218.108343.134239.275103-.077446.373461-.092935.045933-.211686.0689-.330436.0689"/><path d="m258.491352 266c-.134235 0-.258145-.028958-.345915-.086375l-13.04152-8.471763c-.165213-.107844-.129073-.275103.077444-.372962.098095-.046432.216842-.0689.330426-.0689.129073 0 .258146.028958.345915.085876l13.036358 8.472262c.165213.107345.134235.274604-.072281.372962-.098096.045933-.216843.0689-.330427.0689"/><path d="m254.491317 269c-.134245 0-.258164-.028958-.345939-.086375l-13.037265-8.471763c-.170388-.107844-.134245-.275103.072285-.372962.098103-.046432.216858-.0689.33045-.0689.129082 0 .258164.028958.345939.085876l13.037265 8.472262c.165225.107345.134245.274604-.072286.372962-.098102.045933-.216857.0689-.330449.0689"/></g><path d="m281.757646 241.489755c-4.584599 4.050454-17.006875 13.718698-23.601804 18.762504-.313298.239418-.120098.733767.276747.703775l4.918783-.375933c.281968-.021201.496055.247175.407288.513999l-1.096544 3.385979c-.114876.359386.297633.66551.60571.446259 2.746581-1.940681 10.270961-10.049864 21.147633-20.61683.8929-.866662.741473-2.33161-.308076-3.001773-.736251-.470045-1.697033-.395582-2.349737.18202" fill="#6c6ca3"/><path d="m332.514513 106.588641-29.474586-17.0427623c-1.213963-.6988482-2.278751-.7014137-3.081201-.1518789l.005144-.0041049-4.96387 2.8041155s1.877526 2.939062 3.420698 6.3984118v26.5859908c0 3.372635 2.067851 7.291214 4.603797 8.752022l24.027189 13.841504c2.242743 3.76516 3.760196 6.228061 3.760196 6.228061l4.644948-2.673787v-.007697c1.028781-.483344 1.543172-1.828704 1.543172-3.808773v-32.16908c0-3.373149-1.949541-7.291727-4.485487-8.752022" fill="#6c6ca3"/><path d="m328.379809 154.446267-29.764792-17.17152c-2.550676-1.471889-4.615017-5.420191-4.615017-8.818409v-32.4136097c0-3.3987347 2.064341-4.960581 4.615017-3.4886921l29.764792 17.1710038c2.550677 1.471889 4.620191 5.420191 4.620191 8.818408v32.41361c0 3.398735-2.069514 4.960581-4.620191 3.489209" fill="#7777ab"/><path d="m325.492448 156c-.56824 0-1.193825-.177846-1.845476-.554219l-29.991578-17.170961c-2.570111-1.471885-4.655394-5.420178-4.655394-8.818387v-32.4135306c0-2.5306915 1.157332-4.0429024 2.804705-4.0429024.448336 0 .933164.111154 1.438845.3427678-.192888.5655928-.297152 1.2376865-.297152 2.0033564v32.4135308c0 3.398209 2.080069 7.346501 4.65018 8.818387l29.991579 17.171478c.140756.0791.2763.149412.411843.210934-.448336 1.303862-1.355434 2.039546-2.507552 2.039546" fill="#c3bfd5"/><path d="m328.705796 155c-.134199-.06191-.268397-.132665-.407757-.212264l-29.693998-17.279779c-2.54461-1.481168-4.604041-5.454362-4.604041-8.874004v-32.6179615c0-.770499.10323-1.4468316.294204-2.0159915.134199.0619104.268397.1326652.407757.2122644l29.693998 17.2797786c2.54461 1.481168 4.604041 5.454362 4.604041 8.874004v32.617962c0 .770498-.10323 1.446831-.294204 2.015991" fill="#7777ab"/><path d="m277.417715 17.5882764-29.45901-17.04219587c-1.210996-.69884599-2.298839-.70192461-3.099328-.15187842l-.010263-.00461793-4.849114 2.80461983s1.462431 2.93905275 3.514966 6.39839173v26.58539456c0 3.3731378 1.949909 7.2917037 4.479658 8.7519943l23.917166 13.8419738c2.237263 3.7646351 3.833109 6.2280416 3.833109 6.2280416l4.7157-2.6737786v-.0082097c.513133-.4828297 1.539401-1.8281852 1.539401-3.8082488v-32.1694923c0-3.3731377-2.052535-7.2911905-4.582285-8.7519942" fill="#3eb395"/><path d="m272.384983 64.4460489-29.764792-17.1714834c-2.550677-1.4713687-4.620191-5.4196622-4.620191-8.8183896v-32.41302325c0-3.3987274 2.069514-4.96108734 4.620191-3.48920159l29.764792 17.17148344c2.550676 1.4718857 4.615017 5.4196622 4.615017 8.8183896v32.4130232c0 3.3987275-2.064341 4.9610874-4.615017 3.4892016" fill="#5bbba4"/><path d="m269.429143 67c-.562049 0-1.186549-.1778463-1.842274-.5537018l-29.939551-17.1714783c-2.565653-1.4718853-4.647318-5.4196606-4.647318-8.818387v-32.41353051c0-2.53017446 1.155324-4.04290239 2.79984-4.04290239.567254 0 1.191753.17784635 1.847478.55421884l.4996.28744933c-.145717.51802918-.228984 1.11670961-.228984 1.78621839v32.41301354c0 3.3987264 2.081666 7.3470186 4.647318 8.8183869l29.434748 16.883512c-.411129 1.4393146-1.358287 2.257201-2.570857 2.257201" fill="#b7ddd3"/><path d="m272.773093 64-29.167906-16.9113789c-2.542393-1.4737968-4.605187-5.4286059-4.605187-8.832942v-32.46651249c0-.67061382.082512-1.2702824.226907-1.78916661l29.173063 16.9118967c2.542393 1.4737969 4.60003 5.428606 4.60003 8.8329421v32.4665124c0 .6706139-.077355 1.2702824-.226907 1.7886488" fill="#5bbba4"/><path d="m257 42.5642772c-4.045346-2.3795748-7.328674-8.1433641-7.328674-12.8733484 0-4.730505 3.283328-6.635623 7.328674-4.2555275 4.05046 2.3795748 7.328674 8.1433642 7.328674 12.8738692 0 4.7299842-3.278214 6.6351022-7.328674 4.2550067zm12.049096-5.4226597c-1.442209-.8468349-2.163314-3.307135-1.145584-3.8982528 1.155813-.6697599 1.155813-2.8550731 0-4.8804979l-.593249-1.042659c-1.150699-2.0259456-3.022503-3.1253727-4.178316-2.4556128-1.017729.5916387-2.756563-1.2759812-2.756563-2.9597556 0-1.9061596-1.324583-4.2284454-2.956018-5.1872542l-.838732-.4937266c-1.631435-.9588087-2.950903-.1911367-2.950903 1.7150229 0 1.6837744-1.743949 1.502533-2.761678-.2869655-1.155813-2.0259457-3.022502-3.1253728-4.178316-2.4556128l-.593249.3442545c-1.155813.6697599-1.155813 2.855073 0 4.8804979 1.01773 1.7894985.296625 3.4008805-1.145584 2.5540456-1.631436-.9588087-2.950904-.1911367-2.950904 1.7145021v.9812035c0 1.9056389 1.319468 4.2284455 2.950904 5.1872542 1.442209.8473557 2.163314 3.307135 1.145584 3.8987736-1.155813.6692392-1.155813 2.8545523 0 4.8804979l.593249 1.0421382c1.155814 2.0259456 3.022503 3.1253727 4.178316 2.4556128 1.017729-.5911179 2.761678 1.2759812 2.761678 2.9597556 0 1.9061596 1.319468 4.2284454 2.950903 5.187775l.838732.4932058c1.631435.9593295 2.956018.1916576 2.956018-1.7145021 0-1.6837744 1.738834-1.502533 2.756563.2869655 1.155813 2.0259457 3.027617 3.124852 4.178316 2.4556129l.593249-.3447754c1.155813-.6697599 1.155813-2.8545522 0-4.8804979-1.01773-1.7894985-.296625-3.4014013 1.145584-2.5540456 1.631436.9593295 2.950904.1911367 2.950904-1.7145021v-.9806827c0-1.9061597-1.319468-4.2284455-2.950904-5.187775z" fill="#fffffe"/><path d="m333.243639 45.588641-29.960382-17.0427623c-1.229465-.6988482-2.359947-.7014137-3.172644-.1518789l-.020838-.0041049-5.089775 2.8041155s1.844197 2.939062 3.407075 6.3984118v26.585991c0 3.3726352 2.135934 7.2912134 4.704265 8.7520216l24.360068 13.8415041c2.271383 3.76516 3.771747 6.2280611 3.771747 6.2280611l4.673007-2.673787v-.0076966c1.041919-.4833443 2.083838-1.8281909 2.083838-3.8087739v-32.1690798c0-3.3731483-2.18803-7.2917266-4.756361-8.7520217" fill="#e79d3a"/><path d="m327.384983 93.4462674-29.764792-17.1715204c-2.550677-1.471889-4.620191-5.4201909-4.620191-8.8184086v-32.4136101c0-3.3987347 2.069514-4.960581 4.620191-3.4886921l29.764792 17.1710034c2.550676 1.471889 4.615017 5.4201909 4.615017 8.8184086v32.4136101c0 3.3987347-2.064341 4.960581-4.615017 3.4892091" fill="#f9ce3c"/><path d="m325.274249 97c-.564842 0-1.181504-.1778463-1.83444-.5537018l-29.812251-17.1714783c-2.554744-1.4718853-4.627558-5.4201776-4.627558-8.818387v-32.4135305c0-2.5301745 1.150412-4.0429024 2.787935-4.0429024.456019 0 .948313.1158069 1.461334.3572437-.041456.3055441-.062184.6307341-.062184.9750529v32.4135305c0 3.3982094 2.072814 7.3465017 4.627558 8.818387l29.81225 17.1714783c.124369.0728963.248738.1385547.373107.1964581-.259102 1.939249-1.305873 3.0678495-2.725751 3.0678495" fill="#fdefaf"/><path d="m327.937593 94c-.124814-.0583166-.249629-.1244435-.374443-.19786l-29.919019-17.2940043c-2.563893-1.4823879-4.644131-5.4588529-4.644131-8.8813101v-32.6448152c0-.3467757.020802-.6742861.062407-.9820104.124814.0588373.249629.1244435.379644.1983807l29.919019 17.2940043c2.563893 1.4818672 4.63893 5.4583322 4.63893 8.8807894v32.6448152c0 .3467757-.020802.6748067-.062407.9820104" fill="#f9ce3c"/></g></g></svg>