<svg height="500" viewBox="0 0 517 500" width="517" xmlns="http://www.w3.org/2000/svg"><g fill="none" fill-rule="evenodd"><path d="m0 0h517v500h-517z" fill="#fff"/><g transform="translate(12 108)"><path d="m222 283.5h52v-68h-52z" fill="#49629f"/><path d="m318.029902 280.5h-140.060968c-2.191765 0-3.968934-1.3835-3.968934-3.090662 0-1.606527 1.67352-2.909338 3.73718-2.909338h140.52564c2.06366 0 3.73718 1.302811 3.73718 2.909338 0 1.707162-1.777169 3.090662-3.970098 3.090662" fill="#6085b6"/><path d="m91.1705981 249.5h313.6588039c3.40773 0 6.170598-2.761528 6.170598-6.169028v-190.6607908c0-3.4074996-2.762868-6.1701812-6.170598-6.1701812h-313.6588039c-3.4077298 0-6.1705981 2.7626816-6.1705981 6.1701812v190.6607908c0 3.4075 2.7628683 6.169028 6.1705981 6.169028" fill="#6085b6"/><path d="m96 229.5h303v-170h-303z" fill="#fffffe"/><g fill="#dbe5ee"><path d="m113 209.5h78v-32h-78z"/><path d="m209 209.5h78v-32h-78z"/><path d="m303 209.5h78v-32h-78z"/><path d="m113 77.5h68v-6h-68z"/><path d="m228 79.5h17v-3h-17z"/><path d="m269 79.5h25v-3h-25z"/><path d="m314 79.5h25v-3h-25z"/><path d="m359 79.5h25v-3h-25z"/></g><path d="m489.447156 109.5h-163.894312c-2.515014 0-4.552844-2.071281-4.552844-4.626408v-99.74601246c0-2.55512683 2.03783-4.62757954 4.552844-4.62757954h163.894312c2.513862 0 4.552844 2.07245271 4.552844 4.62757954v99.74601246c0 2.555127-2.038982 4.626408-4.552844 4.626408" fill="#65c4d8"/><path d="m454.471432 153.5h-94.942864c-2.501604 0-4.528568-2.056776-4.528568-4.592574v-97.8160146c0-2.5357985 2.026964-4.5914114 4.528568-4.5914114h94.942864c2.500457 0 4.528568 2.0556129 4.528568 4.5914114v97.8160146c0 2.535798-2.028111 4.592574-4.528568 4.592574" fill="#4e4a8d"/><path d="m161.291222 4.5h-147.5812891c-7.57158792 0-13.7099329 6.1420795-13.7099329 13.7182739s6.13834498 13.7171182 13.7099329 13.7171182h135.5448201l8.37425 10.5646079v-10.5646079h3.662219c7.571588 0 13.708778-6.1409238 13.708778-13.7171182s-6.13719-13.7182739-13.708778-13.7182739" fill="#e586ad"/><path d="m369 62.5h8v-3h-8z" fill="#e586ad"/><path d="m382 62.5h35v-3h-35z" fill="#fffffe"/><path d="m382 65.5h5v-3h-5z" fill="#fffffe"/><path d="m414 70.5h33v-3h-33z" fill="#e586ad"/><path d="m390 65.5h19v-3h-19z" fill="#fffffe"/><path d="m382 79.5h5v-3h-5z" fill="#fffffe"/><path d="m391 79.5h6v-3h-6z" fill="#ebc76f"/><path d="m382 70.5h30v-3h-30z" fill="#e586ad"/><path d="m382 74.5h63v-3h-63z" fill="#fffffe"/><path d="m369 90.5h8v-3h-8z" fill="#e586ad"/><path d="m382 90.5h35v-3h-35z" fill="#fffffe"/><path d="m382 97.5h5v-3h-5z" fill="#fffffe"/><path d="m414 101.5h33v-3h-33z" fill="#e586ad"/><path d="m390 97.5h19v-3h-19z" fill="#fffffe"/><path d="m382 109.5h5v-3h-5z" fill="#fffffe"/><path d="m391 109.5h6v-3h-6z" fill="#ebc76f"/><path d="m382 101.5h30v-3h-30z" fill="#e586ad"/><path d="m382 104.5h63v-3h-63z" fill="#fffffe"/><path d="m369 122.5h8v-3h-8z" fill="#e586ad"/><path d="m382 122.5h35v-3h-35z" fill="#fffffe"/><path d="m382 126.5h5v-3h-5z" fill="#fffffe"/><path d="m414 129.5h33v-3h-33z" fill="#e586ad"/><path d="m390 126.5h19v-3h-19z" fill="#fffffe"/><path d="m382 141.5h5v-3h-5z" fill="#fffffe"/><path d="m391 141.5h6v-3h-6z" fill="#ebc76f"/><path d="m382 129.5h30v-3h-30z" fill="#e586ad"/><path d="m382 136.5h63v-3h-63z" fill="#fffffe"/><path d="m102.446612 200.5h-97.8932243c-2.51531442 0-4.5533877-2.039226-4.5533877-4.553388v-97.8932243c0-2.5153144 2.03807328-4.5533877 4.5533877-4.5533877h97.8932243c2.514162 0 4.553388 2.0380733 4.553388 4.5533877v97.8932243c0 2.514162-2.039226 4.553388-4.553388 4.553388" fill="#65639d"/><path d="m51.9994151 108.85316c-21.8604016 0-39.6463248 17.786154-39.6463248 39.64684s17.7859232 39.64567 39.6463248 39.64567c21.8615714 0 39.6463248-17.784984 39.6463248-39.64567s-17.7847534-39.64684-39.6463248-39.64684zm0 84.64684c-24.813024 0-44.9994151-20.186653-44.9994151-45s20.1863911-45 44.9994151-45 45.0005849 20.186653 45.0005849 45-20.1875609 45-45.0005849 45z" fill="#4d4c8d"/><path d="m54.4994172 116.833508c-16.6331401 0-30.1659963 13.533079-30.1659963 30.166492s13.5328562 30.165326 30.1659963 30.165326c16.6331402 0 30.1659964-13.531913 30.1659964-30.165326s-13.5328562-30.166492-30.1659964-30.166492zm0 65.666492c-19.5749134 0-35.4994172-15.924765-35.4994172-35.5 0-19.574069 15.9245038-35.5 35.4994172-35.5s35.5005828 15.925931 35.5005828 35.5c0 19.575235-15.9256694 35.5-35.5005828 35.5z" fill="#4d4c8d"/><path d="m54.6550218 182.5c-1.4667603 0-2.6550218-1.194678-2.6550218-2.666754 0-1.473242 1.1882615-2.66792 2.6550218-2.66792 16.5602346 0 30.0337741-13.531913 30.0337741-30.165326s-13.4735395-30.166492-30.0337741-30.166492c-1.4667603 0-2.6550218-1.193512-2.6550218-2.666754s1.1882615-2.666754 2.6550218-2.666754c19.4891135 0 35.3449782 15.925931 35.3449782 35.5 0 19.575235-15.8558647 35.5-35.3449782 35.5" fill="#65c4d8"/><path d="m51.9994209 127.799835c-11.4136172 0-20.6997038 9.286294-20.6997038 20.700165s9.2860866 20.699007 20.6997038 20.699007c11.4136173 0 20.6997038-9.285136 20.6997038-20.699007s-9.2860865-20.700165-20.6997038-20.700165zm0 46.700165c-14.3368004 0-25.9994209-11.664038-25.9994209-26 0-14.33712 11.6626205-26 25.9994209-26s26.0005791 11.66288 26.0005791 26c0 14.335962-11.6637787 26-26.0005791 26z" fill="#4d4c8d"/><path d="m54.5 135.728628c-3.1731648 0-6.1097992 1.283162-8.2682825 3.611821-1.9368075 2.088709-3.0029086 4.808144-3.0029086 7.65898 0 6.214708 5.0562673 11.270801 11.2711911 11.270801s11.2711911-5.056093 11.2711911-11.270801c0-6.214709-5.0562673-11.270801-11.2711911-11.270801zm0 27.771372c-9.0978532 0-16.5-7.401891-16.5-16.500571 0-4.172848 1.5608726-8.15602 4.3958102-11.214813 3.1137466-3.358159 7.5255541-5.284616 12.1041898-5.284616 9.0989958 0 16.5 7.400748 16.5 16.499429 0 9.09868-7.4010042 16.500571-16.5 16.500571z" fill="#4d4c8d"/><path d="m54.5 163.5c-9.0978532 0-16.5-7.401891-16.5-16.500571 0-1.444272 1.1700831-2.614314 2.6144044-2.614314 1.4443214 0 2.6144045 1.170042 2.6144045 2.614314 0 6.214708 5.0562673 11.270801 11.2711911 11.270801s11.2711911-5.056093 11.2711911-11.270801c0-6.214709-5.0562673-11.270801-11.2711911-11.270801-1.4443213 0-2.6144044-1.170043-2.6144044-2.614314s1.1700831-2.614314 2.6144044-2.614314c9.0989958 0 16.5 7.400748 16.5 16.499429 0 9.09868-7.4010042 16.500571-16.5 16.500571" fill="#e586ad"/><path d="m96.887031 152.5c-1.7190493 0-3.112969-1.39392-3.112969-3.112969 0-21.868814-17.7922789-39.661093-39.661093-39.661093-1.7190493 0-3.112969-1.39392-3.112969-3.112969s1.3939197-3.112969 3.112969-3.112969c25.3021836 0 45.887031 20.584847 45.887031 45.887031 0 1.719049-1.3939197 3.112969-3.112969 3.112969" fill="#fffffe"/><path d="m54.6648528 174.5c-7.2135258 0-14.1102788-3.302448-18.9241124-9.06278-1.0748042-1.287575-.9669904-3.257436.2389689-4.402869 1.2081822-1.146617 3.0576902-1.031719 4.1324944.253488 3.7034619 4.432482 9.0074595 6.974467 14.5526491 6.974467 10.7424847 0 19.4820769-9.315083 19.4820769-20.762306 0-11.448407-8.7395922-20.762306-19.4820769-20.762306-1.6160966 0-2.9265352-1.396552-2.9265352-3.118847s1.3104386-3.118847 2.9265352-3.118847c13.9702318 0 25.3351472 12.11174 25.3351472 27s-11.3649154 27-25.3351472 27" fill="#f8c771"/><path d="m105 111.5 11-6h-11" fill="#65639d"/><g fill="#dbe5ee"><text font-family="LucidaGrande, Lucida Grande" font-size="12" letter-spacing="-.81"><tspan x="113" y="121.5">W</tspan> <tspan x="122.455625" y="121.5">eb Design</tspan></text><path d="m113 139.5h17v-3h-17z"/><path d="m113 145.5h103v-3h-103z"/><path d="m113 151.5h103v-3h-103z"/><path d="m113 160.5h55v-3h-55z"/></g><path d="m490.46338 229.5h-63.92676c-1.953393 0-3.53662-1.538629-3.53662-3.436997v-62.126006c0-1.897222 1.583227-3.436997 3.53662-3.436997h63.92676c1.953393 0 3.53662 1.539775 3.53662 3.436997v62.126006c0 1.898368-1.583227 3.436997-3.53662 3.436997" fill="#fffffe"/><path d="m439 212.5h6v-13h-6z" fill="#e586ad"/><path d="m449 212.5h6v-25h-6z" fill="#ebc76f"/><path d="m456 211.5h6v-17h-6z" fill="#65639d"/><path d="m466 212.5h6v-35h-6z" fill="#6085b6"/><path d="m474 211.5h6v-39h-6z" fill="#65c4d8"/><path d="m439 216.5h6v-2h-6z" fill="#dbe5ee"/><path d="m449 216.5h6v-2h-6z" fill="#dbe5ee"/><path d="m456 216.5h6v-2h-6z" fill="#dbe5ee"/><path d="m466 216.5h6v-2h-6z" fill="#dbe5ee"/><path d="m474 216.5h6v-2h-6z" fill="#dbe5ee"/><path d="m52.7313484 64.8554049c0 2.9591705-2.4026271 5.3565609-5.3656742 5.3565609s-5.3656742-2.3973904-5.3656742-5.3565609c0-2.9580145 2.4026271-5.3554049 5.3656742-5.3554049s5.3656742 2.3973904 5.3656742 5.3554049zm384.2686516 194.2880341c0 2.958015-2.402627 5.356561-5.365674 5.356561s-5.365674-2.398546-5.365674-5.356561c0-2.958014 2.402627-5.356561 5.365674-5.356561s5.365674 2.398547 5.365674 5.356561z" stroke="#65c4d8" stroke-width="4"/><path d="m70 74.4994876c0 2.2092994-1.791213 4.0005124-3.9994876 4.0005124-2.2092994 0-4.0005124-1.791213-4.0005124-4.0005124 0-2.2092993 1.791213-3.9994876 4.0005124-3.9994876 2.2082746 0 3.9994876 1.7901883 3.9994876 3.9994876" fill="#dbe5ee"/><path d="m131.567301 276.5h-89.1346022c-1.895994 0-3.4326988-1.522299-3.4326988-3.39799v-57.20402c0-1.875691 1.5367048-3.39799 3.4326988-3.39799h89.1346022c1.895994 0 3.432699 1.522299 3.432699 3.39799v57.20402c0 1.875691-1.536705 3.39799-3.432699 3.39799" fill="#65c4d8"/><path d="m44 271.5h88v-55h-88z" fill="#4e4a8d"/><path d="m86 238.5c0 3.865755 3.133996 7 7.0005567 7 3.8654473 0 6.9994433-3.134245 6.9994433-7s-3.133996-7-6.9994433-7c-3.8665607 0-7.0005567 3.134245-7.0005567 7" fill="#ebc76f"/><path d="m132 263.72617-22.157399-21.508429-15.4934764 15.039686-31.6842986-30.757427-18.664826 18.11815v26.88185h88z" fill="#fffffe"/><path d="m281.715497 25.5v9.134186m4.570021-4.5665164h-9.138887m199.283349 99.3701644v9.135339m4.57002-4.567669h-9.140041m-319.291092 124.359157v9.135339m4.57002-4.56767h-9.138887" stroke="#65c4d8" stroke-linecap="round" stroke-linejoin="round" stroke-width="4"/><path d="m173 256.999431c0 1.381115-1.119454 2.500569-2.499431 2.500569-1.381115 0-2.500569-1.119454-2.500569-2.500569 0-1.379977 1.119454-2.499431 2.500569-2.499431 1.379977 0 2.499431 1.119454 2.499431 2.499431" fill="#fffffe"/><path d="m184 258.999424c0 .829175-.671401 1.500576-1.499424 1.500576-.829175 0-1.500576-.671401-1.500576-1.500576 0-.828023.671401-1.499424 1.500576-1.499424.828023 0 1.499424.671401 1.499424 1.499424" fill="#fffffe"/><path d="m24 223.5c0 2.209143-1.7908571 4-4 4s-4-1.790857-4-4 1.7908571-4 4-4 4 1.790857 4 4" fill="#dbe5ee"/><path d="m419 262.500496c0 2.209051-1.790675 3.999504-4 3.999504s-4-1.790453-4-3.999504 1.790675-4.000496 4-4.000496 4 1.791445 4 4.000496" fill="#fffffe"/><path d="m269 16.5005465c0 1.6571325-1.343414 2.9994535-3.000547 2.9994535-1.657132 0-2.999453-1.342321-2.999453-2.9994535 0-1.6571324 1.342321-3.0005465 2.999453-3.0005465 1.657133 0 3.000547 1.3434141 3.000547 3.0005465" fill="#fffffe"/><path d="m299 33c0 1.3812688-1.119563 2.5-2.500536 2.5-1.379901 0-2.499464-1.1187312-2.499464-2.5s1.119563-2.5 2.499464-2.5c1.380973 0 2.500536 1.1187312 2.500536 2.5" fill="#fffffe"/><path d="m301 26c0 .8280216-.671278 1.5-1.500451 1.5-.828271 0-1.499549-.6719784-1.499549-1.5 0-.8289236.671278-1.5 1.499549-1.5.829173 0 1.500451.6710764 1.500451 1.5" fill="#fffffe"/><path d="m227.497823 29.5h19.005523c.82719 0 1.496654.6526919 1.496654 1.4577545v16.3434518c0 .8039255-.669464 1.4566174-1.496654 1.4566174h-5.657143l-3.846203 3.7421763-3.845035-3.7421763h-5.657142c-.827191 0-1.497823-.6526919-1.497823-1.4566174v-16.3434518c0-.8050626.670632-1.4577545 1.497823-1.4577545" fill="#e586ad"/><path d="m241.209975 38.1778251c-1.053367-.9037668-2.759924-.9037668-3.81329 0l-.897169.7706969-.897169-.7706969c-1.053367-.9037668-2.759924-.9037668-3.81329 0-1.052076.9048758-1.052076 2.3708633 0 3.275739l4.710459 4.0464359 4.710459-4.0464359c1.053367-.9048757 1.053367-2.3708632 0-3.275739" fill="#fcfbfa"/><path d="m390 255.499408c0 8.83742-7.163172 16.000592-15.999408 16.000592-8.83742 0-16.000592-7.163172-16.000592-16.000592 0-8.836236 7.163172-15.999408 16.000592-15.999408 8.836236 0 15.999408 7.163172 15.999408 15.999408" fill="#65c4d8"/><path d="m374.715452 258.842941-1.690966-1.692187-3.644244 1.692187 3.773712-4.684756 1.952154 2.341815 3.51365-2.341815zm-.716015-12.342941c-5.514213 0-9.999437 4.485476-9.999437 10.001126 0 1.946634.565156 3.836974 1.634675 5.468363.186884.285971.229665.642873.113707.965999l-1.026738 2.843954 2.843794-1.02567c.320855-.118217.679988-.075434.965944.112587 1.630172 1.069579 3.521531 1.633641 5.468055 1.633641 5.514213 0 10.000563-4.485476 10.000563-9.998874 0-5.51565-4.48635-10.001126-10.000563-10.001126z" fill="#fffffe"/><path d="m343.922498 13.723717-8.697072 8.2378879c-.144224.1363926-.225426.3204671-.225426.510086v7.29312c0 .405851.359954.7351891.803534.7351891h5.886521c.44358 0 .803534-.3293381.803534-.7351891v-3.5495328c0-1.0146274.898068-1.8363094 2.007017-1.8363094 1.107737 0 2.005805.821682 2.005805 1.8363094v3.5495328c0 .405851.359954.7351891.803534.7351891h5.886521c.44358 0 .803534-.3293381.803534-.7351891v-7.29312c0-.1896189-.081202-.3736934-.225426-.510086l-8.697072-8.2378879c-.315111-.2982893-.838681-.2982893-1.155004 0" fill="#34bbd9"/><path d="m28.4996773 251.5h-23.99935465c-2.4855883 0-4.50032265-2.014734-4.50032265-4.500323v-23.999354c0-2.485589 2.01473435-4.500323 4.50032265-4.500323h23.99935465c2.4855883 0 4.5003227 2.014734 4.5003227 4.500323v23.999354c0 2.485589-2.0147344 4.500323-4.5003227 4.500323" fill="#f8c771"/><path d="m14.7171053 237.881887c-3.1239035 0-5.66557021-2.542624-5.66557021-5.66526 0-3.123732 2.54166671-5.665259 5.66557021-5.665259 3.122807 0 5.6655701 2.541527 5.6655701 5.665259 0 3.122636-2.5427631 5.66526-5.6655701 5.66526zm11.2828947 3.460337-4.1414474-4.142317c.9901316-1.4133 1.5756579-3.130311 1.5756579-4.98328 0-4.806754-3.9100877-8.716627-8.7171052-8.716627-4.80701758 0-8.7171053 3.909873-8.7171053 8.716627s3.91008772 8.716628 8.7171053 8.716628c1.8530701 0 3.5701754-.585494 4.9835526-1.575572l4.1414474 4.142317z" fill="#fffffe"/></g></g></svg>